<svg width="30" height="30" viewBox="0 0 30 30" fill="none" xmlns="http://www.w3.org/2000/svg">
<path d="M1.99471 6.06201C2.99438 7.06168 4.54654 7.17078 5.66779 6.39084L4.7655 7.29318C3.56474 8.49395 3.5512 10.4314 4.7232 11.6498L11.6497 4.72314C10.4313 3.5512 8.49395 3.56479 7.29318 4.7655L6.3909 5.66779C7.17084 4.54654 7.06174 2.99438 6.06207 1.99471L4.90964 0.842346C3.78646 -0.280782 1.96547 -0.280782 0.842346 0.842346C-0.280782 1.96547 -0.280782 3.78651 0.842346 4.90964L1.99471 6.06201Z" fill="#FFF"/>
<path d="M24.63 13.49L16.5086 5.36855C15.6748 4.5347 14.3228 4.5347 13.4889 5.36855L5.36757 13.4901C4.53373 14.3239 4.53373 15.6759 5.36757 16.5097L13.4889 24.6311C14.3228 25.4649 15.6747 25.4649 16.5086 24.6311L24.63 16.5096C25.4639 15.6757 25.4639 14.3238 24.63 13.49ZM15.3268 8.14772L16.5698 9.39067L14.7989 11.1616L13.5559 9.91866L15.3268 8.14772ZM8.14668 15.3279L9.91763 13.5569L11.1606 14.7999L9.38964 16.5708L8.14668 15.3279ZM10.7873 17.9685L12.5583 16.1976L13.8012 17.4405L12.0303 19.2115L10.7873 17.9685ZM14.6709 21.8521L13.428 20.6092L15.1989 18.8382L16.4419 20.0812L14.6709 21.8521ZM16.1966 12.5593L17.9675 10.7884L19.2104 12.0313L17.4395 13.8023L16.1966 12.5593ZM20.0802 16.4429L18.8372 15.2L20.6081 13.429L21.8511 14.672L20.0802 16.4429Z" fill="#FFF"/>
<path d="M25.2378 7.29313L24.3355 6.39084C25.4568 7.17072 27.0089 7.06168 28.0086 6.06201L29.161 4.90964C30.2841 3.78646 30.2841 1.96547 29.161 0.842346C28.0379 -0.280782 26.2168 -0.280782 25.0937 0.842346L23.9413 1.99471C22.9417 2.99444 22.8326 4.54654 23.6125 5.66779L22.7101 4.76544C21.5094 3.56468 19.572 3.55114 18.3535 4.7232L25.2801 11.6498C26.4521 10.4313 26.4386 8.49389 25.2378 7.29313Z" fill="#FFF"/>
<path d="M28.0087 23.938C27.009 22.9383 25.4569 22.8292 24.3356 23.6091L25.2379 22.7068C26.4387 21.506 26.4522 19.5685 25.28 18.3501L18.3535 25.2767C19.5719 26.4488 21.5094 26.4354 22.7103 25.2345L23.6126 24.3322C22.8326 25.4535 22.9417 27.0056 23.9414 28.0053L25.0938 29.1577C26.2169 30.2808 28.0379 30.2808 29.161 29.1577C30.2842 28.0346 30.2842 26.2135 29.161 25.0904L28.0087 23.938Z" fill="#FFF"/>
<path d="M4.7655 22.7067L5.66779 23.609C4.54654 22.8291 2.99438 22.9382 1.99471 23.9378L0.842346 25.0902C-0.280782 26.2133 -0.280782 28.0344 0.842346 29.1575C1.96547 30.2806 3.78651 30.2806 4.90964 29.1575L6.06201 28.0051C7.06168 27.0055 7.17078 25.4533 6.39084 24.3321L7.29313 25.2344C8.49389 26.4351 10.4313 26.4487 11.6498 25.2767L4.72325 18.3501C3.5512 19.5686 3.56474 21.506 4.7655 22.7067Z" fill="#FFF"/>
</svg>
