<svg width="16" height="15" viewBox="0 0 16 15" fill="none" xmlns="http://www.w3.org/2000/svg">
<path d="M5.49922 6.45481L5.12786 6.08315L3.30245 4.26343C3.21457 4.17583 3.09554 4.12665 2.97146 4.12665C2.84738 4.12665 2.72836 4.17583 2.64047 4.26343L0.819491 6.07871L0.44529 6.45165C0.180582 6.71657 0.0228571 7.0698 0.00229668 7.44374C-0.0182638 7.81769 0.0997842 8.18608 0.333851 8.47843C0.567918 8.77078 0.901566 8.96655 1.27095 9.02829C1.64033 9.09002 2.01951 9.01338 2.33592 8.81304L2.12888 9.92868C2.11911 9.98121 2.12104 10.0353 2.13453 10.087C2.14801 10.1387 2.17273 10.1868 2.20691 10.2278C2.24109 10.2689 2.2839 10.302 2.3323 10.3246C2.3807 10.3473 2.43349 10.359 2.48693 10.3589H3.45694C3.51036 10.3589 3.56313 10.3472 3.6115 10.3245C3.65987 10.3018 3.70266 10.2688 3.73683 10.2277C3.771 10.1867 3.79572 10.1386 3.80923 10.0869C3.82273 10.0352 3.8247 9.98121 3.815 9.92868L3.60827 8.80671C3.90053 8.99179 4.24703 9.07205 4.5909 9.03431C4.93478 8.99658 5.25562 8.84309 5.5008 8.59903C5.6418 8.45831 5.75363 8.29114 5.82989 8.10711C5.90614 7.92307 5.94532 7.7258 5.94517 7.52659C5.94503 7.32739 5.90556 7.13017 5.82903 6.94625C5.7525 6.76233 5.64042 6.59533 5.49922 6.45481Z" fill="#FF0052"/>
<path d="M5.22793 0.445177C5.51436 0.160064 5.90206 0 6.30621 0C6.71036 0 7.09805 0.160064 7.38449 0.445177L7.75837 0.817795L8.13004 0.447393C8.41587 0.16259 8.80292 0.00267541 9.20642 0.00267541C9.60992 0.00267541 9.99697 0.16259 10.2828 0.447393C10.424 0.588027 10.5361 0.755173 10.6126 0.939237C10.6891 1.1233 10.7284 1.32066 10.7284 1.51998C10.7284 1.71929 10.6891 1.91665 10.6126 2.10071C10.5361 2.28478 10.424 2.45192 10.2828 2.59256L9.91114 2.96328L8.08572 4.78299C7.99776 4.87043 7.87876 4.91951 7.75473 4.91951C7.6307 4.91951 7.51171 4.87043 7.42375 4.78299L5.60213 2.96771L5.22793 2.59477C5.08636 2.45387 4.97402 2.28638 4.89736 2.10194C4.82071 1.91749 4.78125 1.71972 4.78125 1.51998C4.78125 1.32023 4.82071 1.12246 4.89736 0.938015C4.97402 0.753568 5.08636 0.586083 5.22793 0.445177Z" fill="#FF0052"/>
<path d="M10.5953 12.2591C10.6356 12.2353 10.6691 12.2014 10.6924 12.1608C10.7156 12.1201 10.7279 12.0741 10.7279 12.0272C10.7279 11.9804 10.7156 11.9343 10.6924 11.8936C10.6691 11.853 10.6356 11.8191 10.5953 11.7953C9.5181 11.1611 8.62022 10.263 7.98631 9.18572C7.96246 9.1455 7.92856 9.11217 7.88792 9.08903C7.84729 9.06588 7.80134 9.05371 7.75458 9.05371C7.70781 9.05371 7.66186 9.06588 7.62123 9.08903C7.58059 9.11217 7.54669 9.1455 7.52284 9.18572C6.88489 10.26 5.98778 11.1572 4.91356 11.7953C4.87326 11.8191 4.83986 11.853 4.81666 11.8936C4.79345 11.9343 4.78125 11.9803 4.78125 12.027C4.78125 12.0738 4.79345 12.1198 4.81666 12.1605C4.83986 12.2011 4.87326 12.235 4.91356 12.2588C5.99116 12.8922 6.88934 13.7901 7.52315 14.8674C7.54692 14.9078 7.58082 14.9413 7.62149 14.9645C7.66216 14.9878 7.7082 15 7.75505 15C7.8019 15 7.84794 14.9878 7.88861 14.9645C7.92928 14.9413 7.96318 14.9078 7.98695 14.8674C8.62198 13.7918 9.51911 12.8946 10.5946 12.2594L10.5953 12.2591Z" fill="#FF0052"/>
<path d="M13.9658 6.12244H13.9319C14.0089 5.88976 14.0296 5.64213 13.9921 5.39992C13.9547 5.15771 13.8603 4.92786 13.7166 4.72928C13.573 4.53071 13.3842 4.36909 13.1659 4.25774C12.9476 4.14639 12.7059 4.08849 12.4608 4.08881C12.2157 4.08912 11.9742 4.14765 11.7562 4.25956C11.5382 4.37148 11.3498 4.53358 11.2067 4.73253C11.0636 4.93147 10.9697 5.16157 10.9329 5.40388C10.8961 5.64618 10.9174 5.89376 10.995 6.12624C10.7716 6.14345 10.5546 6.20896 10.359 6.31826C10.1634 6.42755 9.9939 6.57801 9.86216 6.75925C9.73042 6.94048 9.63961 7.14816 9.596 7.36793C9.55239 7.5877 9.55703 7.81432 9.60959 8.03212C9.66214 8.24993 9.76137 8.45372 9.90041 8.62941C10.0395 8.80511 10.215 8.94851 10.4149 9.04972C10.6148 9.15092 10.8343 9.20751 11.0582 9.21557C11.2821 9.22364 11.5051 9.18298 11.7117 9.09642L11.5633 9.89737C11.5519 9.95823 11.5541 10.0208 11.5697 10.0808C11.5853 10.1407 11.6139 10.1964 11.6534 10.244C11.693 10.2917 11.7425 10.33 11.7986 10.3563C11.8546 10.3826 11.9158 10.3963 11.9777 10.3963H13.1018C13.1638 10.3963 13.2249 10.3826 13.281 10.3563C13.337 10.33 13.3866 10.2917 13.4262 10.2441C13.4657 10.1964 13.4944 10.1407 13.51 10.0808C13.5256 10.0209 13.5279 9.95825 13.5166 9.89737L13.3678 9.09642C13.579 9.18443 13.8071 9.22449 14.0357 9.21374C14.2643 9.20298 14.4876 9.14166 14.6896 9.0342C14.8917 8.92674 15.0674 8.77581 15.204 8.59229C15.3407 8.40877 15.435 8.19721 15.4801 7.97287C15.5252 7.74853 15.5199 7.51698 15.4648 7.2949C15.4096 7.07282 15.3058 6.86574 15.161 6.68858C15.0162 6.51141 14.8339 6.36858 14.6272 6.27035C14.4205 6.17213 14.1946 6.12096 13.9658 6.12054V6.12244Z" fill="#FF0052"/>
</svg>
