<svg width="81" height="81" viewBox="0 0 81 81" fill="none" xmlns="http://www.w3.org/2000/svg">
<rect x="0.148438" y="0.5" width="80.5391" height="80" rx="10" fill="#FF0052"/>
<path d="M35.418 40.5V60.5H24.918C23.2635 60.5 21.918 59.1545 21.918 57.5V40.399C22.241 40.465 22.5755 40.5 22.918 40.5H35.418ZM37.418 40.5V60.5H43.418V40.5H37.418ZM57.918 40.5H45.418V60.5H55.918C57.5725 60.5 58.918 59.1545 58.918 57.5V40.399C58.595 40.465 58.2605 40.5 57.918 40.5ZM60.918 31.5V35.5C60.918 37.1545 59.5725 38.5 57.918 38.5H22.918C21.2635 38.5 19.918 37.1545 19.918 35.5V31.5C19.918 29.8455 21.2635 28.5 22.918 28.5H32.4275C31.797 27.663 31.418 26.626 31.418 25.5C31.418 22.743 33.661 20.5 36.418 20.5C38.0545 20.5 39.5055 21.294 40.418 22.513C41.331 21.294 42.7815 20.5 44.418 20.5C47.175 20.5 49.418 22.743 49.418 25.5C49.418 26.626 49.039 27.663 48.4085 28.5H57.918C59.5725 28.5 60.918 29.8455 60.918 31.5ZM41.418 25.5V28.5H44.418C46.0725 28.5 47.418 27.1545 47.418 25.5C47.418 23.8455 46.0725 22.5 44.418 22.5C42.7635 22.5 41.418 23.8455 41.418 25.5ZM36.418 28.5H39.418V25.5C39.418 23.8455 38.0725 22.5 36.418 22.5C34.7635 22.5 33.418 23.8455 33.418 25.5C33.418 27.1545 34.7635 28.5 36.418 28.5Z" fill="white"/>
</svg>
