<svg width="60" height="60" viewBox="0 0 60 60" fill="none" xmlns="http://www.w3.org/2000/svg">
<rect width="60" height="60" rx="10" fill="#FF0052"/>
<path d="M30.3135 13C23.5238 13 18 18.5238 18 25.3135C18 33.7396 29.0194 46.1097 29.4886 46.6322C29.9292 47.123 30.6986 47.1222 31.1385 46.6322C31.6077 46.1097 42.6271 33.7396 42.6271 25.3135C42.6269 18.5238 37.1032 13 30.3135 13ZM30.3135 31.5087C26.8975 31.5087 24.1183 28.7295 24.1183 25.3135C24.1183 21.8974 26.8975 19.1183 30.3135 19.1183C33.7295 19.1183 36.5086 21.8975 36.5086 25.3135C36.5086 28.7296 33.7295 31.5087 30.3135 31.5087Z" fill="white"/>
</svg>
