<svg width="80" height="80" viewBox="0 0 80 80" fill="none" xmlns="http://www.w3.org/2000/svg">
<rect width="80" height="80" rx="10" fill="#FF0052"/>
<path d="M55.5115 33.8906H38.6986C36.1371 33.8906 34.0544 35.9817 34.0544 38.5431V55.3477C34.0544 57.9091 36.1371 60.0002 38.6986 60.0002H55.5115C58.0729 60.0002 60.1557 57.9091 60.1557 55.3477V38.5431C60.1557 35.9817 58.0729 33.8906 55.5115 33.8906ZM42.1586 45.0432C40.4706 45.0432 39.1017 43.6743 39.1017 41.9947C39.1017 40.3068 40.4706 38.9379 42.1586 38.9379C43.8382 38.9379 45.2071 40.3068 45.2071 41.9947C45.2071 43.6743 43.8382 45.0432 42.1586 45.0432ZM52.0515 54.9446C50.3719 54.9446 49.003 53.5757 49.003 51.8961C49.003 50.2081 50.3719 48.8392 52.0515 48.8392C53.7395 48.8392 55.1 50.2081 55.1 51.8961C55.1 53.5757 53.7395 54.9446 52.0515 54.9446Z" fill="white"/>
<path d="M38.6982 32.2108H45.9457V24.6442C45.9457 22.0828 43.8629 20 41.3015 20H24.4886C21.9272 20 19.8445 22.0828 19.8445 24.6442V41.4571C19.8445 44.0185 21.9272 46.1012 24.4886 46.1012H32.3744V38.5429C32.3744 35.0494 35.2129 32.2108 38.6982 32.2108ZM37.8499 25.0472C39.5296 25.0472 40.8984 26.4161 40.8984 28.0957C40.8984 29.7838 39.5296 31.1443 37.8499 31.1443C36.1619 31.1443 34.793 29.7838 34.793 28.0957C34.793 26.4161 36.1619 25.0472 37.8499 25.0472ZM27.9486 41.0456C26.2606 41.0456 24.8917 39.6851 24.8917 37.9971C24.8917 36.3091 26.2606 34.9486 27.9486 34.9486C29.6282 34.9486 30.9971 36.3091 30.9971 37.9971C30.9971 39.6851 29.6282 41.0456 27.9486 41.0456ZM27.9486 31.1443C26.2606 31.1443 24.8917 29.7838 24.8917 28.0957C24.8917 26.4161 26.2606 25.0472 27.9486 25.0472C29.6282 25.0472 30.9971 26.4161 30.9971 28.0957C30.9971 29.7838 29.6282 31.1443 27.9486 31.1443Z" fill="white"/>
</svg>
