<svg width="27" height="30" viewBox="0 0 27 30" fill="none" xmlns="http://www.w3.org/2000/svg">
<path d="M25.4355 6.54249L14.7264 0.358685C14.3194 0.123706 13.8578 0 13.3878 0C12.9178 0 12.4562 0.123706 12.0492 0.358685L1.34013 6.54249C1.13567 6.66067 0.947746 6.80538 0.78125 6.97286L13.3878 14.2497L25.9944 6.97152C25.8278 6.80452 25.6399 6.66026 25.4355 6.54249ZM14.8844 7.4889C14.422 7.7245 13.9104 7.84733 13.3915 7.84733C12.8725 7.84733 12.361 7.7245 11.8986 7.4889C11.0706 7.01101 11.0619 6.23461 11.8845 5.75671C12.3486 5.52108 12.8617 5.39827 13.3821 5.39827C13.9026 5.39827 14.4157 5.52108 14.8797 5.75671C15.0604 5.81813 15.2173 5.93446 15.3287 6.08944C15.44 6.24443 15.5001 6.43032 15.5006 6.62113C15.5011 6.81195 15.442 6.99817 15.3315 7.15375C15.2211 7.30933 15.0647 7.42651 14.8844 7.4889Z" fill="#FFF"/>
<path d="M0.104413 8.12744C0.035899 8.36551 0.000759225 8.61194 0 8.85967V21.2259C0.00024683 21.6957 0.12407 22.1571 0.359037 22.5638C0.594003 22.9705 0.931842 23.3083 1.33863 23.5431L12.0477 29.7256C12.2573 29.8465 12.4825 29.9382 12.717 29.998V15.4069L0.104413 8.12744ZM3.01527 15.7175C2.65164 15.4819 2.34908 15.1634 2.13243 14.7881C1.91579 14.4129 1.79123 13.9916 1.769 13.5589C1.769 12.7678 2.33123 12.4492 3.02397 12.8488C3.38579 13.0842 3.68686 13.4017 3.90263 13.7755C4.1184 14.1494 4.24275 14.5689 4.26555 15C4.26354 15.7965 3.70399 16.1137 3.01527 15.7175ZM6.02384 21.0225C5.66016 20.7868 5.35757 20.4682 5.14093 20.0928C4.92428 19.7175 4.79975 19.2961 4.77757 18.8633C4.77757 18.0728 5.33913 17.7535 6.03187 18.1538C6.394 18.3889 6.69535 18.7063 6.91126 19.0802C7.12717 19.4541 7.25151 19.8738 7.27412 20.305C7.2701 21.1008 6.71056 21.4194 6.02384 21.0225ZM9.0304 26.3268C8.66677 26.0912 8.36421 25.7727 8.14757 25.3975C7.93092 25.0222 7.80637 24.601 7.78414 24.1683C7.78414 23.3771 8.34569 23.0585 9.03843 23.4581C9.40046 23.6933 9.70172 24.0108 9.91761 24.3847C10.1335 24.7585 10.2579 25.1782 10.2807 25.6093C10.2767 26.4051 9.71645 26.7244 9.0284 26.3268H9.0304Z" fill="#FFF"/>
<path d="M26.6692 8.12744L14.0566 15.4089V30C14.2911 29.9402 14.5163 29.8485 14.726 29.7276L25.435 23.5431C25.842 23.3081 26.18 22.9702 26.4149 22.5632C26.6499 22.1562 26.7736 21.6946 26.7736 21.2246V8.85967C26.7729 8.61194 26.7377 8.36551 26.6692 8.12744ZM18.2358 16.0541C18.9286 15.6526 19.4881 15.9732 19.4901 16.769C19.4679 17.2012 19.3434 17.6219 19.127 17.9966C18.9106 18.3714 18.6084 18.6895 18.2452 18.9248C17.5572 19.3224 16.9929 19.0058 16.9902 18.2154C17.0128 17.7823 17.1375 17.3607 17.3542 16.985C17.571 16.6094 17.8735 16.2904 18.2372 16.0541H18.2358ZM18.2599 24.6656C17.5719 25.0625 17.0077 24.7465 17.0056 23.9554C17.0282 23.5228 17.153 23.1017 17.3696 22.7265C17.5862 22.3513 17.8885 22.0328 18.2519 21.7969C18.9447 21.3953 19.5042 21.7159 19.5069 22.5117C19.4836 22.9435 19.3587 23.3636 19.1422 23.7379C18.9257 24.1122 18.6239 24.4301 18.2613 24.6656H18.2599ZM23.2343 13.1687C23.927 12.7671 24.4866 13.0877 24.4893 13.8836C24.4664 14.3155 24.3415 14.7358 24.1249 15.1102C23.9082 15.4846 23.606 15.8023 23.243 16.0374C22.5543 16.435 21.9947 16.1157 21.9927 15.3253C22.0147 14.8933 22.1386 14.4727 22.3544 14.0978C22.5703 13.723 22.8718 13.4046 23.2343 13.1687ZM23.2591 21.7801C22.571 22.1777 22.0115 21.8584 22.0088 21.068C22.0307 20.6359 22.1547 20.2152 22.3706 19.8403C22.5865 19.4655 22.8883 19.1471 23.251 18.9115C23.9438 18.5099 24.5033 18.8305 24.5053 19.6263C24.4826 20.0582 24.3578 20.4786 24.1411 20.853C23.9245 21.2274 23.6222 21.5452 23.2591 21.7801Z" fill="#FFF"/>
</svg>
