<svg width="31" height="30" viewBox="0 0 31 30" fill="none" xmlns="http://www.w3.org/2000/svg">
<path d="M11.625 15V30H3.75C2.50912 30 1.5 28.9909 1.5 27.75V14.9242C1.74225 14.9738 1.99312 15 2.25 15H11.625ZM13.125 15V30H17.625V15H13.125ZM28.5 15H19.125V30H27C28.2409 30 29.25 28.9909 29.25 27.75V14.9242C29.0077 14.9738 28.7569 15 28.5 15ZM30.75 8.25V11.25C30.75 12.4909 29.7409 13.5 28.5 13.5H2.25C1.00912 13.5 0 12.4909 0 11.25V8.25C0 7.00912 1.00912 6 2.25 6H9.38212C8.90925 5.37225 8.625 4.5945 8.625 3.75C8.625 1.68225 10.3072 0 12.375 0C13.6024 0 14.6906 0.5955 15.375 1.50975C16.0597 0.5955 17.1476 0 18.375 0C20.4427 0 22.125 1.68225 22.125 3.75C22.125 4.5945 21.8407 5.37225 21.3679 6H28.5C29.7409 6 30.75 7.00912 30.75 8.25ZM16.125 3.75V6H18.375C19.6159 6 20.625 4.99088 20.625 3.75C20.625 2.50912 19.6159 1.5 18.375 1.5C17.1341 1.5 16.125 2.50912 16.125 3.75ZM12.375 6H14.625V3.75C14.625 2.50912 13.6159 1.5 12.375 1.5C11.1341 1.5 10.125 2.50912 10.125 3.75C10.125 4.99088 11.1341 6 12.375 6Z" fill="#FFF"/>
</svg>
