<svg width="15" height="16" viewBox="0 0 15 16" fill="none" xmlns="http://www.w3.org/2000/svg">
<path d="M7.49999 0.301636C8.98335 0.301636 10.4334 0.741504 11.6668 1.56561C12.9001 2.38973 13.8614 3.56107 14.4291 4.93151C14.9968 6.30196 15.1453 7.80996 14.8559 9.26482C14.5665 10.7197 13.8522 12.0561 12.8033 13.105C11.7544 14.1538 10.418 14.8682 8.96317 15.1575C7.50831 15.4469 6.00031 15.2984 4.62986 14.7307C3.25941 14.1631 2.08807 13.2018 1.26396 11.9684C0.439848 10.7351 -2.00272e-05 9.28501 -2.00272e-05 7.80164C0.00223064 5.81321 0.793131 3.90686 2.19917 2.50082C3.6052 1.09479 5.51155 0.303887 7.49999 0.301636ZM1.04833 6.09684L2.09408 6.30495C2.21667 5.86253 2.39344 5.43694 2.62038 5.03786L1.73502 4.44731C1.43274 4.96365 1.20175 5.51853 1.04833 6.09684ZM3.45802 2.4966C2.98276 2.85965 2.558 3.28441 2.19494 3.75967L3.08077 4.35282C3.36314 3.99191 3.68836 3.66668 4.04928 3.38432L3.45802 2.4966ZM5.79518 1.34998C5.2168 1.50373 4.66191 1.73513 4.14565 2.03786L4.73621 2.92321C5.13511 2.69643 5.56044 2.51967 6.00258 2.39691L5.79518 1.34998ZM7.49999 1.12841C7.20107 1.12895 6.90252 1.14955 6.60637 1.19006L6.81495 2.23487C7.27028 2.17691 7.73112 2.17691 8.18645 2.23487L8.39432 1.19006C8.09793 1.14951 7.79914 1.12892 7.49999 1.12841ZM9.20479 1.34998L8.99692 2.39573C9.43922 2.51845 9.86472 2.69521 10.2638 2.92203L10.8543 2.03786C10.338 1.73519 9.78316 1.50379 9.20479 1.34998ZM11.542 2.4966L10.95 3.38243C11.3109 3.66479 11.6361 3.99002 11.9185 4.35093L12.8043 3.75896C12.4414 3.284 12.0169 2.85948 11.542 2.4966ZM13.2638 4.44731L12.3796 5.03786C12.6065 5.43672 12.7833 5.86206 12.9059 6.30424L13.9516 6.09613C13.7978 5.51801 13.5664 4.96336 13.2638 4.44731ZM14.1732 7.80164C14.1727 7.50273 14.1521 7.20418 14.1116 6.90802L13.0668 7.1159C13.1247 7.57122 13.1247 8.03206 13.0668 8.48739L14.1116 8.69527C14.1521 8.39911 14.1727 8.10056 14.1732 7.80164ZM13.9516 9.50645L12.9059 9.29834C12.7833 9.74076 12.6065 10.1663 12.3796 10.5654L13.2638 11.156C13.5665 10.6397 13.7979 10.0848 13.9516 9.50645ZM11.5422 13.1067C12.0175 12.7436 12.4422 12.3189 12.8053 11.8436L11.9194 11.2516C11.6371 11.6126 11.3119 11.9378 10.9509 12.2202L11.5422 13.1067ZM9.20503 14.2533C9.78327 14.0999 10.3381 13.8689 10.8543 13.5666L10.2638 12.6813C9.86486 12.908 9.43953 13.0848 8.99739 13.2076L9.20503 14.2533ZM7.49999 14.4749C7.79891 14.4743 8.09745 14.4537 8.39361 14.4132L8.18574 13.3684C7.73041 13.4264 7.26957 13.4264 6.81424 13.3684L6.60637 14.4132C6.90252 14.4537 7.20107 14.4743 7.49999 14.4749ZM5.79518 14.2533L6.00306 13.2076C5.56075 13.0848 5.13526 12.9081 4.73621 12.6813L4.14565 13.5666C4.662 13.8689 5.21688 14.0999 5.79518 14.2533ZM7.49999 12.5851C8.44607 12.5851 9.3709 12.3046 10.1575 11.779C10.9442 11.2533 11.5573 10.5063 11.9193 9.6322C12.2814 8.75813 12.3761 7.79634 12.1915 6.86844C12.007 5.94053 11.5514 5.0882 10.8824 4.41922C10.2134 3.75024 9.3611 3.29466 8.4332 3.11009C7.50529 2.92552 6.5435 3.02024 5.66943 3.38229C4.79537 3.74434 4.04829 4.35745 3.52268 5.14409C2.99706 5.93073 2.71652 6.85556 2.71652 7.80164C2.71796 9.06986 3.22239 10.2857 4.11915 11.1825C5.01592 12.0792 6.23178 12.5837 7.49999 12.5851ZM3.45802 13.1067L4.04998 12.2209C3.68907 11.9385 3.36385 11.6133 3.08148 11.2524L2.19565 11.8443C2.55853 12.3193 2.98305 12.7438 3.45802 13.1067ZM1.73502 11.156L2.62038 10.5654C2.39349 10.1666 2.21672 9.74123 2.09408 9.29905L1.04833 9.50716C1.20181 10.0852 1.4328 10.6399 1.73502 11.156ZM1.93321 8.48668C1.87526 8.03136 1.87526 7.57052 1.93321 7.11519L0.888407 6.90731C0.8062 7.50023 0.8062 8.10164 0.888407 8.69456L1.93321 8.48668Z" fill="#FF0052"/>
<path d="M4.90162 6.44338C5.18946 6.44377 5.46977 6.53546 5.70221 6.70524C5.93465 6.87503 6.10724 7.11417 6.19516 7.38827H7.08666V6.49677C6.77805 6.39817 6.51484 6.1925 6.34455 5.91688C6.17425 5.64127 6.10808 5.31386 6.15798 4.99375C6.20788 4.67363 6.37055 4.38189 6.61665 4.17118C6.86275 3.96047 7.17606 3.84467 7.50004 3.84467C7.82403 3.84467 8.13734 3.96047 8.38344 4.17118C8.62953 4.38189 8.79221 4.67363 8.84211 4.99375C8.892 5.31386 8.82584 5.64127 8.65554 5.91688C8.48525 6.1925 8.22204 6.39817 7.91343 6.49677V7.38827H8.80493C8.90353 7.07965 9.1092 6.81645 9.38481 6.64616C9.66043 6.47586 9.98784 6.40969 10.308 6.45959C10.6281 6.50949 10.9198 6.67216 11.1305 6.91826C11.3412 7.16436 11.457 7.47767 11.457 7.80165C11.457 8.12563 11.3412 8.43894 11.1305 8.68504C10.9198 8.93114 10.6281 9.09382 10.308 9.14372C9.98784 9.19361 9.66043 9.12744 9.38481 8.95715C9.1092 8.78685 8.90353 8.52365 8.80493 8.21504H7.91343V9.10653C8.22204 9.20514 8.48525 9.4108 8.65554 9.68642C8.82584 9.96203 8.892 10.2894 8.84211 10.6096C8.79221 10.9297 8.62953 11.2214 8.38344 11.4321C8.13734 11.6428 7.82403 11.7586 7.50004 11.7586C7.17606 11.7586 6.86275 11.6428 6.61665 11.4321C6.37055 11.2214 6.20788 10.9297 6.15798 10.6096C6.10808 10.2894 6.17425 9.96203 6.34455 9.68642C6.51484 9.4108 6.77805 9.20514 7.08666 9.10653V8.21504H6.19516C6.1188 8.45385 5.97782 8.66685 5.78784 8.83046C5.59785 8.99407 5.36629 9.10189 5.1188 9.14198C4.8713 9.18207 4.61754 9.15286 4.38563 9.05759C4.15371 8.96232 3.9527 8.80471 3.80486 8.60222C3.65701 8.39973 3.56811 8.16027 3.54799 7.91036C3.52788 7.66045 3.57734 7.40984 3.6909 7.18632C3.80446 6.96279 3.97769 6.77506 4.19138 6.64393C4.40507 6.5128 4.6509 6.44339 4.90162 6.44338ZM10.0985 8.33315C10.2036 8.33315 10.3064 8.30198 10.3938 8.24358C10.4812 8.18517 10.5493 8.10217 10.5895 8.00505C10.6297 7.90793 10.6403 7.80106 10.6198 7.69796C10.5992 7.59486 10.5486 7.50016 10.4743 7.42583C10.4 7.3515 10.3053 7.30088 10.2022 7.28037C10.0991 7.25986 9.9922 7.27039 9.89508 7.31061C9.79796 7.35084 9.71495 7.41896 9.65655 7.50637C9.59815 7.59377 9.56698 7.69653 9.56698 7.80165C9.56716 7.94256 9.62322 8.07764 9.72285 8.17727C9.82249 8.2769 9.95757 8.33296 10.0985 8.33315ZM6.96855 10.4001C6.96855 10.5052 6.99972 10.608 7.05812 10.6954C7.11652 10.7828 7.19953 10.8509 7.29665 10.8911C7.39377 10.9313 7.50063 10.9419 7.60373 10.9214C7.70683 10.9009 7.80154 10.8502 7.87587 10.7759C7.9502 10.7016 8.00082 10.6069 8.02133 10.5038C8.04184 10.4007 8.03131 10.2938 7.99108 10.1967C7.95086 10.0996 7.88273 10.0166 7.79533 9.95816C7.70792 9.89976 7.60516 9.86858 7.50004 9.86858C7.35914 9.86877 7.22406 9.92483 7.12443 10.0245C7.02479 10.1241 6.96874 10.2592 6.96855 10.4001ZM7.50004 5.73472C7.60516 5.73472 7.70792 5.70355 7.79533 5.64515C7.88273 5.58675 7.95086 5.50374 7.99108 5.40662C8.03131 5.3095 8.04184 5.20263 8.02133 5.09953C8.00082 4.99643 7.9502 4.90173 7.87587 4.8274C7.80154 4.75307 7.70683 4.70245 7.60373 4.68194C7.50063 4.66143 7.39377 4.67196 7.29665 4.71219C7.19953 4.75241 7.11652 4.82054 7.05812 4.90794C6.99972 4.99534 6.96855 5.0981 6.96855 5.20322C6.96874 5.34413 7.02479 5.47921 7.12443 5.57884C7.22406 5.67848 7.35914 5.73453 7.50004 5.73472ZM4.90162 8.33315C5.00674 8.33315 5.1095 8.30198 5.1969 8.24358C5.28431 8.18517 5.35243 8.10217 5.39266 8.00505C5.43288 7.90793 5.44341 7.80106 5.4229 7.69796C5.40239 7.59486 5.35177 7.50016 5.27744 7.42583C5.20311 7.3515 5.10841 7.30088 5.00531 7.28037C4.90221 7.25986 4.79534 7.27039 4.69822 7.31061C4.6011 7.35084 4.51809 7.41896 4.45969 7.50637C4.40129 7.59377 4.37012 7.69653 4.37012 7.80165C4.37031 7.94256 4.42636 8.07764 4.526 8.17727C4.62563 8.2769 4.76071 8.33296 4.90162 8.33315Z" fill="#FF0052"/>
</svg>
