<svg width="15" height="16" viewBox="0 0 15 16" fill="none" xmlns="http://www.w3.org/2000/svg">
<path d="M11.6249 4.0517H1.87499C1.5769 4.05259 1.29127 4.1714 1.08049 4.38218C0.869702 4.59297 0.75089 4.8786 0.75 5.17669V9.72541C0.872148 9.69192 0.998347 9.67551 1.125 9.67666H12.3749C12.5016 9.67551 12.6278 9.69192 12.7499 9.72541V5.17669C12.749 4.8786 12.6302 4.59297 12.4194 4.38218C12.2086 4.1714 11.923 4.05259 11.6249 4.0517ZM4.06498 5.75794C3.77283 6.20225 3.5337 6.67925 3.35248 7.17918C3.18377 7.64027 3.06436 8.11793 2.99623 8.60417C2.98359 8.69363 2.93906 8.77551 2.87085 8.83477C2.80265 8.89402 2.71534 8.92665 2.62499 8.92666C2.60741 8.92716 2.58982 8.9259 2.57249 8.92291C2.47403 8.90898 2.38515 8.85651 2.32537 8.77704C2.2656 8.69758 2.23983 8.59763 2.25374 8.49917C2.32993 7.96192 2.46189 7.43407 2.64749 6.92418C2.77224 6.58146 2.92137 6.24811 3.09373 5.92668H2.24999C2.15053 5.92668 2.05515 5.88718 1.98483 5.81685C1.9145 5.74652 1.87499 5.65114 1.87499 5.55169C1.87499 5.45223 1.9145 5.35685 1.98483 5.28652C2.05515 5.2162 2.15053 5.17669 2.24999 5.17669H3.74998C3.81739 5.17674 3.88355 5.19486 3.94159 5.22915C3.99963 5.26345 4.04741 5.31267 4.07998 5.37169C4.11181 5.43166 4.1272 5.49899 4.12456 5.56683C4.12193 5.63468 4.10137 5.70062 4.06498 5.75794ZM7.81495 5.75794C7.5228 6.20225 7.28367 6.67925 7.10246 7.17918C6.93375 7.64027 6.81433 8.11793 6.74621 8.60417C6.73356 8.69363 6.68904 8.77551 6.62083 8.83477C6.55262 8.89402 6.46531 8.92665 6.37496 8.92666C6.35738 8.92716 6.3398 8.9259 6.32246 8.92291C6.22401 8.90898 6.13512 8.85651 6.07535 8.77704C6.01557 8.69758 5.98981 8.59763 6.00372 8.49917C6.0799 7.96192 6.21186 7.43407 6.39746 6.92418C6.52222 6.58146 6.67135 6.24811 6.84371 5.92668H5.99996C5.90051 5.92668 5.80513 5.88718 5.7348 5.81685C5.66448 5.74652 5.62497 5.65114 5.62497 5.55169C5.62497 5.45223 5.66448 5.35685 5.7348 5.28652C5.80513 5.2162 5.90051 5.17669 5.99996 5.17669H7.49996C7.56737 5.17674 7.63353 5.19486 7.69157 5.22915C7.7496 5.26345 7.79739 5.31267 7.82995 5.37169C7.86179 5.43166 7.87717 5.49899 7.87454 5.56683C7.8719 5.63468 7.85134 5.70062 7.81495 5.75794ZM11.5649 5.75794C11.2728 6.20225 11.0336 6.67925 10.8524 7.17918C10.6837 7.64027 10.5643 8.11793 10.4962 8.60417C10.4835 8.69363 10.439 8.77551 10.3708 8.83477C10.3026 8.89402 10.2153 8.92665 10.1249 8.92666C10.1074 8.92716 10.0898 8.9259 10.0724 8.92291C9.97398 8.90898 9.8851 8.85651 9.82532 8.77704C9.76555 8.69758 9.73978 8.59763 9.75369 8.49917C9.82988 7.96192 9.96184 7.43407 10.1474 6.92418C10.2722 6.58146 10.4213 6.24811 10.5937 5.92668H9.74994C9.65048 5.92668 9.5551 5.88718 9.48478 5.81685C9.41445 5.74652 9.37494 5.65114 9.37494 5.55169C9.37494 5.45223 9.41445 5.35685 9.48478 5.28652C9.5551 5.2162 9.65048 5.17669 9.74994 5.17669H11.2499C11.3173 5.17674 11.3835 5.19486 11.4415 5.22915C11.4996 5.26345 11.5474 5.31267 11.5799 5.37169C11.6118 5.43166 11.6271 5.49899 11.6245 5.56683C11.6219 5.63468 11.6013 5.70062 11.5649 5.75794Z" fill="#FF0052"/>
<path d="M9.72735 1.85798L9.07485 3.67671H4.40988L3.77239 1.98172C3.74675 1.90974 3.74304 1.83176 3.76173 1.75767C3.78042 1.68358 3.82067 1.61669 3.87738 1.56548C3.9351 1.51586 4.00656 1.48498 4.08225 1.47694C4.15794 1.4689 4.23428 1.48409 4.30113 1.52048L5.49737 2.16172L6.42362 0.492984C6.4571 0.433371 6.50625 0.384047 6.56574 0.350347C6.62524 0.316647 6.69281 0.299855 6.76116 0.301785C6.8295 0.303716 6.89602 0.324297 6.95352 0.361301C7.01101 0.398305 7.0573 0.450325 7.08736 0.511734L7.87861 2.14672L9.1911 1.40423C9.25774 1.3669 9.3342 1.35081 9.41024 1.35812C9.48628 1.36543 9.55827 1.39579 9.61658 1.44513C9.6749 1.49447 9.71675 1.56045 9.73655 1.63423C9.75634 1.70801 9.75313 1.78607 9.72735 1.85798Z" fill="#FF0052"/>
<path d="M14.625 11.5516H13.125C12.9179 11.5516 12.75 11.7195 12.75 11.9266V13.4266C12.75 13.6337 12.9179 13.8016 13.125 13.8016H14.625C14.8321 13.8016 15 13.6337 15 13.4266V11.9266C15 11.7195 14.8321 11.5516 14.625 11.5516Z" fill="#FF0052"/>
<path d="M13.875 1.42676C13.5766 1.42676 13.2905 1.54528 13.0795 1.75626C12.8685 1.96724 12.75 2.25338 12.75 2.55175V3.30175C12.75 3.60011 12.8685 3.88626 13.0795 4.09724C13.2905 4.30821 13.5766 4.42674 13.875 4.42674C14.1734 4.42674 14.4595 4.30821 14.6705 4.09724C14.8815 3.88626 15 3.60011 15 3.30175V2.55175C15 2.25338 14.8815 1.96724 14.6705 1.75626C14.4595 1.54528 14.1734 1.42676 13.875 1.42676Z" fill="#FF0052"/>
<path d="M13.875 12.3016C13.7755 12.3016 13.6802 12.2621 13.6098 12.1918C13.5395 12.1215 13.5 12.0261 13.5 11.9266V4.05169C13.5 3.95224 13.5395 3.85686 13.6098 3.78653C13.6802 3.71621 13.7755 3.6767 13.875 3.6767C13.9745 3.6767 14.0698 3.71621 14.1402 3.78653C14.2105 3.85686 14.25 3.95224 14.25 4.05169V11.9266C14.25 12.0261 14.2105 12.1215 14.1402 12.1918C14.0698 12.2621 13.9745 12.3016 13.875 12.3016Z" fill="#FF0052"/>
<path d="M10.4999 12.3016H3C2.90054 12.3016 2.80516 12.3411 2.73483 12.4115C2.66451 12.4818 2.625 12.5772 2.625 12.6766C2.625 12.7761 2.66451 12.8715 2.73483 12.9418C2.80516 13.0121 2.90054 13.0516 3 13.0516H10.4999C10.5994 13.0516 10.6948 13.0121 10.7651 12.9418C10.8354 12.8715 10.8749 12.7761 10.8749 12.6766C10.8749 12.5772 10.8354 12.4818 10.7651 12.4115C10.6948 12.3411 10.5994 12.3016 10.4999 12.3016Z" fill="#FF0052"/>
<path d="M12.3749 10.0517H1.12499C0.826626 10.0517 0.54048 10.1702 0.329503 10.3812C0.118526 10.5922 0 10.8783 0 11.1767V14.1767C0 14.475 0.118526 14.7612 0.329503 14.9722C0.54048 15.1831 0.826626 15.3017 1.12499 15.3017H12.3749C12.6733 15.3017 12.9594 15.1831 13.1704 14.9722C13.3814 14.7612 13.4999 14.475 13.4999 14.1767V11.1767C13.4999 10.8783 13.3814 10.5922 13.1704 10.3812C12.9594 10.1702 12.6733 10.0517 12.3749 10.0517ZM10.4999 13.8017H2.99998C2.70161 13.8017 2.41547 13.6831 2.20449 13.4722C1.99351 13.2612 1.87499 12.975 1.87499 12.6767C1.87499 12.3783 1.99351 12.0922 2.20449 11.8812C2.41547 11.6702 2.70161 11.5517 2.99998 11.5517H10.4999C10.7983 11.5517 11.0844 11.6702 11.2954 11.8812C11.5064 12.0922 11.6249 12.3783 11.6249 12.6767C11.6249 12.975 11.5064 13.2612 11.2954 13.4722C11.0844 13.6831 10.7983 13.8017 10.4999 13.8017Z" fill="#FF0052"/>
</svg>
