<svg width="64" height="21" viewBox="0 0 64 21" fill="none" xmlns="http://www.w3.org/2000/svg">
<path d="M63.7837 5.91704C63.4913 5.08324 62.947 4.3609 62.2262 3.84991C61.5053 3.33892 60.6435 3.06451 59.7599 3.06465H59.7219C58.5125 3.06465 57.4248 3.56667 56.6489 4.37295C56.2511 3.95828 55.7733 3.62856 55.2445 3.4037C54.7157 3.17883 54.1468 3.0635 53.5721 3.06465H53.5341C52.4692 3.06465 51.4994 3.45257 50.7578 4.09531V3.76824C50.7462 3.60984 50.675 3.46172 50.5586 3.35373C50.4421 3.24574 50.2891 3.18593 50.1303 3.18635H47.2779C47.195 3.18635 47.1129 3.20268 47.0363 3.23441C46.9597 3.26614 46.8901 3.31264 46.8314 3.37126C46.7728 3.42989 46.7263 3.49949 46.6946 3.57608C46.6629 3.65268 46.6465 3.73477 46.6465 3.81768V19.3081C46.6465 19.6579 46.928 19.9394 47.2779 19.9394H50.1303C50.2818 19.9389 50.4281 19.8836 50.5421 19.7836C50.656 19.6836 50.73 19.5458 50.7502 19.3955V8.27501L50.754 8.16092C50.7749 7.90992 50.8864 7.67509 51.0676 7.50017C51.2488 7.32525 51.4874 7.22217 51.739 7.21012H52.2638C52.5342 7.22579 52.788 7.34534 52.9723 7.54379C53.1566 7.74224 53.257 8.00423 53.2527 8.27501L53.2641 19.3423C53.2641 19.6922 53.5455 19.9736 53.8954 19.9736H56.7478C57.0825 19.9736 57.3563 19.7074 57.3715 19.3727V8.2598C57.3662 7.98876 57.4663 7.72623 57.6508 7.52757C57.8352 7.32891 58.0896 7.20964 58.3603 7.19491H58.8852C59.5051 7.24815 59.874 7.71595 59.874 8.2598L59.8854 19.3119C59.8854 19.6618 60.1707 19.9432 60.5168 19.9432H63.3691C63.452 19.9432 63.5341 19.9269 63.6107 19.8951C63.6873 19.8634 63.7569 19.8169 63.8156 19.7583C63.8742 19.6997 63.9207 19.6301 63.9524 19.5535C63.9841 19.4769 64.0005 19.3948 64.0005 19.3119V7.4269C64.0005 6.61682 63.9092 6.27074 63.7837 5.91704ZM44.4749 3.22819H42.8395V0.577367C42.84 0.492341 42.8216 0.408276 42.7856 0.331239C42.7496 0.254202 42.697 0.186117 42.6315 0.1319C42.566 0.0776822 42.4892 0.0386851 42.4068 0.0177241C42.3244 -0.00323689 42.2384 -0.00563869 42.155 0.0106921C40.3485 0.508909 40.7098 3.01521 37.4086 3.22819H37.0891C37.0431 3.22848 36.9972 3.23358 36.9522 3.2434H36.9446C36.8044 3.27455 36.679 3.35256 36.5891 3.46457C36.4992 3.57659 36.4502 3.7159 36.4502 3.85952V6.7119C36.4502 7.05419 36.7354 7.33943 37.0853 7.33943H38.8082L38.8044 19.4336C38.8044 19.7796 39.082 20.0611 39.4281 20.0611H42.2463C42.5885 20.0611 42.87 19.7796 42.87 19.4374V7.34323H44.4673C44.6347 7.34323 44.7953 7.27672 44.9137 7.15832C45.0321 7.03992 45.0986 6.87934 45.0986 6.7119V3.85952C45.0987 3.69339 45.0332 3.53395 44.9164 3.41577C44.7997 3.29759 44.641 3.23019 44.4749 3.22819Z" fill="#54C1F0"/>
<path d="M34.2097 3.22803H31.3573C31.1905 3.22903 31.0309 3.29599 30.9133 3.41428C30.7957 3.53257 30.7297 3.69257 30.7297 3.85936V9.75429C30.7268 9.92983 30.6549 10.0972 30.5297 10.2202C30.4045 10.3433 30.2359 10.4123 30.0604 10.4122H28.8662C28.6893 10.4122 28.5196 10.3422 28.3942 10.2175C28.2688 10.0928 28.1978 9.92355 28.1968 9.74669L28.1854 3.85936C28.1854 3.77645 28.1691 3.69435 28.1374 3.61776C28.1056 3.54116 28.0591 3.47156 28.0005 3.41294C27.9419 3.35431 27.8723 3.30781 27.7957 3.27608C27.7191 3.24436 27.637 3.22803 27.5541 3.22803H24.7017C24.5349 3.22903 24.3753 3.29599 24.2577 3.41428C24.1402 3.53257 24.0742 3.69257 24.0742 3.85936V10.3248C24.0742 12.7778 25.8236 14.5273 28.2805 14.5273C28.2805 14.5273 30.125 14.5273 30.1821 14.5387C30.3423 14.5589 30.4897 14.6366 30.5969 14.7573C30.704 14.8781 30.7636 15.0338 30.7646 15.1952C30.7655 15.3567 30.7077 15.513 30.6019 15.635C30.4962 15.757 30.3497 15.8364 30.1897 15.8584L30.1402 15.866L25.9682 15.8812C25.8014 15.8822 25.6418 15.9492 25.5242 16.0675C25.4066 16.1858 25.3406 16.3458 25.3406 16.5126V19.3649C25.3406 19.711 25.6221 19.9925 25.9682 19.9925H30.6347C33.0915 19.9925 34.841 18.243 34.841 15.7861V3.85936C34.841 3.69192 34.7745 3.53134 34.6561 3.41294C34.5377 3.29454 34.3771 3.22803 34.2097 3.22803ZM6.60233 8.4536V10.2145C6.60233 10.392 6.53181 10.5623 6.40628 10.6878C6.28075 10.8133 6.1105 10.8838 5.93297 10.8838H4.12265V7.35829H5.93297C6.30188 7.35829 6.60233 7.65493 6.60233 8.02384V8.4536ZM6.85334 3.22803H0.616116C0.45302 3.22902 0.296887 3.29426 0.181559 3.40959C0.0662299 3.52491 0.000997559 3.68105 0 3.84414V19.3459C0 19.6882 0.254813 19.9696 0.574281 19.9773H3.47991C3.64735 19.9773 3.80793 19.9107 3.92633 19.7923C4.04473 19.6739 4.11124 19.5134 4.11124 19.3459L4.12265 15.0103H6.85334C9.13525 15.0103 10.725 13.4244 10.725 11.131V7.11108C10.725 4.81776 9.13525 3.22803 6.85334 3.22803ZM18.4378 15.151V15.596C18.4354 15.6635 18.4226 15.7302 18.3998 15.7938C18.3512 15.9221 18.2641 16.0324 18.1504 16.1093C18.0367 16.1862 17.9019 16.2261 17.7647 16.2235H16.5781C16.2054 16.2235 15.9049 15.9421 15.9049 15.596V15.0559V13.1543C15.9049 12.8121 16.2092 12.5306 16.5781 12.5306H17.7647C18.1374 12.5306 18.4378 12.8121 18.4378 13.1581V15.151ZM17.9815 3.24324H14.0261C13.6763 3.24324 13.391 3.50946 13.391 3.83273V6.51018C13.391 6.85246 13.6953 7.1377 14.0642 7.1377H17.8293C18.1298 7.18334 18.3618 7.40392 18.3998 7.73861V8.10751C18.3618 8.43079 18.1336 8.66658 17.8484 8.6932H15.981C13.4975 8.6932 11.729 10.3438 11.729 12.6599V15.9763C11.729 18.2772 13.2503 19.9164 15.7148 19.9164H20.8871C21.8151 19.9164 22.5681 19.2128 22.5681 18.3457V7.52563C22.5681 4.90143 21.218 3.24324 17.9815 3.24324Z" fill="white"/>
</svg>
