<svg width="30" height="30" viewBox="0 0 30 30" fill="none" xmlns="http://www.w3.org/2000/svg">
<path d="M23.2499 7.5H3.74999C3.1538 7.50178 2.58254 7.7394 2.16097 8.16097C1.7394 8.58254 1.50178 9.1538 1.5 9.74999V18.8475C1.7443 18.7805 1.99669 18.7477 2.25 18.75H24.7499C25.0032 18.7477 25.2556 18.7805 25.4999 18.8475V9.74999C25.4981 9.1538 25.2605 8.58254 24.8389 8.16097C24.4174 7.7394 23.8461 7.50178 23.2499 7.5ZM8.12997 10.9125C7.54566 11.8011 7.06741 12.7551 6.70498 13.755C6.36756 14.6772 6.12873 15.6325 5.99248 16.605C5.96718 16.7839 5.87814 16.9477 5.74172 17.0662C5.6053 17.1847 5.43069 17.2499 5.24998 17.25C5.21482 17.2509 5.17965 17.2484 5.14498 17.2425C4.94807 17.2146 4.7703 17.1096 4.65075 16.9507C4.5312 16.7918 4.47967 16.5919 4.50749 16.395C4.65986 15.3205 4.92379 14.2648 5.29498 13.245C5.54449 12.5595 5.84275 11.8928 6.18748 11.25H4.49999C4.30108 11.25 4.11031 11.171 3.96966 11.0303C3.82901 10.8897 3.74999 10.6989 3.74999 10.5C3.74999 10.3011 3.82901 10.1103 3.96966 9.96966C4.11031 9.82901 4.30108 9.74999 4.49999 9.74999H7.49997C7.63479 9.7501 7.76712 9.78633 7.88319 9.85492C7.99927 9.92351 8.09484 10.0219 8.15997 10.14C8.22364 10.2599 8.25441 10.3946 8.24914 10.5303C8.24387 10.666 8.20275 10.7978 8.12997 10.9125ZM15.6299 10.9125C15.0456 11.8011 14.5674 12.7551 14.2049 13.755C13.8675 14.6772 13.6287 15.6325 13.4924 16.605C13.4671 16.7839 13.3781 16.9477 13.2417 17.0662C13.1053 17.1847 12.9307 17.2499 12.75 17.25C12.7148 17.2509 12.6796 17.2484 12.645 17.2425C12.448 17.2146 12.2703 17.1096 12.1507 16.9507C12.0312 16.7918 11.9796 16.5919 12.0075 16.395C12.1598 15.3205 12.4238 14.2648 12.795 13.245C13.0445 12.5595 13.3427 11.8928 13.6874 11.25H12C11.801 11.25 11.6103 11.171 11.4696 11.0303C11.329 10.8897 11.25 10.6989 11.25 10.5C11.25 10.3011 11.329 10.1103 11.4696 9.96966C11.6103 9.82901 11.801 9.74999 12 9.74999H14.9999C15.1348 9.7501 15.2671 9.78633 15.3832 9.85492C15.4992 9.92351 15.5948 10.0219 15.6599 10.14C15.7236 10.2599 15.7544 10.3946 15.7491 10.5303C15.7438 10.666 15.7027 10.7978 15.6299 10.9125ZM23.1299 10.9125C22.5456 11.8011 22.0673 12.7551 21.7049 13.755C21.3675 14.6772 21.1287 15.6325 20.9924 16.605C20.9671 16.7839 20.8781 16.9477 20.7417 17.0662C20.6052 17.1847 20.4306 17.2499 20.2499 17.25C20.2148 17.2509 20.1796 17.2484 20.1449 17.2425C19.948 17.2146 19.7702 17.1096 19.6507 16.9507C19.5311 16.7918 19.4796 16.5919 19.5074 16.395C19.6598 15.3205 19.9237 14.2648 20.2949 13.245C20.5444 12.5595 20.8427 11.8928 21.1874 11.25H19.4999C19.301 11.25 19.1102 11.171 18.9696 11.0303C18.8289 10.8897 18.7499 10.6989 18.7499 10.5C18.7499 10.3011 18.8289 10.1103 18.9696 9.96966C19.1102 9.82901 19.301 9.74999 19.4999 9.74999H22.4999C22.6347 9.7501 22.7671 9.78633 22.8831 9.85492C22.9992 9.92351 23.0948 10.0219 23.1599 10.14C23.2236 10.2599 23.2543 10.3946 23.2491 10.5303C23.2438 10.666 23.2027 10.7978 23.1299 10.9125Z" fill="#FFF"/>
<path d="M19.4547 3.11269L18.1497 6.75017H8.81977L7.54477 3.36018C7.4935 3.21621 7.48608 3.06026 7.52346 2.91208C7.56084 2.76389 7.64134 2.63012 7.75477 2.52769C7.87021 2.42845 8.01311 2.36669 8.16449 2.35061C8.31587 2.33454 8.46856 2.36491 8.60227 2.43769L10.9948 3.72018L12.8472 0.382698C12.9142 0.263471 13.0125 0.164822 13.1315 0.0974226C13.2505 0.0300231 13.3856 -0.00356229 13.5223 0.000299136C13.659 0.00416056 13.7921 0.0453217 13.907 0.119331C14.022 0.19334 14.1146 0.29738 14.1747 0.420198L15.7572 3.69018L18.3822 2.20519C18.5155 2.13053 18.6684 2.09836 18.8205 2.11298C18.9726 2.12759 19.1166 2.18831 19.2332 2.28699C19.3498 2.38568 19.4335 2.51763 19.4731 2.66519C19.5127 2.81275 19.5063 2.96887 19.4547 3.11269Z" fill="#FFF"/>
<path d="M29.2519 22.5H26.2519C25.8377 22.5 25.502 22.8358 25.502 23.25V26.25C25.502 26.6642 25.8377 27 26.2519 27H29.2519C29.6661 27 30.0019 26.6642 30.0019 26.25V23.25C30.0019 22.8358 29.6661 22.5 29.2519 22.5Z" fill="#FFF"/>
<path d="M27.7519 2.25024C27.1552 2.25024 26.5829 2.4873 26.161 2.90925C25.739 3.33121 25.502 3.9035 25.502 4.50023V6.00023C25.502 6.59696 25.739 7.16926 26.161 7.59121C26.5829 8.01317 27.1552 8.25022 27.7519 8.25022C28.3487 8.25022 28.921 8.01317 29.3429 7.59121C29.7649 7.16926 30.0019 6.59696 30.0019 6.00023V4.50023C30.0019 3.9035 29.7649 3.33121 29.3429 2.90925C28.921 2.4873 28.3487 2.25024 27.7519 2.25024Z" fill="#FFF"/>
<path d="M27.748 23.9999C27.5491 23.9999 27.3584 23.9209 27.2177 23.7803C27.0771 23.6396 26.998 23.4488 26.998 23.2499V7.5C26.998 7.30109 27.0771 7.11032 27.2177 6.96967C27.3584 6.82902 27.5491 6.75 27.748 6.75C27.947 6.75 28.1377 6.82902 28.2784 6.96967C28.419 7.11032 28.498 7.30109 28.498 7.5V23.2499C28.498 23.4488 28.419 23.6396 28.2784 23.7803C28.1377 23.9209 27.947 23.9999 27.748 23.9999Z" fill="#FFF"/>
<path d="M20.9999 24H6C5.80109 24 5.61032 24.079 5.46967 24.2197C5.32902 24.3603 5.25 24.5511 5.25 24.75C5.25 24.9489 5.32902 25.1397 5.46967 25.2803C5.61032 25.421 5.80109 25.5 6 25.5H20.9999C21.1988 25.5 21.3896 25.421 21.5303 25.2803C21.6709 25.1397 21.7499 24.9489 21.7499 24.75C21.7499 24.5511 21.6709 24.3603 21.5303 24.2197C21.3896 24.079 21.1988 24 20.9999 24Z" fill="#FFF"/>
<path d="M24.7499 19.5H2.24999C1.65326 19.5 1.08096 19.7371 0.659007 20.159C0.237052 20.581 0 21.1533 0 21.75V27.75C0 28.3467 0.237052 28.919 0.659007 29.3409C1.08096 29.7629 1.65326 30 2.24999 30H24.7499C25.3466 30 25.9189 29.7629 26.3409 29.3409C26.7628 28.919 26.9999 28.3467 26.9999 27.75V21.75C26.9999 21.1533 26.7628 20.581 26.3409 20.159C25.9189 19.7371 25.3466 19.5 24.7499 19.5ZM20.9999 27H5.99997C5.40324 27 4.83095 26.7629 4.40899 26.341C3.98704 25.919 3.74998 25.3467 3.74998 24.75C3.74998 24.1532 3.98704 23.581 4.40899 23.159C4.83095 22.737 5.40324 22.5 5.99997 22.5H20.9999C21.5966 22.5 22.1689 22.737 22.5909 23.159C23.0128 23.581 23.2499 24.1532 23.2499 24.75C23.2499 25.3467 23.0128 25.919 22.5909 26.341C22.1689 26.7629 21.5966 27 20.9999 27Z" fill="#FFF"/>
</svg>
