<svg width="81" height="81" viewBox="0 0 81 81" fill="none" xmlns="http://www.w3.org/2000/svg">
<rect x="0.148438" y="0.5" width="80.5391" height="80" rx="10" fill="#FF0052"/>
<path d="M26.5496 34.3636C27.0775 34.3636 27.5046 33.936 27.5046 33.4087C27.5046 29.472 30.7031 26.2692 34.6347 26.2692C38.5662 26.2692 41.7648 29.472 41.7648 33.4087C41.7648 33.936 42.1919 34.3636 42.7197 34.3636C43.2475 34.3636 43.6746 33.936 43.6746 33.4087C43.6746 28.4187 39.6191 24.3594 34.6347 24.3594C29.6503 24.3594 25.5947 28.4187 25.5947 33.4087C25.5947 33.936 26.0218 34.3636 26.5496 34.3636Z" fill="white"/>
<path d="M45.6364 37.2832H38.2993C33.1731 37.2832 28.7687 37.2832 23.6427 37.2832C23.1148 37.2832 22.6877 37.7108 22.6877 38.2381V54.7141C22.6877 55.2414 23.1148 55.669 23.6427 55.669H30.9705H38.2993H45.6364C46.1642 55.669 46.5913 55.2414 46.5913 54.7141V38.2381C46.5913 37.7108 46.1642 37.2832 45.6364 37.2832ZM24.5976 39.193H30.0156V53.7592H24.5976V39.193ZM31.9254 39.193H37.3443V53.7592H31.9254V39.193ZM44.6815 53.7592H39.2542V39.193H44.6815V53.7592Z" fill="white"/>
<path d="M41.9679 49.4677C42.4957 49.4677 42.9228 49.0401 42.9228 48.5128V44.4432C42.9228 43.9158 42.4957 43.4883 41.9679 43.4883C41.44 43.4883 41.0129 43.9158 41.0129 44.4432V48.5128C41.0129 49.0401 41.44 49.4677 41.9679 49.4677Z" fill="white"/>
<path d="M34.6385 43.4883C34.1107 43.4883 33.6836 43.9158 33.6836 44.4432V48.5128C33.6836 49.0401 34.1107 49.4677 34.6385 49.4677C35.1663 49.4677 35.5934 49.0401 35.5934 48.5128V44.4432C35.5934 43.9158 35.1663 43.4883 34.6385 43.4883Z" fill="white"/>
<path d="M27.3092 43.4883C26.7813 43.4883 26.3542 43.9158 26.3542 44.4432V48.5128C26.3542 49.0401 26.7813 49.4677 27.3092 49.4677C27.837 49.4677 28.2641 49.0401 28.2641 48.5128V44.4432C28.2641 43.9158 27.837 43.4883 27.3092 43.4883Z" fill="white"/>
<path d="M58.0558 22.5469C55.1332 22.5469 52.7553 24.9151 52.7553 27.8264C52.7553 30.4087 54.6279 32.5598 57.0906 33.0136V42.1394H56.2952V41.544C56.2952 41.0166 55.8681 40.5891 55.3403 40.5891H51.7789V37.1713C51.7789 34.7174 49.8891 32.7183 47.4916 32.4971C47.0208 25.8047 41.4439 20.5 34.639 20.5C27.8332 20.5 22.2561 25.8049 21.7854 32.4974C19.3888 32.7195 17.5 34.718 17.5 37.1713V55.7823C17.5 58.3836 19.6159 60.5 22.2177 60.5H47.0612C49.663 60.5 51.7789 58.3836 51.7789 55.7823V52.3744H55.3403C55.8681 52.3744 56.2952 51.9468 56.2952 51.4195V50.8241H59.7856C60.8441 50.8241 61.7057 49.9629 61.7057 48.9044V44.059C61.7057 43.0006 60.8441 42.1394 59.7856 42.1394H59.0004V33.0161C61.4619 32.5691 63.3358 30.4145 63.3358 27.8264C63.3358 24.9151 60.9672 22.5469 58.0558 22.5469ZM49.8691 55.7823C49.8691 57.3308 48.6092 58.5902 47.0612 58.5902H22.2177C20.6697 58.5902 19.4098 57.3308 19.4098 55.7823V37.1713C19.4098 35.6229 20.6697 34.3635 22.2177 34.3635C22.3018 34.3635 22.3771 34.336 22.4548 34.3156C22.5332 34.3364 22.6092 34.3639 22.6942 34.3639C23.222 34.3639 23.6491 33.9364 23.6491 33.409C23.6491 27.3438 28.5794 22.4098 34.639 22.4098C40.6986 22.4098 45.6279 27.3438 45.6279 33.409C45.6279 33.9364 46.055 34.3639 46.5829 34.3639C46.6681 34.3639 46.7445 34.3364 46.8232 34.3155C46.9012 34.336 46.9768 34.3635 47.0612 34.3635C48.6092 34.3635 49.8691 35.6229 49.8691 37.1713C49.8691 44.1213 49.8691 48.9227 49.8691 55.7823ZM54.3853 50.4646H51.7789V42.4989H54.3853C54.3853 42.6177 54.3853 50.0722 54.3853 49.8691V50.4646ZM59.7959 44.059V48.9044C59.7959 48.9096 59.7912 48.9142 59.7856 48.9142H56.2952V44.0515L59.7959 44.059ZM58.0558 31.1957C56.1861 31.1957 54.6651 29.684 54.6651 27.8264C54.6651 25.9684 56.1861 24.4567 58.0558 24.4567C59.9143 24.4567 61.426 25.9684 61.426 27.8264C61.426 29.684 59.9143 31.1957 58.0558 31.1957Z" fill="white"/>
</svg>
