<svg width="61" height="60" viewBox="0 0 61 60" fill="none" xmlns="http://www.w3.org/2000/svg">
<rect x="0.968262" width="60" height="60" rx="10" fill="#FF0052"/>
<path d="M12.9683 36.4288C12.9683 36.9403 13.1714 37.4309 13.5331 37.7926C13.8948 38.1542 14.3853 38.3574 14.8968 38.3574H17.4683C17.6388 38.3574 17.8023 38.2897 17.9228 38.1691C18.0434 38.0486 18.1111 37.8851 18.1111 37.7146V30.0003C18.1111 29.8298 18.0434 29.6663 17.9228 29.5457C17.8023 29.4252 17.6388 29.3574 17.4683 29.3574H14.8968C14.3853 29.3574 13.8948 29.5606 13.5331 29.9223C13.1714 30.284 12.9683 30.7745 12.9683 31.286V36.4288Z" fill="white"/>
<path d="M46.3969 28.0714V27.4286C46.3969 23.3367 44.7714 19.4123 41.878 16.5189C38.9846 13.6255 35.0603 12 30.9684 12C26.8765 12 22.9521 13.6255 20.0587 16.5189C17.1653 19.4123 15.5398 23.3367 15.5398 27.4286V28.0714H16.8255V27.4286C16.8255 23.6777 18.3156 20.0804 20.9679 17.4281C23.6202 14.7758 27.2174 13.2857 30.9684 13.2857C34.7193 13.2857 38.3166 14.7758 40.9689 17.4281C43.6212 20.0804 45.1112 23.6777 45.1112 27.4286V28.0714H46.3969Z" fill="white"/>
<path d="M38.04 46.0711H34.8257V47.3569H38.04C40.1434 47.3535 42.1682 46.5576 43.711 45.1279C45.2538 43.6982 46.2012 41.7396 46.3643 39.6426H45.0786C44.9169 41.3983 44.1057 43.0304 42.8038 44.2195C41.5019 45.4085 39.8031 46.0688 38.04 46.0711Z" fill="white"/>
<path d="M29.6824 47.9992H32.8967C33.0672 47.9992 33.2307 47.9314 33.3513 47.8109C33.4719 47.6903 33.5396 47.5268 33.5396 47.3563V46.0706C33.5396 45.9001 33.4719 45.7366 33.3513 45.616C33.2307 45.4955 33.0672 45.4277 32.8967 45.4277H29.6824C29.3415 45.4277 29.0144 45.5632 28.7733 45.8043C28.5322 46.0454 28.3967 46.3725 28.3967 46.7134C28.3967 47.0544 28.5322 47.3815 28.7733 47.6226C29.0144 47.8637 29.3415 47.9992 29.6824 47.9992Z" fill="white"/>
<path d="M30.9684 44.1429C33.257 44.1429 35.4942 43.4642 37.3971 42.1927C39.3 40.9212 40.7832 39.114 41.659 36.9996C42.5348 34.8852 42.764 32.5586 42.3175 30.314C41.871 28.0693 40.7689 26.0075 39.1506 24.3892C37.5323 22.7709 35.4705 21.6688 33.2259 21.2223C30.9812 20.7759 28.6546 21.005 26.5402 21.8808C24.4258 22.7566 22.6186 24.2398 21.3471 26.1427C20.0756 28.0456 19.397 30.2828 19.397 32.5714C19.4005 35.6393 20.6208 38.5804 22.7901 40.7497C24.9594 42.919 27.9006 44.1393 30.9684 44.1429ZM36.1113 29.3571H39.3255C39.4403 29.3571 39.553 29.3879 39.6518 29.4461C39.7507 29.5044 39.8322 29.588 39.8878 29.6884C39.9434 29.7887 39.9712 29.9022 39.9682 30.0169C39.9652 30.1316 39.9315 30.2434 39.8707 30.3407L36.6564 35.4836C36.6117 35.5553 36.5532 35.6176 36.4844 35.6667C36.4156 35.7159 36.3378 35.7511 36.2554 35.7702C36.1731 35.7893 36.0877 35.792 36.0043 35.7781C35.9209 35.7642 35.841 35.734 35.7693 35.6893C35.6975 35.6445 35.6353 35.5861 35.5861 35.5173C35.5369 35.4485 35.5018 35.3707 35.4827 35.2883C35.4636 35.2059 35.4609 35.1206 35.4747 35.0372C35.4886 34.9538 35.5188 34.8739 35.5635 34.8021L38.1684 30.6429H36.1113C35.9408 30.6429 35.7772 30.5751 35.6567 30.4546C35.5361 30.334 35.4684 30.1705 35.4684 30C35.4684 29.8295 35.5361 29.666 35.6567 29.5454C35.7772 29.4249 35.9408 29.3571 36.1113 29.3571ZM32.9098 29.2286C32.9481 29.0664 33.0479 28.9254 33.1882 28.8353C33.3284 28.7453 33.4981 28.7132 33.6616 28.7459C33.825 28.7786 33.9693 28.8735 34.0642 29.0105C34.159 29.1476 34.1969 29.3161 34.1698 29.4806L32.8841 35.9091C32.8555 36.0553 32.7771 36.187 32.6622 36.2817C32.5473 36.3765 32.403 36.4284 32.2541 36.4286C32.2109 36.4289 32.1678 36.4245 32.1255 36.4157C32.0428 36.3988 31.9642 36.3658 31.8942 36.3186C31.8242 36.2713 31.7642 36.2108 31.7177 36.1403C31.6711 36.0699 31.6389 35.9909 31.6228 35.908C31.6068 35.8251 31.6072 35.7399 31.6241 35.6571L32.9098 29.2286ZM26.4684 30C26.4684 29.8295 26.5361 29.666 26.6567 29.5454C26.7772 29.4249 26.9408 29.3571 27.1113 29.3571C27.2818 29.3571 27.4453 29.4249 27.5658 29.5454C27.6864 29.666 27.7541 29.8295 27.7541 30V33.2143H28.397V32.5714C28.397 32.4009 28.4647 32.2374 28.5853 32.1169C28.7058 31.9963 28.8693 31.9286 29.0398 31.9286C29.2103 31.9286 29.3738 31.9963 29.4944 32.1169C29.615 32.2374 29.6827 32.4009 29.6827 32.5714V33.2143H30.3255C30.496 33.2143 30.6596 33.282 30.7801 33.4026C30.9007 33.5231 30.9684 33.6867 30.9684 33.8571C30.9684 34.0276 30.9007 34.1912 30.7801 34.3117C30.6596 34.4323 30.496 34.5 30.3255 34.5H29.6827V35.1429C29.6827 35.3134 29.615 35.4769 29.4944 35.5974C29.3738 35.718 29.2103 35.7857 29.0398 35.7857C28.8693 35.7857 28.7058 35.718 28.5853 35.5974C28.4647 35.4769 28.397 35.3134 28.397 35.1429V34.5H27.1113C26.9408 34.5 26.7772 34.4323 26.6567 34.3117C26.5361 34.1912 26.4684 34.0276 26.4684 33.8571V30ZM21.3255 35.1429C21.3255 33.8803 22.185 33.2548 22.8761 32.7527C23.528 32.2783 23.897 31.9813 23.897 31.4027C23.9116 31.2169 23.8522 31.0328 23.7319 30.8905C23.6115 30.7482 23.4398 30.6592 23.2541 30.6429C22.8337 30.6429 22.5534 31.2021 22.5502 31.2079C22.4773 31.3608 22.347 31.4787 22.1877 31.536C22.0284 31.5934 21.8529 31.5856 21.6993 31.5143C21.5457 31.443 21.4264 31.314 21.3674 31.1553C21.3084 30.9966 21.3144 30.821 21.384 30.6666C21.5448 30.2972 21.8045 29.9794 22.1345 29.7483C22.4645 29.5172 22.852 29.3819 23.2541 29.3571C23.7807 29.374 24.2792 29.5986 24.6406 29.9819C25.002 30.3652 25.1969 30.8761 25.1827 31.4027C25.1827 32.6653 24.3232 33.2901 23.6321 33.7922C23.329 33.9881 23.0556 34.2264 22.8202 34.5H24.5398C24.7103 34.5 24.8738 34.5677 24.9944 34.6883C25.115 34.8089 25.1827 34.9724 25.1827 35.1429C25.1827 35.3134 25.115 35.4769 24.9944 35.5974C24.8738 35.718 24.7103 35.7857 24.5398 35.7857H21.9684C21.7979 35.7857 21.6344 35.718 21.5138 35.5974C21.3933 35.4769 21.3255 35.3134 21.3255 35.1429Z" fill="white"/>
<path d="M48.9683 31.286C48.9683 30.7745 48.7651 30.284 48.4034 29.9223C48.0418 29.5606 47.5512 29.3574 47.0397 29.3574H44.4683C44.2978 29.3574 44.1343 29.4252 44.0137 29.5457C43.8932 29.6663 43.8254 29.8298 43.8254 30.0003V37.7146C43.8254 37.8851 43.8932 38.0486 44.0137 38.1691C44.1343 38.2897 44.2978 38.3574 44.4683 38.3574H47.0397C47.5512 38.3574 48.0418 38.1542 48.4034 37.7926C48.7651 37.4309 48.9683 36.9403 48.9683 36.4288V31.286Z" fill="white"/>
</svg>
