<svg width="53" height="25" viewBox="0 0 53 25" fill="none" xmlns="http://www.w3.org/2000/svg">
<path d="M13.5779 10.3529C13.6103 13.3 16.2342 14.2787 16.2558 14.2896C16.2342 14.3548 15.8346 15.6924 14.8736 17.0627C14.0422 18.248 13.1783 19.4334 11.8178 19.4551C10.4789 19.4769 10.0469 18.683 8.52442 18.683C6.99111 18.683 6.516 19.4334 5.25264 19.4769C3.93529 19.5204 2.94188 18.1936 2.09964 17.0083C0.382768 14.5941 -0.923785 10.1789 0.836281 7.19916C1.71092 5.72018 3.27662 4.78494 4.9719 4.75232C6.25685 4.73057 7.47702 5.60055 8.26527 5.60055C9.05352 5.60055 10.5328 4.55657 12.0877 4.70881C12.7356 4.73056 14.5713 4.96981 15.7375 6.64454C15.6403 6.69891 13.5563 7.88427 13.5779 10.3529ZM11.0619 3.11021C11.7638 2.28372 12.2281 1.14186 12.0985 0C11.0943 0.0434994 9.87417 0.652492 9.1615 1.47898C8.51363 2.2076 7.95213 3.37121 8.1033 4.49132C9.22629 4.57832 10.3709 3.9367 11.0619 3.11021ZM21.1635 1.69811C21.6771 1.6122 22.2561 1.53684 22.8789 1.46158C23.5017 1.38633 24.1899 1.35414 24.9328 1.35414C26.0035 1.35414 26.9212 1.48311 27.6969 1.73041C28.4727 1.98825 29.1063 2.34299 29.6088 2.82659C30.0349 3.24582 30.3736 3.75096 30.614 4.32058C30.8544 4.90097 30.9746 5.56739 30.9746 6.31971C30.9746 7.2333 30.8106 8.02869 30.4829 8.71653C30.1552 9.40436 29.7072 9.9741 29.1391 10.4363C28.571 10.8985 27.8936 11.2424 27.1069 11.4788C26.3203 11.7045 25.4681 11.8228 24.5395 11.8228C23.6984 11.8228 22.9991 11.7583 22.4309 11.6401V19.2067H21.1745V1.69811H21.1635ZM22.42 10.533C22.7259 10.619 23.0646 10.6835 23.4361 10.7157C23.8075 10.7478 24.2117 10.7695 24.6379 10.7695C26.2439 10.7695 27.4784 10.4041 28.3634 9.66242C29.2483 8.93163 29.6853 7.846 29.6853 6.42715C29.6853 5.73932 29.5652 5.14827 29.3357 4.64302C29.1063 4.13778 28.7786 3.71866 28.3525 3.39633C27.9264 3.074 27.4128 2.82659 26.8339 2.66543C26.2439 2.50416 25.5992 2.41824 24.8781 2.41824C24.3102 2.41824 23.8184 2.43967 23.4032 2.48273C22.9881 2.5258 22.6603 2.57952 22.42 2.62247V10.533ZM40.9603 16.2079C40.9603 16.7131 40.9712 17.229 40.9821 17.7342C41.004 18.2394 41.0585 18.7338 41.146 19.2066H39.9661L39.7804 17.4226H39.7258C39.5618 17.6698 39.3651 17.9171 39.1138 18.1534C38.8543 18.4103 38.5644 18.6341 38.2508 18.8199C37.923 19.024 37.5516 19.1853 37.1255 19.3035C36.7103 19.4217 36.2514 19.4862 35.7489 19.4862C35.1261 19.4862 34.5799 19.3894 34.1101 19.1853C33.6402 18.9812 33.247 18.7231 32.952 18.4007C32.6461 18.0783 32.4166 17.7021 32.2746 17.2829C32.1217 16.8638 32.0452 16.4445 32.0452 16.0254C32.0452 14.5314 32.6789 13.3921 33.9572 12.586C35.2354 11.78 37.1473 11.393 39.7147 11.4252V11.0813C39.7147 10.7481 39.682 10.3719 39.6165 9.94202C39.5509 9.51213 39.4198 9.10356 39.2013 8.71675C38.9827 8.32993 38.6659 8.00727 38.2398 7.74932C37.8138 7.49136 37.2348 7.35173 36.5028 7.35173C35.9456 7.35173 35.3992 7.43764 34.864 7.59892C34.3362 7.75407 33.8352 7.98967 33.3782 8.29752L32.9739 7.37316C33.5419 6.98623 34.132 6.71751 34.7329 6.54558C35.3337 6.3843 35.9674 6.29839 36.6339 6.29839C37.5297 6.29839 38.2508 6.4489 38.8079 6.7497C39.3651 7.0505 39.8131 7.43764 40.1299 7.91059C40.4467 8.38354 40.6653 8.91021 40.7855 9.50126C40.9056 10.0923 40.9603 10.6728 40.9603 11.2532V16.2079ZM39.7038 12.4569C39.0265 12.4354 38.3163 12.4677 37.5843 12.5322C36.8414 12.6073 36.164 12.7578 35.5413 12.9944C34.9186 13.2309 34.4051 13.5748 33.9899 14.0368C33.5857 14.4882 33.3781 15.1009 33.3781 15.8533C33.3781 16.7454 33.6404 17.401 34.1538 17.8202C34.6672 18.2394 35.2463 18.4543 35.891 18.4543C36.4044 18.4543 36.8742 18.3791 37.2785 18.2394C37.6828 18.0998 38.0432 17.9062 38.3491 17.6697C38.655 17.4332 38.9063 17.1646 39.1138 16.8636C39.3214 16.5627 39.4745 16.2617 39.5837 15.9393C39.6711 15.5847 39.7147 15.3374 39.7147 15.1762L39.7038 12.4569ZM43.4075 6.58843L46.6633 14.7892C46.838 15.2407 47.0129 15.7135 47.1768 16.1972C47.3407 16.6809 47.4827 17.1216 47.6029 17.5299H47.6575C47.7777 17.143 47.9197 16.7132 48.0836 16.2295C48.2475 15.7458 48.4223 15.2514 48.6189 14.7462L51.6671 6.59919H53L49.2854 15.8533C48.9139 16.8313 48.5533 17.7235 48.2256 18.5188C47.8979 19.3141 47.5591 20.0343 47.2205 20.6792C46.8819 21.3241 46.5431 21.883 46.1935 22.3774C45.8439 22.8718 45.4614 23.3018 45.0354 23.6672C44.5329 24.1078 44.074 24.4303 43.6588 24.6237C43.2436 24.828 42.9596 24.9569 42.8176 25L42.3914 23.9788C42.7084 23.8391 43.0689 23.6564 43.4622 23.4308C43.8554 23.2051 44.2379 22.9041 44.6093 22.5386C44.9262 22.2269 45.2867 21.8078 45.6691 21.2918C46.0514 20.7758 46.3901 20.1525 46.696 19.4109C46.8053 19.1314 46.86 18.9487 46.86 18.8628C46.86 18.7446 46.8053 18.5511 46.696 18.3147L42.0747 6.62062H43.4076L43.4075 6.58843Z" fill="white"/>
</svg>
