<svg width="81" height="81" viewBox="0 0 81 81" fill="none" xmlns="http://www.w3.org/2000/svg">
<rect x="0.148438" y="0.5" width="80.5391" height="80" rx="10" fill="#FF0052"/>
<path d="M34.4038 37.7123L33.4136 36.7212L28.5458 31.8687C28.3114 31.6351 27.994 31.5039 27.6632 31.5039C27.3323 31.5039 27.0149 31.6351 26.7805 31.8687L21.9246 36.7094L20.9267 37.7039C20.2208 38.4104 19.8002 39.3523 19.7454 40.3495C19.6906 41.3467 20.0053 42.3291 20.6295 43.1086C21.2537 43.8882 22.1434 44.4103 23.1285 44.5749C24.1135 44.7396 25.1246 44.5352 25.9684 44.0009L25.4163 46.976C25.3902 47.1161 25.3954 47.2602 25.4313 47.3981C25.4673 47.536 25.5332 47.6642 25.6243 47.7738C25.7155 47.8833 25.8297 47.9714 25.9587 48.0318C26.0878 48.0922 26.2286 48.1234 26.3711 48.1233H28.9578C29.1002 48.1233 29.2409 48.092 29.3699 48.0315C29.4989 47.9711 29.613 47.883 29.7041 47.7735C29.7953 47.664 29.8612 47.5358 29.8972 47.3979C29.9332 47.2601 29.9385 47.1161 29.9126 46.976L29.3613 43.9841C30.1407 44.4776 31.0647 44.6916 31.9817 44.591C32.8987 44.4904 33.7543 44.0811 34.4081 43.4303C34.7841 43.055 35.0823 42.6092 35.2856 42.1185C35.489 41.6277 35.5934 41.1016 35.5931 40.5704C35.5927 40.0392 35.4874 39.5133 35.2833 39.0228C35.0793 38.5324 34.7804 38.087 34.4038 37.7123Z" fill="white"/>
<path d="M33.6824 21.6871C34.4462 20.9268 35.48 20.5 36.5578 20.5C37.6355 20.5 38.6694 20.9268 39.4332 21.6871L40.4302 22.6808L41.4213 21.693C42.1835 20.9336 43.2157 20.5071 44.2917 20.5071C45.3677 20.5071 46.3998 20.9336 47.162 21.693C47.5387 22.0681 47.8375 22.5138 48.0415 23.0046C48.2454 23.4955 48.3504 24.0218 48.3504 24.5533C48.3504 25.0848 48.2454 25.6111 48.0415 26.1019C47.8375 26.5927 47.5387 27.0385 47.162 27.4135L46.1709 28.4021L41.3031 33.2546C41.0686 33.4878 40.7512 33.6187 40.4205 33.6187C40.0897 33.6187 39.7724 33.4878 39.5379 33.2546L34.6802 28.4139L33.6824 27.4194C33.3048 27.0436 33.0053 26.597 32.8009 26.1052C32.5964 25.6133 32.4912 25.0859 32.4912 24.5533C32.4912 24.0206 32.5964 23.4932 32.8009 23.0014C33.0053 22.5095 33.3048 22.0629 33.6824 21.6871Z" fill="white"/>
<path d="M47.9953 53.1903C48.1029 53.1269 48.1922 53.0365 48.2542 52.9281C48.3162 52.8196 48.3488 52.6968 48.3488 52.5719C48.3488 52.447 48.3162 52.3242 48.2542 52.2157C48.1922 52.1073 48.1029 52.0169 47.9953 51.9535C45.1228 50.2624 42.7285 47.8675 41.038 44.9946C40.9745 44.8873 40.884 44.7985 40.7757 44.7368C40.6673 44.675 40.5448 44.6426 40.4201 44.6426C40.2954 44.6426 40.1728 44.675 40.0645 44.7368C39.9561 44.7985 39.8657 44.8873 39.8021 44.9946C38.1009 47.8594 35.7086 50.252 32.844 51.9535C32.7366 52.0169 32.6475 52.1073 32.5856 52.2157C32.5238 52.324 32.4912 52.4467 32.4912 52.5715C32.4912 52.6963 32.5238 52.8189 32.5856 52.9273C32.6475 53.0357 32.7366 53.126 32.844 53.1894C35.7176 54.8786 38.1128 57.2729 39.803 60.1458C39.8663 60.2535 39.9567 60.3427 40.0652 60.4047C40.1736 60.4668 40.2964 60.4994 40.4213 60.4994C40.5463 60.4994 40.669 60.4668 40.7775 60.4047C40.886 60.3427 40.9764 60.2535 41.0397 60.1458C42.7332 57.2775 45.1255 54.8849 47.9936 53.1911L47.9953 53.1903Z" fill="white"/>
<path d="M56.9778 36.8273H56.8875C57.0928 36.2068 57.1478 35.5465 57.048 34.9006C56.9482 34.2547 56.6964 33.6418 56.3133 33.1122C55.9303 32.5827 55.4269 32.1517 54.8447 31.8548C54.2625 31.5579 53.6181 31.4035 52.9645 31.4043C52.311 31.4051 51.667 31.5612 51.0855 31.8597C50.5041 32.1581 50.0019 32.5904 49.6202 33.1209C49.2385 33.6514 48.9883 34.265 48.8901 34.9111C48.792 35.5573 48.8487 36.2175 49.0557 36.8374C48.4599 36.8833 47.8813 37.0581 47.3597 37.3495C46.8381 37.641 46.3861 38.0422 46.0348 38.5255C45.6835 39.0088 45.4413 39.5626 45.325 40.1486C45.2087 40.7347 45.2211 41.339 45.3612 41.9198C45.5014 42.5006 45.766 43.0441 46.1368 43.5126C46.5076 43.9811 46.9756 44.3635 47.5087 44.6334C48.0418 44.9033 48.6271 45.0542 49.2241 45.0757C49.8212 45.0972 50.4159 44.9888 50.967 44.7579L50.571 46.8938C50.5408 47.0561 50.5466 47.2231 50.5882 47.3828C50.6298 47.5426 50.706 47.6913 50.8115 47.8183C50.9169 47.9453 51.0491 48.0475 51.1985 48.1177C51.348 48.1878 51.511 48.2242 51.6761 48.2243H54.6739C54.8391 48.2242 55.0021 48.1878 55.1516 48.1176C55.3011 48.0475 55.4332 47.9453 55.5388 47.8183C55.6443 47.6913 55.7206 47.5427 55.7623 47.3829C55.804 47.2231 55.81 47.0561 55.7799 46.8938L55.3831 44.7579C55.9464 44.9926 56.5547 45.0995 57.1642 45.0708C57.7737 45.0421 58.3693 44.8786 58.9081 44.592C59.4468 44.3055 59.9153 43.903 60.2798 43.4136C60.6442 42.9242 60.8956 42.36 61.0159 41.7618C61.1361 41.1635 61.1221 40.5461 60.975 39.9539C60.8279 39.3617 60.5513 38.8095 60.1651 38.337C59.7788 37.8646 59.2927 37.4837 58.7415 37.2217C58.1904 36.9598 57.588 36.8234 56.9778 36.8222V36.8273Z" fill="white"/>
</svg>
