<svg width="15" height="16" viewBox="0 0 15 16" fill="none" xmlns="http://www.w3.org/2000/svg">
<path d="M13.3838 3.53901L8.02924 0.447104C7.82574 0.329614 7.5949 0.267761 7.35992 0.267761C7.12494 0.267761 6.8941 0.329614 6.69061 0.447104L1.33608 3.53901C1.23385 3.5981 1.13989 3.67045 1.05664 3.75419L7.35992 7.39259L13.6632 3.75352C13.5799 3.67002 13.486 3.59789 13.3838 3.53901ZM8.10822 4.01221C7.87702 4.13001 7.62124 4.19143 7.36176 4.19143C7.10229 4.19143 6.8465 4.13001 6.61531 4.01221C6.20134 3.77327 6.19699 3.38507 6.60828 3.14612C6.8403 3.0283 7.09685 2.9669 7.35708 2.9669C7.6173 2.9669 7.87385 3.0283 8.10587 3.14612C8.19621 3.17683 8.27469 3.23499 8.33035 3.31248C8.38601 3.38998 8.41607 3.48292 8.41633 3.57833C8.41659 3.67374 8.38703 3.76685 8.33179 3.84464C8.27655 3.92243 8.19838 3.98102 8.10822 4.01221Z" fill="#FF0052"/>
<path d="M0.718222 4.33148C0.683965 4.45052 0.666395 4.57373 0.666016 4.6976V10.8807C0.666139 11.1156 0.728051 11.3463 0.845534 11.5497C0.963017 11.753 1.13194 11.9219 1.33533 12.0393L6.68986 15.1306C6.79467 15.191 6.90727 15.2368 7.02451 15.2668V7.97122L0.718222 4.33148ZM2.17365 8.1265C1.99183 8.0087 1.84055 7.84945 1.73223 7.66184C1.62391 7.47422 1.56163 7.26359 1.55052 7.04723C1.55052 6.65166 1.83163 6.49237 2.178 6.69216C2.35891 6.80984 2.50945 6.96862 2.61733 7.15554C2.72521 7.34246 2.78739 7.55223 2.79879 7.76775C2.79779 8.16599 2.51801 8.32462 2.17365 8.1265ZM3.67794 10.779C3.4961 10.6611 3.3448 10.5018 3.23648 10.3142C3.12816 10.1265 3.06589 9.9158 3.0548 9.69939C3.0548 9.30416 3.33558 9.14453 3.68195 9.34466C3.86302 9.4622 4.01369 9.62094 4.12165 9.80788C4.2296 9.99482 4.29177 10.2047 4.30308 10.4202C4.30107 10.8182 4.0213 10.9775 3.67794 10.779ZM5.18122 13.4312C4.9994 13.3134 4.84812 13.1541 4.7398 12.9665C4.63148 12.7789 4.5692 12.5682 4.55809 12.3519C4.55809 11.9563 4.83886 11.797 5.18524 11.9968C5.36625 12.1144 5.51688 12.2732 5.62482 12.4601C5.73277 12.647 5.79498 12.8568 5.80636 13.0724C5.80435 13.4703 5.52424 13.63 5.18022 13.4312H5.18122Z" fill="#FF0052"/>
<path d="M13.9997 4.33148L7.69336 7.97222V15.2678C7.81061 15.2379 7.9232 15.192 8.02802 15.1316L13.3825 12.0393C13.586 11.9218 13.755 11.7529 13.8725 11.5494C13.99 11.3459 14.0519 11.115 14.0519 10.8801V4.6976C14.0515 4.57373 14.0339 4.45052 13.9997 4.33148ZM9.78296 8.29483C10.1293 8.09404 10.4091 8.25434 10.4101 8.65225C10.399 8.86834 10.3367 9.07871 10.2285 9.26609C10.1203 9.45347 9.96924 9.61252 9.78765 9.73018C9.44362 9.92897 9.1615 9.77068 9.16016 9.37544C9.17143 9.1589 9.2338 8.9481 9.34216 8.76028C9.45052 8.57247 9.6018 8.41297 9.78363 8.29483H9.78296ZM9.79501 12.6005C9.45098 12.799 9.16887 12.641 9.16786 12.2455C9.17916 12.0292 9.24152 11.8186 9.34983 11.631C9.45813 11.4434 9.60931 11.2841 9.79099 11.1662C10.1374 10.9654 10.4171 11.1257 10.4185 11.5236C10.4069 11.7395 10.3444 11.9496 10.2361 12.1367C10.1279 12.3239 9.97699 12.4828 9.79568 12.6005H9.79501ZM12.2822 6.85212C12.6286 6.65133 12.9083 6.81163 12.9097 7.20954C12.8982 7.4255 12.8358 7.63567 12.7275 7.82286C12.6192 8.01004 12.4681 8.16892 12.2865 8.28647C11.9422 8.48526 11.6624 8.32562 11.6614 7.93039C11.6724 7.71441 11.7344 7.5041 11.8423 7.31669C11.9502 7.12927 12.1009 6.97007 12.2822 6.85212ZM12.2946 11.1578C11.9505 11.3566 11.6708 11.197 11.6694 10.8018C11.6804 10.5857 11.7424 10.3754 11.8503 10.1879C11.9583 10.0005 12.1092 9.84134 12.2906 9.72349C12.6369 9.52269 12.9167 9.683 12.9177 10.0809C12.9063 10.2969 12.8439 10.5071 12.7356 10.6943C12.6273 10.8815 12.4762 11.0403 12.2946 11.1578Z" fill="#FF0052"/>
</svg>
