<svg width="14" height="16" viewBox="0 0 14 16" fill="none" xmlns="http://www.w3.org/2000/svg">
<path d="M12.9575 7.32106C12.578 6.17283 11.9025 5.1624 10.9966 4.40976L9.88695 3.46504L8.82153 2.47639L7.78897 1.46025L6.79496 0.400534C6.73428 0.334155 6.65214 0.301636 6.56397 0.301636C6.47614 0.301636 6.394 0.339854 6.33366 0.400534L6.20157 0.543014C5.72921 1.04287 5.30646 1.49881 4.85622 1.94938C3.9715 2.83879 3.03247 3.65177 2.14809 4.40976C1.23085 5.17346 0.549959 6.18423 0.176158 7.32106C-0.361915 9.10592 0.363226 11.0557 1.9342 12.0608C2.41193 12.3464 2.93894 12.4839 3.46662 12.4839C4.12538 12.4839 4.78448 12.264 5.33931 11.8301C5.39966 11.7809 5.48749 11.7752 5.5532 11.8194C5.61958 11.863 5.6521 11.9401 5.63601 12.0165C5.44357 12.8188 5.14688 13.6589 4.75162 14.5158C4.67451 14.6804 4.69128 14.8675 4.79587 15.0321C4.90014 15.1967 5.08653 15.3016 5.2679 15.3016H7.8825C8.05784 15.3016 8.22848 15.2027 8.33844 15.0321C8.4427 14.8675 8.45913 14.6804 8.38236 14.5158C7.99213 13.6589 7.69543 12.8188 7.49764 12.0165C7.48121 11.9401 7.5087 11.863 7.58011 11.8194C7.64615 11.7752 7.73399 11.7809 7.79433 11.8301C8.3438 12.264 9.0029 12.4839 9.66736 12.4839C10.1947 12.4839 10.7271 12.3411 11.2055 12.0608C12.7704 11.0557 13.4899 9.10592 12.9575 7.32106Z" fill="#FF0052"/>
</svg>
