<svg width="46" height="28" viewBox="0 0 46 28" fill="none" xmlns="http://www.w3.org/2000/svg">
<path d="M46.0003 13.8C46.0003 21.3936 39.867 27.5999 32.2003 27.5999C24.6067 27.5999 18.4004 21.3936 18.4004 13.8C18.4004 6.20633 24.5337 0 32.1273 0C39.867 0 46.0003 6.20633 46.0003 13.8Z" fill="#FFB600"/>
<path d="M32.2003 0C39.794 0 46.0003 6.20633 46.0003 13.8C46.0003 21.3936 39.867 27.5999 32.2003 27.5999C24.6067 27.5999 18.4004 21.3936 18.4004 13.8" fill="#F7981D"/>
<path d="M32.2002 0C39.7938 0 46.0002 6.20633 46.0002 13.8C46.0002 21.3936 39.8668 27.5999 32.2002 27.5999" fill="#FF8500"/>
<path d="M13.6539 0C6.13332 0.0730157 0 6.20633 0 13.8C0 21.3936 6.13331 27.5999 13.8 27.5999C17.3777 27.5999 20.5904 26.2126 23.0729 24.0222C23.5841 23.5841 24.0221 23.0729 24.4602 22.5618H21.6126C21.2476 22.1237 20.8825 21.6126 20.5904 21.1745H25.4825C25.7745 20.7364 26.0666 20.2253 26.2856 19.7142H19.7872C19.5682 19.2761 19.3491 18.765 19.2031 18.2539H26.7967C27.2348 16.8666 27.5269 15.4063 27.5269 13.873C27.5269 12.8508 27.3809 11.9016 27.2348 10.9523H18.765C18.838 10.4412 18.9841 10.0031 19.1301 9.49203H26.7237C26.5777 8.98092 26.3586 8.46982 26.1396 8.03172H19.7142C19.9333 7.52061 20.2253 7.08252 20.5174 6.57141H25.4094C25.1174 6.0603 24.7523 5.54919 24.3142 5.1111H21.6126C22.0507 4.59999 22.4888 4.16189 22.9999 3.7238C20.5904 1.46031 17.3047 0.146031 13.7269 0.146031C13.7269 -1.41442e-07 13.7269 0 13.6539 0Z" fill="#FF5050"/>
<path d="M0 13.7994C0 21.3931 6.13331 27.5994 13.8 27.5994C17.3777 27.5994 20.5904 26.2121 23.0729 24.0216C23.5841 23.5835 24.0221 23.0724 24.4602 22.5613H21.6126C21.2476 22.1232 20.8825 21.6121 20.5904 21.174H25.4825C25.7745 20.7359 26.0666 20.2248 26.2856 19.7137H19.7872C19.5682 19.2756 19.3491 18.7645 19.2031 18.2534H26.7967C27.2348 16.8661 27.5269 15.4058 27.5269 13.8724C27.5269 12.8502 27.3809 11.901 27.2348 10.9518H18.765C18.838 10.4407 18.9841 10.0026 19.1301 9.49151H26.7237C26.5777 8.9804 26.3586 8.46929 26.1396 8.0312H19.7142C19.9333 7.52009 20.2253 7.08199 20.5174 6.57088H25.4094C25.1174 6.05977 24.7523 5.54867 24.3142 5.11057H21.6126C22.0507 4.59946 22.4888 4.16137 22.9999 3.72327C20.5904 1.45979 17.3047 0.145508 13.7269 0.145508H13.6539" fill="#E52836"/>
<path d="M13.7994 27.5994C17.3771 27.5994 20.5898 26.2121 23.0723 24.0216C23.5834 23.5835 24.0215 23.0724 24.4596 22.5613H21.612C21.2469 22.1232 20.8819 21.6121 20.5898 21.174H25.4819C25.7739 20.7359 26.066 20.2248 26.285 19.7137H19.7866C19.5676 19.2756 19.3485 18.7645 19.2025 18.2534H26.7961C27.2342 16.8661 27.5263 15.4058 27.5263 13.8724C27.5263 12.8502 27.3803 11.901 27.2342 10.9518H18.7644C18.8374 10.4407 18.9835 10.0026 19.1295 9.49151H26.7231C26.5771 8.9804 26.358 8.46929 26.139 8.0312H19.7136C19.9327 7.52009 20.2247 7.08199 20.5168 6.57088H25.4088C25.1168 6.05977 24.7517 5.54867 24.3136 5.11057H21.612C22.0501 4.59946 22.4882 4.16137 22.9993 3.72327C20.5898 1.45979 17.3041 0.145508 13.7263 0.145508H13.6533" fill="#CB2026"/>
<path d="M18.6922 17.3042L18.9112 16.0629C18.8382 16.0629 18.6922 16.1359 18.5461 16.1359C18.035 16.1359 17.962 15.8439 18.035 15.6979L18.4731 13.1423H19.2763L19.4953 11.755H18.7652L18.9112 10.8788H17.4509C17.4509 10.8788 16.5747 15.6979 16.5747 16.282C16.5747 17.1582 17.0858 17.5232 17.743 17.5232C18.1811 17.5232 18.5461 17.3772 18.6922 17.3042ZM19.2033 14.9677C19.2033 17.0121 20.5906 17.5232 21.7588 17.5232C22.8541 17.5232 23.2922 17.3042 23.2922 17.3042L23.5842 15.9169C23.5842 15.9169 22.7811 16.282 22.0509 16.282C20.4446 16.282 20.7366 15.1137 20.7366 15.1137H23.7303C23.7303 15.1137 23.9493 14.1645 23.9493 13.7994C23.9493 12.8502 23.4382 11.682 21.8319 11.682C20.2985 11.536 19.2033 13.1423 19.2033 14.9677ZM21.7588 12.8502C22.562 12.8502 22.416 13.7994 22.416 13.8725H20.8096C20.8096 13.7994 20.9557 12.8502 21.7588 12.8502ZM31.0318 17.3042L31.3239 15.6979C31.3239 15.6979 30.5937 16.0629 30.0826 16.0629C29.0604 16.0629 28.6223 15.2598 28.6223 14.3836C28.6223 12.6312 29.4985 11.682 30.5207 11.682C31.2509 11.682 31.835 12.1201 31.835 12.1201L32.054 10.5868C32.054 10.5868 31.1779 10.2217 30.3747 10.2217C28.6953 10.2217 27.016 11.682 27.016 14.4566C27.016 16.282 27.8921 17.5232 29.6445 17.5232C30.2286 17.5232 31.0318 17.3042 31.0318 17.3042ZM10.6605 11.536C9.63824 11.536 8.90808 11.828 8.90808 11.828L8.68903 13.0693C8.68903 13.0693 9.34617 12.7772 10.2954 12.7772C10.8065 12.7772 11.2446 12.8502 11.2446 13.2883C11.2446 13.5804 11.1716 13.6534 11.1716 13.6534H10.5144C9.27316 13.6534 7.88586 14.1645 7.88586 15.8439C7.88586 17.1582 8.76205 17.4502 9.27316 17.4502C10.2954 17.4502 10.7335 16.7931 10.8065 16.7931L10.7335 17.3772H12.0478L12.6319 13.3614C12.6319 11.609 11.1716 11.536 10.6605 11.536ZM10.9525 14.8217C10.9525 15.0407 10.8065 16.209 9.9303 16.209C9.49221 16.209 9.34617 15.8439 9.34617 15.6248C9.34617 15.2598 9.56522 14.7486 10.6605 14.7486C10.8795 14.8217 10.9525 14.8217 10.9525 14.8217ZM14.0192 17.4502C14.3843 17.4502 16.2096 17.5232 16.2096 15.5518C16.2096 13.7264 14.4573 14.0915 14.4573 13.3614C14.4573 12.9963 14.7493 12.8502 15.2604 12.8502C15.4795 12.8502 16.2827 12.9233 16.2827 12.9233L16.5017 11.609C16.5017 11.609 15.9906 11.4629 15.1144 11.4629C14.0192 11.4629 12.9239 11.901 12.9239 13.3614C12.9239 15.0407 14.7493 14.8947 14.7493 15.5518C14.7493 15.9899 14.2382 16.0629 13.8731 16.0629C13.216 16.0629 12.5589 15.8439 12.5589 15.8439L12.3398 17.1582C12.4128 17.3042 12.7779 17.4502 14.0192 17.4502ZM43.1524 10.3677L42.8604 12.3391C42.8604 12.3391 42.2762 11.609 41.4731 11.609C40.1588 11.609 38.9905 13.2153 38.9905 15.1137C38.9905 16.282 39.5747 17.5232 40.8159 17.5232C41.6921 17.5232 42.2032 16.9391 42.2032 16.9391L42.1302 17.4502H43.5905L44.6857 10.4407L43.1524 10.3677ZM42.4953 14.2375C42.4953 15.0407 42.1302 16.0629 41.327 16.0629C40.8159 16.0629 40.5239 15.6248 40.5239 14.8947C40.5239 13.7264 41.035 12.9963 41.6921 12.9963C42.2032 12.9963 42.4953 13.3614 42.4953 14.2375ZM2.70175 17.3772L3.57794 12.1201L3.72397 17.3772H4.74619L6.6446 12.1201L5.84142 17.3772H7.37475L8.543 10.3677H6.13349L4.67317 14.6756L4.60016 10.3677H2.4827L1.31445 17.3772H2.70175ZM25.3366 17.3772C25.7747 14.9677 25.8477 12.9963 26.8699 13.3614C27.016 12.4121 27.235 12.0471 27.381 11.682H27.089C26.4318 11.682 25.9207 12.5582 25.9207 12.5582L26.0668 11.755H24.6795L23.7303 17.4502H25.3366V17.3772ZM34.3905 11.536C33.3683 11.536 32.6382 11.828 32.6382 11.828L32.4191 13.0693C32.4191 13.0693 33.0763 12.7772 34.0255 12.7772C34.5366 12.7772 34.9747 12.8502 34.9747 13.2883C34.9747 13.5804 34.9016 13.6534 34.9016 13.6534H34.2445C33.0032 13.6534 31.6159 14.1645 31.6159 15.8439C31.6159 17.1582 32.4921 17.4502 33.0032 17.4502C34.0255 17.4502 34.4636 16.7931 34.5366 16.7931L34.4636 17.3772H35.7778L36.362 13.3614C36.435 11.609 34.9016 11.536 34.3905 11.536ZM34.7556 14.8217C34.7556 15.0407 34.6096 16.209 33.7334 16.209C33.2953 16.209 33.1493 15.8439 33.1493 15.6248C33.1493 15.2598 33.3683 14.7486 34.4636 14.7486C34.6826 14.8217 34.6826 14.8217 34.7556 14.8217ZM37.6032 17.3772C38.0413 14.9677 38.1143 12.9963 39.1366 13.3614C39.2826 12.4121 39.5016 12.0471 39.6477 11.682H39.3556C38.6985 11.682 38.1874 12.5582 38.1874 12.5582L38.3334 11.755H36.9461L35.9969 17.4502H37.6032V17.3772Z" fill="white"/>
<path d="M16.4287 16.282C16.4287 17.1582 16.9398 17.5232 17.5969 17.5232C18.1081 17.5232 18.5461 17.3772 18.6922 17.3042L18.9112 16.0629C18.8382 16.0629 18.6922 16.1359 18.5461 16.1359C18.035 16.1359 17.962 15.8439 18.035 15.6979L18.4731 13.1423H19.2763L19.4953 11.755H18.7652L18.9112 10.8788M19.9334 14.9677C19.9334 17.0121 20.5906 17.5232 21.7588 17.5232C22.8541 17.5232 23.2922 17.3042 23.2922 17.3042L23.5842 15.9169C23.5842 15.9169 22.7811 16.282 22.0509 16.282C20.4446 16.282 20.7366 15.1137 20.7366 15.1137H23.7303C23.7303 15.1137 23.9493 14.1645 23.9493 13.7994C23.9493 12.8502 23.4382 11.682 21.8319 11.682C20.2985 11.536 19.9334 13.1423 19.9334 14.9677ZM21.7588 12.8502C22.562 12.8502 22.708 13.7994 22.708 13.8725H20.8096C20.8096 13.7994 20.9557 12.8502 21.7588 12.8502ZM31.0318 17.3042L31.3239 15.6979C31.3239 15.6979 30.5937 16.0629 30.0826 16.0629C29.0604 16.0629 28.6223 15.2598 28.6223 14.3836C28.6223 12.6312 29.4985 11.682 30.5207 11.682C31.2509 11.682 31.835 12.1201 31.835 12.1201L32.054 10.5868C32.054 10.5868 31.1779 10.2217 30.3747 10.2217C28.6953 10.2217 27.7461 11.682 27.7461 14.4566C27.7461 16.282 27.8921 17.5232 29.6445 17.5232C30.2286 17.5232 31.0318 17.3042 31.0318 17.3042ZM8.68903 13.1423C8.68903 13.1423 9.34617 12.8502 10.2954 12.8502C10.8065 12.8502 11.2446 12.9233 11.2446 13.3614C11.2446 13.6534 11.1716 13.7264 11.1716 13.7264H10.5144C9.27316 13.7264 7.88586 14.2375 7.88586 15.9169C7.88586 17.2312 8.76205 17.5232 9.27316 17.5232C10.2954 17.5232 10.7335 16.8661 10.8065 16.8661L10.7335 17.4502H12.0478L12.6319 13.4344C12.6319 11.755 11.1716 11.682 10.5874 11.682M11.6827 14.8217C11.6827 15.0407 10.8065 16.209 9.9303 16.209C9.49221 16.209 9.34617 15.8439 9.34617 15.6248C9.34617 15.2598 9.56522 14.7486 10.6605 14.7486C10.8795 14.8217 11.6827 14.8217 11.6827 14.8217ZM12.4128 17.3042C12.4128 17.3042 12.8509 17.4502 14.0922 17.4502C14.4573 17.4502 16.2827 17.5232 16.2827 15.5518C16.2827 13.7264 14.5303 14.0915 14.5303 13.3614C14.5303 12.9963 14.8223 12.8502 15.3335 12.8502C15.5525 12.8502 16.3557 12.9233 16.3557 12.9233L16.5747 11.609C16.5747 11.609 16.0636 11.4629 15.1874 11.4629C14.0922 11.4629 13.7271 11.901 13.7271 13.3614C13.7271 15.0407 14.8223 14.8947 14.8223 15.5518C14.8223 15.9899 14.3112 16.0629 13.9462 16.0629M42.8604 12.3391C42.8604 12.3391 42.2762 11.609 41.4731 11.609C40.1588 11.609 39.7207 13.2153 39.7207 15.1137C39.7207 16.282 39.5747 17.5232 40.8159 17.5232C41.6921 17.5232 42.2032 16.9391 42.2032 16.9391L42.1302 17.4502H43.5905L44.6857 10.4407M42.7873 14.2375C42.7873 15.0407 42.1302 16.0629 41.327 16.0629C40.8159 16.0629 40.5239 15.6248 40.5239 14.8947C40.5239 13.7264 41.035 12.9963 41.6921 12.9963C42.2032 12.9963 42.7873 13.3614 42.7873 14.2375ZM2.70175 17.3772L3.57794 12.1201L3.72397 17.3772H4.74619L6.6446 12.1201L5.84142 17.3772H7.37475L8.543 10.3677H6.71761L4.67317 14.6756L4.60016 10.3677H3.79699L1.31445 17.3772H2.70175ZM23.8033 17.3772H25.3366C25.7747 14.9677 25.8477 12.9963 26.8699 13.3614C27.016 12.4121 27.235 12.0471 27.381 11.682H27.089C26.4318 11.682 25.9207 12.5582 25.9207 12.5582L26.0668 11.755M32.4191 13.1423C32.4191 13.1423 33.0763 12.8502 34.0255 12.8502C34.5366 12.8502 34.9747 12.9233 34.9747 13.3614C34.9747 13.6534 34.9016 13.7264 34.9016 13.7264H34.2445C33.0032 13.7264 31.6159 14.2375 31.6159 15.9169C31.6159 17.2312 32.4921 17.5232 33.0032 17.5232C34.0255 17.5232 34.4636 16.8661 34.5366 16.8661L34.4636 17.4502H35.7778L36.362 13.4344C36.362 11.755 34.9017 11.682 34.3175 11.682M35.4128 14.8217C35.4128 15.0407 34.5366 16.209 33.6604 16.209C33.2223 16.209 33.0763 15.8439 33.0763 15.6248C33.0763 15.2598 33.2953 14.7486 34.3905 14.7486C34.6826 14.8217 35.4128 14.8217 35.4128 14.8217ZM36.0699 17.3772H37.6032C38.0413 14.9677 38.1143 12.9963 39.1366 13.3614C39.2826 12.4121 39.5016 12.0471 39.6477 11.682H39.3556C38.6985 11.682 38.1874 12.5582 38.1874 12.5582L38.3334 11.755" fill="#DCE5E5"/>
</svg>
