<svg width="81" height="81" viewBox="0 0 81 81" fill="none" xmlns="http://www.w3.org/2000/svg">
<rect x="0.148438" y="0.5" width="80.5391" height="80" rx="10" fill="#FF0052"/>
<path d="M40.418 20.5C29.39 20.5 20.418 29.472 20.418 40.5C20.418 51.528 29.39 60.5 40.4178 60.5C51.4458 60.5 60.4178 51.528 60.4178 40.5C60.4178 29.472 51.4459 20.5 40.418 20.5ZM38.8093 22.0571H41.9118V25.1597H38.8093V22.0571ZM54.3856 40.5C54.3856 48.2019 48.1197 54.4676 40.418 54.4676C32.7163 54.4676 26.4505 48.2017 26.4505 40.5C26.4505 32.7983 32.7164 26.5324 40.418 26.5324C48.1197 26.5324 54.3856 32.7983 54.3856 40.5ZM28.4739 26.3621L30.6677 28.5559L28.4739 30.7498L26.28 28.5559L28.4739 26.3621ZM25.0202 42.0513H21.9177V38.9487H25.0202V42.0513ZM28.4739 54.6381L26.28 52.4443L28.4739 50.2504L30.6677 52.4443L28.4739 54.6381ZM41.9118 58.9429H38.8093V55.8403H41.9118V58.9429ZM52.3621 54.6381L50.1682 52.4443L52.3621 50.2504L54.5559 52.4443L52.3621 54.6381ZM52.3621 30.7498L50.1682 28.5559L52.3621 26.3621L54.5559 28.5559L52.3621 30.7498ZM55.7009 42.0513V38.9487H58.8034V42.0513H55.7009Z" fill="white"/>
<path d="M29.0352 40.4994C29.0352 46.7755 34.1411 51.8816 40.4172 51.8816C46.6933 51.8816 51.7994 46.7755 51.7994 40.4994C51.7994 34.2233 46.6933 29.1172 40.4172 29.1172C34.1411 29.1172 29.0352 34.2233 29.0352 40.4994ZM45.8597 39.5345C46.3966 40.4077 46.5697 41.1843 46.5697 42.107C46.5697 44.3874 44.9605 45.6134 43.131 45.6134C41.8831 45.6134 41.1725 45.0237 40.7848 44.5332L41.4463 46.8768H39.367L40.0138 44.587C39.6141 45.0627 38.9143 45.6592 37.7119 45.6592C35.8825 45.6592 34.2645 44.4105 34.2645 42.1299C34.2645 41.2071 34.4332 40.4075 34.97 39.5343C35.807 38.1725 40.4292 34.2526 40.4292 34.2526C40.4292 34.2526 45.0227 38.1726 45.8597 39.5345Z" fill="white"/>
</svg>
