<svg width="80" height="80" viewBox="0 0 80 80" fill="none" xmlns="http://www.w3.org/2000/svg">
<rect width="80" height="80" rx="10" fill="#FF0052"/>
<path d="M35.1875 40V59.25H25.0813C23.4888 59.25 22.1938 57.955 22.1938 56.3625V39.9028C22.5047 39.9663 22.8266 40 23.1563 40H35.1875ZM37.1125 40V59.25H42.8875V40H37.1125ZM56.8438 40H44.8125V59.25H54.9188C56.5113 59.25 57.8063 57.955 57.8063 56.3625V39.9028C57.4954 39.9663 57.1735 40 56.8438 40ZM59.7313 31.3375V35.1875C59.7313 36.78 58.4363 38.075 56.8438 38.075H23.1563C21.5638 38.075 20.2688 36.78 20.2688 35.1875V31.3375C20.2688 29.745 21.5638 28.45 23.1563 28.45H32.3092C31.7023 27.6444 31.3375 26.6463 31.3375 25.5625C31.3375 22.9089 33.4964 20.75 36.15 20.75C37.7252 20.75 39.1218 21.5142 40 22.6875C40.8788 21.5142 42.2749 20.75 43.85 20.75C46.5037 20.75 48.6625 22.9089 48.6625 25.5625C48.6625 26.6463 48.2978 27.6444 47.6909 28.45H56.8438C58.4363 28.45 59.7313 29.745 59.7313 31.3375ZM40.9625 25.5625V28.45H43.85C45.4425 28.45 46.7375 27.155 46.7375 25.5625C46.7375 23.97 45.4425 22.675 43.85 22.675C42.2576 22.675 40.9625 23.97 40.9625 25.5625ZM36.15 28.45H39.0375V25.5625C39.0375 23.97 37.7425 22.675 36.15 22.675C34.5576 22.675 33.2625 23.97 33.2625 25.5625C33.2625 27.155 34.5576 28.45 36.15 28.45Z" fill="white"/>
</svg>
