<svg width="32" height="30" viewBox="0 0 32 30" fill="none" xmlns="http://www.w3.org/2000/svg">
<path d="M10.9984 12.91L10.2557 12.1666L6.60487 8.52722C6.42911 8.35203 6.19106 8.25366 5.9429 8.25366C5.69474 8.25366 5.4567 8.35203 5.28093 8.52722L1.63898 12.1578L0.890576 12.9036C0.361163 13.4335 0.0457141 14.1399 0.00459333 14.8878C-0.0365274 15.6357 0.199568 16.3725 0.6677 16.9572C1.13583 17.5419 1.80313 17.9334 2.54189 18.0569C3.28065 18.1804 4.039 18.0271 4.67183 17.6264L4.25774 19.8577C4.2382 19.9627 4.24206 20.0708 4.26903 20.1742C4.29601 20.2777 4.34543 20.3739 4.4138 20.456C4.48217 20.5382 4.56779 20.6042 4.66459 20.6495C4.76138 20.6948 4.86697 20.7183 4.97385 20.7181H6.91386C7.02069 20.7182 7.12623 20.6947 7.22297 20.6493C7.31971 20.604 7.40528 20.5379 7.47363 20.4558C7.54197 20.3737 7.5914 20.2775 7.61842 20.1741C7.64544 20.0708 7.64938 19.9627 7.62996 19.8577L7.21651 17.6137C7.80104 17.9839 8.49402 18.1444 9.18178 18.069C9.86953 17.9935 10.5112 17.6865 11.0016 17.1984C11.2836 16.917 11.5072 16.5826 11.6597 16.2145C11.8122 15.8465 11.8906 15.4519 11.8903 15.0535C11.89 14.6551 11.8111 14.2607 11.658 13.8928C11.505 13.525 11.2808 13.191 10.9984 12.91Z" fill="#FFF"/>
<path d="M10.4578 0.890351C11.0307 0.320127 11.8061 0 12.6144 0C13.4227 0 14.198 0.320127 14.7709 0.890351L15.5187 1.63558L16.262 0.894783C16.8337 0.325179 17.6078 0.00535079 18.4148 0.00535079C19.2218 0.00535079 19.9959 0.325179 20.5675 0.894783C20.85 1.17605 21.0742 1.51034 21.2271 1.87847C21.3801 2.24659 21.4588 2.6413 21.4588 3.03994C21.4588 3.43858 21.3801 3.83329 21.2271 4.20141C21.0742 4.56954 20.85 4.90383 20.5675 5.1851L19.8242 5.92653L16.1734 9.56595C15.9974 9.74083 15.7595 9.83899 15.5114 9.83899C15.2633 9.83899 15.0254 9.74083 14.8494 9.56595L11.2062 5.93539L10.4578 5.18953C10.1747 4.90772 9.94999 4.57275 9.79668 4.20386C9.64337 3.83496 9.56445 3.43942 9.56445 3.03994C9.56445 2.64046 9.64337 2.24491 9.79668 1.87602C9.94999 1.50713 10.1747 1.17216 10.4578 0.890351Z" fill="#FFF"/>
<path d="M21.1925 24.5182C21.2732 24.4706 21.3401 24.4029 21.3866 24.3215C21.4332 24.2402 21.4576 24.1481 21.4576 24.0544C21.4576 23.9607 21.4332 23.8686 21.3866 23.7873C21.3401 23.7059 21.2732 23.6381 21.1925 23.5906C19.0381 22.3223 17.2424 20.5261 15.9746 18.3714C15.9269 18.291 15.859 18.2243 15.7778 18.1781C15.6965 18.1318 15.6046 18.1074 15.5111 18.1074C15.4176 18.1074 15.3256 18.1318 15.2444 18.1781C15.1631 18.2243 15.0953 18.291 15.0476 18.3714C13.7717 20.52 11.9775 22.3144 9.82908 23.5906C9.74848 23.6382 9.68167 23.7059 9.63527 23.7872C9.58886 23.8685 9.56445 23.9605 9.56445 24.0541C9.56445 24.1477 9.58886 24.2396 9.63527 24.3209C9.68167 24.4022 9.74848 24.47 9.82908 24.5175C11.9843 25.7844 13.7806 27.5801 15.0482 29.7348C15.0958 29.8156 15.1636 29.8825 15.2449 29.929C15.3263 29.9755 15.4183 30 15.512 30C15.6057 30 15.6978 29.9755 15.7792 29.929C15.8605 29.8825 15.9283 29.8156 15.9758 29.7348C17.2459 27.5836 19.0401 25.7891 21.1912 24.5188L21.1925 24.5182Z" fill="#FFF"/>
<path d="M27.9335 12.2452H27.8658C28.0198 11.7799 28.061 11.2846 27.9862 10.8002C27.9113 10.3158 27.7225 9.85607 27.4352 9.45892C27.1479 9.06178 26.7704 8.73855 26.3337 8.51585C25.8971 8.29315 25.4137 8.17735 24.9236 8.17798C24.4334 8.17862 23.9504 8.29567 23.5143 8.51949C23.0783 8.74332 22.7016 9.06753 22.4153 9.46542C22.1291 9.86331 21.9414 10.3235 21.8678 10.8081C21.7942 11.2927 21.8367 11.7879 21.9919 12.2528C21.5451 12.2872 21.1112 12.4183 20.72 12.6369C20.3288 12.8555 19.9898 13.1564 19.7263 13.5188C19.4628 13.8813 19.2812 14.2967 19.194 14.7362C19.1067 15.1757 19.116 15.629 19.2211 16.0646C19.3262 16.5002 19.5247 16.9078 19.8028 17.2592C20.0809 17.6105 20.4319 17.8974 20.8317 18.0998C21.2315 18.3022 21.6705 18.4154 22.1183 18.4315C22.5661 18.4476 23.0121 18.3663 23.4254 18.1932L23.1285 19.7951C23.1058 19.9168 23.1102 20.042 23.1413 20.1618C23.1725 20.2817 23.2297 20.3932 23.3088 20.4884C23.3879 20.5837 23.487 20.6603 23.5991 20.713C23.7112 20.7656 23.8334 20.7929 23.9573 20.7929H26.2056C26.3295 20.7929 26.4518 20.7656 26.5639 20.7129C26.676 20.6603 26.7751 20.5837 26.8543 20.4884C26.9334 20.3932 26.9907 20.2817 27.0219 20.1619C27.0531 20.0421 27.0576 19.9168 27.0351 19.7951L26.7375 18.1932C27.1599 18.3692 27.6162 18.4493 28.0733 18.4278C28.5305 18.4063 28.9772 18.2837 29.3812 18.0687C29.7853 17.8538 30.1366 17.552 30.41 17.1849C30.6833 16.8179 30.8719 16.3948 30.9621 15.9461C31.0522 15.4974 31.0418 15.0343 30.9314 14.5901C30.8211 14.146 30.6136 13.7318 30.3239 13.3775C30.0343 13.0232 29.6696 12.7375 29.2563 12.5411C28.843 12.3446 28.3912 12.2423 27.9335 12.2414V12.2452Z" fill="#FFF"/>
</svg>
