<svg width="30" height="30" viewBox="0 0 30 30" fill="none" xmlns="http://www.w3.org/2000/svg">
<path d="M15 0C17.9667 0 20.8668 0.879736 23.3335 2.52796C25.8003 4.17618 27.7229 6.51886 28.8582 9.25976C29.9935 12.0007 30.2906 15.0167 29.7118 17.9264C29.133 20.8361 27.7044 23.5088 25.6066 25.6066C23.5088 27.7044 20.8361 29.133 17.9263 29.7118C15.0166 30.2906 12.0006 29.9935 9.25972 28.8582C6.51882 27.7229 4.17614 25.8003 2.52792 23.3336C0.879694 20.8668 -4.19617e-05 17.9667 -4.19617e-05 15C0.00445938 11.0231 1.58626 7.21045 4.39833 4.39838C7.21041 1.5863 11.0231 0.00450156 15 0ZM2.09665 11.5904L4.18815 12.0066C4.43333 11.1218 4.78688 10.2706 5.24075 9.47245L3.47004 8.29135C2.86548 9.32403 2.40349 10.4338 2.09665 11.5904ZM6.91603 4.38993C5.96551 5.11603 5.11599 5.96556 4.38988 6.91607L6.16154 8.10237C6.72627 7.38054 7.37672 6.7301 8.09855 6.16536L6.91603 4.38993ZM11.5904 2.0967C10.4336 2.4042 9.32382 2.86699 8.29131 3.47245L9.47241 5.24316C10.2702 4.78959 11.1209 4.43606 12.0052 4.19056L11.5904 2.0967ZM15 1.65355C14.4021 1.65462 13.805 1.69582 13.2127 1.77685L13.6299 3.86646C14.5406 3.75056 15.4622 3.75056 16.3729 3.86646L16.7886 1.77685C16.1959 1.69576 15.5983 1.65456 15 1.65355ZM18.4096 2.0967L17.9938 4.18819C18.8784 4.43363 19.7294 4.78716 20.5275 5.24079L21.7086 3.47245C20.6761 2.8671 19.5663 2.40432 18.4096 2.0967ZM23.0839 4.38993L21.9 6.16158C22.6218 6.72632 23.2723 7.37677 23.837 8.09859L25.6086 6.91465C24.8829 5.96473 24.0338 5.11569 23.0839 4.38993ZM26.5275 8.29135L24.7592 9.47245C25.213 10.2702 25.5665 11.1209 25.8118 12.0052L27.9033 11.589C27.5956 10.4327 27.1328 9.32346 26.5275 8.29135ZM28.3464 15C28.3454 14.4022 28.3042 13.8051 28.2231 13.2128L26.1335 13.6285C26.2494 14.5392 26.2494 15.4609 26.1335 16.3715L28.2231 16.7873C28.3042 16.1949 28.3454 15.5979 28.3464 15ZM27.9033 18.4096L25.8118 17.9934C25.5666 18.8783 25.2131 19.7294 24.7592 20.5276L26.5275 21.7087C27.1329 20.6761 27.5957 19.5664 27.9033 18.4096ZM23.0844 25.6101C24.0349 24.884 24.8844 24.0345 25.6105 23.084L23.8389 21.9C23.2741 22.6219 22.6237 23.2723 21.9019 23.837L23.0844 25.6101ZM18.4101 27.9033C19.5665 27.5965 20.6762 27.1345 21.7086 26.53L20.5275 24.7592C19.7297 25.2128 18.8791 25.5663 17.9948 25.8118L18.4101 27.9033ZM15 28.3465C15.5978 28.3454 16.1949 28.3042 16.7872 28.2232L16.3715 26.1336C15.4608 26.2495 14.5391 26.2495 13.6285 26.1336L13.2127 28.2232C13.805 28.3042 14.4021 28.3454 15 28.3465ZM11.5904 27.9033L12.0061 25.8118C11.1215 25.5664 10.2705 25.2129 9.47241 24.7592L8.29131 26.53C9.324 27.1345 10.4338 27.5965 11.5904 27.9033ZM15 24.567C16.8921 24.567 18.7418 24.0059 20.3151 22.9546C21.8884 21.9034 23.1146 20.4093 23.8387 18.6611C24.5628 16.913 24.7522 14.9894 24.3831 13.1336C24.0139 11.2778 23.1028 9.57313 21.7648 8.23517C20.4269 6.89721 18.7222 5.98605 16.8664 5.6169C15.0106 5.24776 13.087 5.43722 11.3389 6.16132C9.59074 6.88542 8.09658 8.11164 7.04535 9.68491C5.99413 11.2582 5.43303 13.1079 5.43303 15C5.43591 17.5364 6.44478 19.9682 8.2383 21.7617C10.0318 23.5552 12.4635 24.5641 15 24.567ZM6.91603 25.6101L8.09997 23.8385C7.37814 23.2737 6.72769 22.6233 6.16296 21.9014L4.3913 23.0854C5.11707 24.0353 5.96611 24.8843 6.91603 25.6101ZM3.47004 21.7087L5.24075 20.5276C4.78698 19.7299 4.43344 18.8792 4.18815 17.9948L2.09665 18.411C2.40361 19.5672 2.8656 20.6765 3.47004 21.7087ZM3.86642 16.3701C3.75051 15.4594 3.75051 14.5378 3.86642 13.6271L1.77681 13.2114C1.6124 14.3972 1.6124 15.6 1.77681 16.7858L3.86642 16.3701Z" fill="#FFF"/>
<path d="M9.80323 12.2831C10.3789 12.2839 10.9395 12.4673 11.4044 12.8069C11.8693 13.1464 12.2145 13.6247 12.3903 14.1729H14.1733V12.3899C13.5561 12.1927 13.0297 11.7814 12.6891 11.2301C12.3485 10.6789 12.2162 10.0241 12.316 9.38385C12.4158 8.74362 12.7411 8.16015 13.2333 7.73873C13.7255 7.3173 14.3521 7.08569 15.0001 7.08569C15.6481 7.08569 16.2747 7.3173 16.7669 7.73873C17.2591 8.16015 17.5844 8.74362 17.6842 9.38385C17.784 10.0241 17.6517 10.6789 17.3111 11.2301C16.9705 11.7814 16.4441 12.1927 15.8269 12.3899V14.1729H17.6099C17.8071 13.5557 18.2184 13.0293 18.7696 12.6887C19.3209 12.3481 19.9757 12.2157 20.6159 12.3155C21.2561 12.4153 21.8396 12.7407 22.261 13.2329C22.6825 13.7251 22.9141 14.3517 22.9141 14.9997C22.9141 15.6476 22.6825 16.2743 22.261 16.7664C21.8396 17.2586 21.2561 17.584 20.6159 17.6838C19.9757 17.7836 19.3209 17.6512 18.7696 17.3107C18.2184 16.9701 17.8071 16.4437 17.6099 15.8264H15.8269V17.6094C16.4441 17.8066 16.9705 18.218 17.3111 18.7692C17.6517 19.3204 17.784 19.9752 17.6842 20.6155C17.5844 21.2557 17.2591 21.8392 16.7669 22.2606C16.2747 22.682 15.6481 22.9136 15.0001 22.9136C14.3521 22.9136 13.7255 22.682 13.2333 22.2606C12.7411 21.8392 12.4158 21.2557 12.316 20.6155C12.2162 19.9752 12.3485 19.3204 12.6891 18.7692C13.0297 18.218 13.5561 17.8066 14.1733 17.6094V15.8264H12.3903C12.2376 16.3041 11.9556 16.7301 11.5757 17.0573C11.1957 17.3845 10.7326 17.6001 10.2376 17.6803C9.74261 17.7605 9.23508 17.7021 8.77126 17.5115C8.30743 17.321 7.9054 17.0058 7.60971 16.6008C7.31402 16.1958 7.13621 15.7169 7.09599 15.2171C7.05576 14.7173 7.15469 14.2161 7.38181 13.769C7.60893 13.3219 7.95537 12.9465 8.38276 12.6842C8.81015 12.422 9.3018 12.2831 9.80323 12.2831ZM20.1969 16.0627C20.4072 16.0627 20.6127 16.0003 20.7875 15.8835C20.9623 15.7667 21.0986 15.6007 21.179 15.4065C21.2595 15.2122 21.2805 14.9985 21.2395 14.7923C21.1985 14.5861 21.0973 14.3967 20.9486 14.248C20.7999 14.0994 20.6105 13.9981 20.4043 13.9571C20.1981 13.9161 19.9844 13.9371 19.7902 14.0176C19.5959 14.098 19.4299 14.2343 19.3131 14.4091C19.1963 14.5839 19.134 14.7894 19.134 14.9997C19.1343 15.2815 19.2464 15.5516 19.4457 15.7509C19.645 15.9502 19.9151 16.0623 20.1969 16.0627ZM13.9371 20.1965C13.9371 20.4068 13.9994 20.6123 14.1162 20.7871C14.233 20.9619 14.3991 21.0981 14.5933 21.1786C14.7875 21.2591 15.0013 21.2801 15.2075 21.2391C15.4137 21.1981 15.6031 21.0968 15.7517 20.9482C15.9004 20.7995 16.0016 20.6101 16.0427 20.4039C16.0837 20.1977 16.0626 19.984 15.9822 19.7897C15.9017 19.5955 15.7655 19.4295 15.5907 19.3127C15.4158 19.1959 15.2103 19.1335 15.0001 19.1335C14.7183 19.1339 14.4481 19.246 14.2489 19.4453C14.0496 19.6446 13.9375 19.9147 13.9371 20.1965ZM15.0001 10.8658C15.2103 10.8658 15.4158 10.8035 15.5907 10.6867C15.7655 10.5699 15.9017 10.4038 15.9822 10.2096C16.0626 10.0154 16.0837 9.80163 16.0427 9.59543C16.0016 9.38923 15.9004 9.19982 15.7517 9.05116C15.6031 8.9025 15.4137 8.80126 15.2075 8.76024C15.0013 8.71923 14.7875 8.74028 14.5933 8.82073C14.3991 8.90119 14.233 9.03744 14.1162 9.21224C13.9994 9.38705 13.9371 9.59257 13.9371 9.80281C13.9375 10.0846 14.0496 10.3548 14.2489 10.554C14.4481 10.7533 14.7183 10.8654 15.0001 10.8658ZM9.80323 16.0627C10.0135 16.0627 10.219 16.0003 10.3938 15.8835C10.5686 15.7667 10.7049 15.6007 10.7853 15.4065C10.8658 15.2122 10.8868 14.9985 10.8458 14.7923C10.8048 14.5861 10.7035 14.3967 10.5549 14.248C10.4062 14.0994 10.2168 13.9981 10.0106 13.9571C9.80441 13.9161 9.59068 13.9371 9.39644 14.0176C9.20221 14.098 9.03619 14.2343 8.91939 14.4091C8.80258 14.5839 8.74024 14.7894 8.74024 14.9997C8.74061 15.2815 8.85273 15.5516 9.052 15.7509C9.25127 15.9502 9.52143 16.0623 9.80323 16.0627Z" fill="#FFF"/>
</svg>
