<svg width="80" height="80" viewBox="0 0 80 80" fill="none" xmlns="http://www.w3.org/2000/svg">
<rect width="80" height="80" rx="10" fill="#FF0052"/>
<path d="M60.9523 40C60.9523 51.0281 51.9804 60 40.9523 60C32.7609 60 25.4818 55.0905 22.4085 47.4924C22.2113 47.0048 22.447 46.45 22.9342 46.2524C23.4242 46.0571 23.9766 46.291 24.1742 46.7781C26.9547 53.6533 33.5409 58.0952 40.9523 58.0952C50.9299 58.0952 59.0475 49.9776 59.0475 40C59.0475 30.0224 50.9299 21.9048 40.9523 21.9048C34.2542 21.9048 28.1532 25.599 25.0166 31.4286H27.619C27.949 31.4286 28.2556 31.5995 28.429 31.88C28.6023 32.161 28.618 32.5114 28.4709 32.8067L24.6613 40.4257C24.4999 40.7486 24.1704 40.9524 23.8094 40.9524C23.4485 40.9524 23.119 40.7486 22.9575 40.4262L19.148 32.8071C19.0004 32.5119 19.0166 32.1614 19.1899 31.8805C19.3632 31.5995 19.6699 31.4286 19.9999 31.4286H22.8789C26.1837 24.4657 33.209 20 40.9523 20C51.9804 20 60.9523 28.9719 60.9523 40ZM51.9047 40C51.9047 46.0395 46.9918 50.9524 40.9523 50.9524C34.9128 50.9524 29.9999 46.0395 29.9999 40C29.9999 33.9605 34.9128 29.0476 40.9523 29.0476C46.9918 29.0476 51.9047 33.9605 51.9047 40ZM44.7618 41.9048C44.7618 40.329 43.4804 39.0476 41.9047 39.0476H39.9999C39.4747 39.0476 39.0475 38.6205 39.0475 38.0952C39.0475 37.57 39.4747 37.1429 39.9999 37.1429H43.3332C43.859 37.1429 44.2856 36.7162 44.2856 36.1905C44.2856 35.6648 43.859 35.2381 43.3332 35.2381H41.9047V33.8095C41.9047 33.2838 41.478 32.8571 40.9523 32.8571C40.4266 32.8571 39.9999 33.2838 39.9999 33.8095V35.2381C38.4242 35.2381 37.1428 36.5195 37.1428 38.0952C37.1428 39.671 38.4242 40.9524 39.9999 40.9524H41.9047C42.4299 40.9524 42.857 41.3795 42.857 41.9048C42.857 42.43 42.4299 42.8571 41.9047 42.8571H38.5713C38.0456 42.8571 37.619 43.2838 37.619 43.8095C37.619 44.3352 38.0456 44.7619 38.5713 44.7619H39.9999V46.1905C39.9999 46.7162 40.4266 47.1429 40.9523 47.1429C41.478 47.1429 41.9047 46.7162 41.9047 46.1905V44.7619C43.4804 44.7619 44.7618 43.4805 44.7618 41.9048Z" fill="white"/>
</svg>
