<svg width="62" height="20" viewBox="0 0 62 20" fill="none" xmlns="http://www.w3.org/2000/svg">
<path d="M40.3829 0C35.9806 0 32.0466 2.27172 32.0466 6.4689C32.0466 11.2822 39.0238 11.6147 39.0238 14.0328C39.0238 15.0509 37.8518 15.9624 35.8501 15.9624C33.0093 15.9624 30.8861 14.6888 30.8861 14.6888L29.9777 18.9243C29.9777 18.9243 32.4235 20 35.6709 20C40.4839 20 44.2712 17.6167 44.2712 13.3478C44.2712 8.26164 37.265 7.93904 37.265 5.69469C37.265 4.897 38.227 4.02312 40.223 4.02312C42.475 4.02312 44.3124 4.94933 44.3124 4.94933L45.2015 0.858677C45.2015 0.858677 43.2023 0 40.3829 0ZM0.106623 0.308758L0 0.926212C0 0.926212 1.85206 1.26364 3.5201 1.93683C5.66782 2.70869 5.82086 3.15808 6.18256 4.55376L10.1241 19.6816H15.408L23.548 0.308758H18.2763L13.0459 13.4804L10.9116 2.31547C10.7158 1.03768 9.72432 0.308758 8.51069 0.308758H0.106623ZM25.6678 0.308758L21.5324 19.6815H26.5593L30.6803 0.308696H25.6678V0.308758ZM53.7049 0.308758C52.4927 0.308758 51.8505 0.954882 51.3792 2.08395L44.0144 19.6815H49.286L50.306 16.7486H56.7283L57.3486 19.6815H62L57.9421 0.308758H53.7049ZM54.3905 5.54269L55.9531 12.8123H51.7668L54.3905 5.54269Z" fill="white"/>
</svg>
