<svg width="64" height="16" viewBox="0 0 64 16" fill="none" xmlns="http://www.w3.org/2000/svg">
<path d="M23.9306 3.49512H20.389C20.2718 3.49504 20.1583 3.53685 20.0692 3.61299C19.98 3.68914 19.921 3.79462 19.9027 3.91044L18.4703 12.9921C18.4638 13.0343 18.4664 13.0773 18.478 13.1184C18.4897 13.1594 18.5101 13.1974 18.5379 13.2298C18.5656 13.2622 18.6001 13.2882 18.6388 13.306C18.6776 13.3237 18.7198 13.3329 18.7624 13.3329H20.4532C20.5705 13.3329 20.684 13.291 20.7732 13.2148C20.8623 13.1385 20.9213 13.0329 20.9395 12.917L21.3258 10.4676C21.3439 10.3517 21.4029 10.2462 21.4919 10.17C21.581 10.0937 21.6943 10.0518 21.8116 10.0517H22.9327C25.2657 10.0517 26.6121 8.92279 26.9637 6.68564C27.1222 5.70689 26.9705 4.93787 26.5122 4.3993C26.0088 3.8079 25.116 3.49512 23.9306 3.49512ZM24.3392 6.812C24.1455 8.08282 23.1746 8.08282 22.2357 8.08282H21.7013L22.0762 5.70948C22.0872 5.64004 22.1226 5.5768 22.176 5.53114C22.2294 5.48548 22.2974 5.46039 22.3677 5.46039H22.6127C23.2522 5.46039 23.8555 5.46039 24.1673 5.82496C24.3532 6.04246 24.4102 6.3656 24.3392 6.812ZM34.5172 6.77109H32.8212C32.7509 6.77109 32.6829 6.79618 32.6295 6.84184C32.576 6.8875 32.5406 6.95074 32.5297 7.02018L32.4546 7.49453L32.336 7.32261C31.9688 6.78973 31.1501 6.61159 30.3329 6.61159C28.4588 6.61159 26.8581 8.03104 26.5463 10.0222C26.3842 11.0155 26.6147 11.9652 27.1781 12.6275C27.6949 13.2365 28.4344 13.4903 29.3143 13.4903C30.8244 13.4903 31.6617 12.5193 31.6617 12.5193L31.5861 12.9906C31.5794 13.0327 31.5819 13.0758 31.5934 13.1169C31.6049 13.158 31.6252 13.1961 31.6529 13.2285C31.6805 13.261 31.7149 13.2871 31.7536 13.305C31.7923 13.323 31.8345 13.3323 31.8772 13.3323H33.4048C33.5222 13.3324 33.6356 13.2905 33.7248 13.2143C33.814 13.138 33.873 13.0324 33.8911 12.9165L34.8077 7.11184C34.8145 7.0698 34.812 7.02679 34.8005 6.9858C34.789 6.9448 34.7687 6.90679 34.7411 6.87439C34.7135 6.84199 34.6792 6.81598 34.6405 6.79814C34.6019 6.7803 34.5598 6.77107 34.5172 6.77109ZM32.1532 10.0719C31.9895 11.0408 31.2205 11.6913 30.2397 11.6913C29.7472 11.6913 29.3536 11.5333 29.1009 11.234C28.8503 10.9367 28.755 10.5136 28.8347 10.0424C28.9875 9.08177 29.7695 8.41011 30.7353 8.41011C31.2169 8.41011 31.6084 8.57013 31.8663 8.87204C32.1247 9.17705 32.2272 9.60273 32.1532 10.0719ZM43.5497 6.77109H41.8454C41.765 6.77121 41.6859 6.79095 41.6149 6.82858C41.5439 6.86621 41.4831 6.9206 41.4379 6.98703L39.0873 10.4494L38.0909 7.12219C38.0604 7.02071 37.9979 6.93178 37.9129 6.86854C37.8278 6.80531 37.7246 6.77114 37.6187 6.77109H35.9439C35.8969 6.77096 35.8505 6.78207 35.8087 6.80348C35.7668 6.82489 35.7307 6.85599 35.7033 6.89418C35.6759 6.93238 35.658 6.97657 35.6511 7.02308C35.6442 7.06958 35.6486 7.11706 35.6637 7.16155L37.541 12.6705L35.7761 15.1619C35.7447 15.2061 35.7261 15.2581 35.7223 15.3121C35.7185 15.3661 35.7297 15.4202 35.7545 15.4683C35.7794 15.5165 35.817 15.5568 35.8633 15.585C35.9096 15.6131 35.9627 15.628 36.0169 15.628H37.7191C37.7986 15.6281 37.8769 15.609 37.9473 15.5722C38.0178 15.5354 38.0783 15.482 38.1236 15.4167L43.792 7.23457C43.8228 7.1903 43.8408 7.13847 43.8441 7.08469C43.8475 7.03091 43.8361 6.97724 43.8111 6.92949C43.7861 6.88174 43.7486 6.84173 43.7025 6.81381C43.6564 6.78589 43.6036 6.77111 43.5497 6.77109Z" fill="white"/>
<path d="M49.1924 3.49515H45.6503C45.5331 3.4952 45.4198 3.53705 45.3308 3.61319C45.2417 3.68933 45.1828 3.79474 45.1645 3.91047L43.7321 12.9921C43.7255 13.0342 43.728 13.0772 43.7396 13.1182C43.7511 13.1592 43.7715 13.1972 43.7991 13.2296C43.8268 13.262 43.8611 13.288 43.8998 13.3058C43.9385 13.3237 43.9806 13.3329 44.0232 13.3329H45.8409C45.9229 13.3328 46.0021 13.3034 46.0644 13.25C46.1267 13.1967 46.1679 13.1229 46.1806 13.0419L46.5871 10.4676C46.6052 10.3518 46.6641 10.2462 46.7532 10.17C46.8423 10.0937 46.9556 10.0518 47.0728 10.0517H48.1935C50.527 10.0517 51.8729 8.92282 52.225 6.68567C52.384 5.70692 52.2312 4.9379 51.7729 4.39933C51.2701 3.80793 50.3778 3.49515 49.1924 3.49515ZM49.601 6.81203C49.4079 8.08285 48.4369 8.08285 47.4975 8.08285H46.9636L47.339 5.70951C47.3498 5.64007 47.3851 5.57678 47.4384 5.53109C47.4918 5.4854 47.5598 5.46033 47.6301 5.46042H47.875C48.514 5.46042 49.1179 5.46042 49.4296 5.82499C49.6155 6.04249 49.672 6.36563 49.601 6.81203ZM59.7785 6.77112H58.0835C58.0132 6.77092 57.9452 6.79596 57.8918 6.84166C57.8384 6.88737 57.8032 6.95072 57.7925 7.02021L57.7174 7.49456L57.5983 7.32264C57.2311 6.78976 56.4129 6.61162 55.5958 6.61162C53.7216 6.61162 52.1214 8.03107 51.8097 10.0222C51.6481 11.0155 51.8775 11.9652 52.441 12.6276C52.9588 13.2366 53.6973 13.4903 54.5771 13.4903C56.0872 13.4903 56.9246 12.5193 56.9246 12.5193L56.849 12.9906C56.8422 13.0328 56.8447 13.076 56.8563 13.1172C56.8679 13.1583 56.8883 13.1965 56.916 13.229C56.9438 13.2615 56.9783 13.2875 57.0172 13.3054C57.056 13.3233 57.0983 13.3325 57.141 13.3324H58.6682C58.7854 13.3323 58.8988 13.2904 58.9878 13.2141C59.0769 13.1379 59.1358 13.0324 59.154 12.9165L60.0711 7.11187C60.0776 7.0697 60.0749 7.02662 60.0632 6.98559C60.0514 6.94456 60.031 6.90655 60.0032 6.87418C59.9754 6.84181 59.9409 6.81583 59.9021 6.79804C59.8633 6.78025 59.8212 6.77107 59.7785 6.77112ZM57.4145 10.0719C57.2519 11.0409 56.4818 11.6913 55.501 11.6913C55.0095 11.6913 54.6149 11.5333 54.3622 11.234C54.1116 10.9368 54.0173 10.5137 54.096 10.0424C54.2498 9.0818 55.0308 8.41014 55.9966 8.41014C56.4782 8.41014 56.8697 8.57016 57.1276 8.87207C57.387 9.17708 57.4896 9.60276 57.4145 10.0719ZM61.7779 3.74424L60.3243 12.9921C60.3176 13.0342 60.3202 13.0772 60.3318 13.1182C60.3433 13.1592 60.3636 13.1972 60.3913 13.2296C60.419 13.262 60.4533 13.288 60.492 13.3058C60.5307 13.3237 60.5728 13.3329 60.6154 13.3329H62.0767C62.3196 13.3329 62.5257 13.1568 62.563 12.9171L63.9964 3.8359C64.0031 3.7938 64.0006 3.75077 63.989 3.70975C63.9774 3.66873 63.9571 3.6307 63.9295 3.59827C63.9018 3.56584 63.8675 3.53979 63.8288 3.5219C63.7901 3.50401 63.748 3.4947 63.7054 3.49463H62.069C61.9987 3.49488 61.9308 3.52013 61.8775 3.56587C61.8242 3.61161 61.7889 3.67484 61.7779 3.74424Z" fill="#179BD7"/>
<path d="M3.76311 15.0976L4.03395 13.3773L3.43065 13.3633H0.549805L2.55184 0.669062C2.5578 0.630275 2.5775 0.594922 2.60735 0.569446C2.6372 0.54397 2.67521 0.530069 2.71445 0.530276H7.57196C9.18457 0.530276 10.2974 0.865848 10.8785 1.52819C11.1509 1.8389 11.3244 2.1636 11.4083 2.52092C11.4963 2.89585 11.5865 3.12756 11.5005 3.6739H11.6781L12.0005 4V4.5C12.2084 4.60535 12.0729 4.68227 12.2296 4.85491C12.4626 5.12057 12.6133 5.45821 12.677 5.85852C12.7428 6.27021 12.721 6.76011 12.6133 7.31473C12.489 7.95273 12.2881 8.5084 12.0167 8.96308C11.7773 9.37039 11.4554 9.72318 11.0716 9.99879C10.7112 10.2546 10.2829 10.4488 9.79875 10.5731C9.32957 10.6953 8.79462 10.7569 8.20789 10.7569H7.82985C7.55953 10.7569 7.29698 10.8543 7.09087 11.0288C6.88505 11.2052 6.74852 11.4489 6.70558 11.7165L6.6771 11.8714L6.1986 14.9034L6.17685 15.0148C6.17115 15.05 6.16131 15.0676 6.14681 15.0795C6.13277 15.091 6.11524 15.0974 6.0971 15.0976H3.76311Z" fill="#253B80"/>
<path d="M11.936 3.97021C11.9215 4.06291 11.9049 4.15768 11.8863 4.25504C11.2457 7.54395 9.0541 8.68013 6.25508 8.68013H4.82993C4.48763 8.68013 4.19918 8.92871 4.14584 9.26635L3.41618 13.8939L3.20956 15.2057C3.20132 15.2577 3.20447 15.3109 3.21877 15.3616C3.23307 15.4123 3.25818 15.4593 3.29239 15.4994C3.3266 15.5394 3.36908 15.5716 3.41691 15.5937C3.46474 15.6157 3.51679 15.6272 3.56947 15.6272H6.09713C6.39645 15.6272 6.65072 15.4097 6.69785 15.1145L6.7227 14.9861L7.19862 11.9659L7.22917 11.8002C7.27578 11.504 7.53056 11.2865 7.82989 11.2865H8.20792C10.6569 11.2865 12.574 10.2922 13.1343 7.41501C13.3684 6.21306 13.2472 5.20945 12.6278 4.50361C12.4315 4.28526 12.1971 4.10451 11.936 3.97021Z" fill="#179BD7"/>
<path d="M4.97864 3.98699C5.0007 3.84377 5.07341 3.71322 5.18354 3.61905C5.29367 3.52488 5.43393 3.47334 5.57884 3.47379H9.38613C9.83718 3.47379 10.2582 3.50331 10.6425 3.56545C10.9025 3.60632 11.1589 3.66744 11.4094 3.74826C11.5984 3.81092 11.774 3.88497 11.9361 3.97042C12.1266 2.755 11.9345 1.92747 11.2773 1.17813C10.5529 0.353179 9.24527 0 7.57207 0H2.71456C2.37278 0 2.08122 0.248572 2.0284 0.586733L0.00513182 13.4115C-0.00429224 13.471 -0.000706703 13.5319 0.0156418 13.5899C0.0319903 13.648 0.0607137 13.7018 0.0998363 13.7476C0.138959 13.7935 0.187552 13.8303 0.242273 13.8556C0.296995 13.8809 0.356545 13.894 0.416829 13.8941H3.41574L4.16871 9.11689L4.97864 3.98699Z" fill="white"/>
</svg>
