<svg width="27" height="30" viewBox="0 0 27 30" fill="none" xmlns="http://www.w3.org/2000/svg">
<path d="M25.915 14.0388C25.156 11.7424 23.8049 9.72152 21.9932 8.21626L19.7739 6.3268L17.6431 4.34951L15.5779 2.31723L13.5899 0.197796C13.4686 0.065038 13.3043 0 13.1279 0C12.9523 0 12.788 0.0764366 12.6673 0.197796L12.4031 0.482757C11.4584 1.48247 10.6129 2.39434 9.71244 3.29549C7.943 5.07431 6.06494 6.70027 4.29617 8.21626C2.4617 9.74365 1.09992 11.7652 0.352315 14.0388C-0.723831 17.6086 0.726452 21.5082 3.8684 23.5183C4.82385 24.0896 5.87787 24.3645 6.93323 24.3645C8.25076 24.3645 9.56895 23.9246 10.6786 23.057C10.7993 22.9585 10.975 22.9471 11.1064 23.0356C11.2392 23.1227 11.3042 23.2769 11.272 23.4298C10.8871 25.0343 10.2938 26.7146 9.50324 28.4284C9.34903 28.7576 9.38255 29.1317 9.59175 29.4609C9.80027 29.7901 10.1731 30 10.5358 30H15.765C16.1157 30 16.457 29.8022 16.6769 29.4609C16.8854 29.1317 16.9183 28.7576 16.7647 28.4284C15.9843 26.7146 15.3909 25.0343 14.9953 23.4298C14.9624 23.2769 15.0174 23.1227 15.1602 23.0356C15.2923 22.9471 15.468 22.9585 15.5887 23.057C16.6876 23.9246 18.0058 24.3645 19.3347 24.3645C20.3894 24.3645 21.4542 24.0789 22.411 23.5183C25.5408 21.5082 26.9797 17.6086 25.915 14.0388Z" fill="#FFF"/>
</svg>
