<svg width="34" height="29" viewBox="0 0 34 29" fill="none" xmlns="http://www.w3.org/2000/svg">
<path d="M29.9828 4.95364C27.6972 4.49114 24.0118 3.86566 22.9821 6.01728C19.8354 11.4677 18.0288 17.1721 16.6689 19.6196C16.8118 19.7021 23.0795 23.3385 23.5228 23.5536C24.9319 24.2374 27.2844 23.9297 28.2865 22.1222C31.0666 17.1081 30.3599 18.4135 33.3139 13.2973C35.2227 9.99107 32.8361 5.53089 29.9828 4.95364Z" fill="#EA4335"/>
<path d="M10.2074 27.0813C8.67263 25.3255 7.54679 21.8128 8.89538 19.8455C12.8351 13.0216 15.9888 8.89068 18.4692 4.75C19.7844 5.5094 25.0542 8.4986 25.4051 8.80659C26.5825 9.83942 27.5579 11.8129 26.4937 13.5846C23.5413 18.4993 22.3299 20.7235 19.3292 25.9211C17.4199 29.2282 12.1248 29.2748 10.2074 27.0813Z" fill="#FDBD00"/>
<path d="M24.3383 1.47557C21.268 -0.318525 19.6899 -0.0833915 18.0388 0.181403C16.5377 0.556637 14.508 1.64749 13.6525 3.04893C11.4941 6.58414 9.44971 10.0823 6.80133 14.8229C5.98564 16.2829 6.59111 18.0767 7.34388 18.7886C7.85403 19.2713 11.6077 21.3422 12.3003 21.64C13.28 22.0612 14.7475 21.7682 15.6327 20.857C15.8772 20.6053 21.4769 10.987 23.0539 8.15016C23.7196 6.95304 24.3191 6.29055 25.3145 5.65196C27.2375 4.64289 28.7388 4.51272 31.0385 5.35361C31.0385 5.35361 26.0334 2.45253 24.3383 1.47557Z" fill="#2DA94F"/>
<path d="M4.58362 24.0484C1.49464 22.2865 0.909181 20.8023 0.312925 19.2399C-0.112561 17.7525 -0.182684 15.4493 0.603206 14.0073C2.58578 10.3708 2.57153 10.3523 5.35281 5.68841C6.2094 4.25198 8.0657 3.87949 9.05864 4.17538C9.73164 4.37581 13.4019 6.59108 14.0061 7.04205C14.8608 7.67992 15.3407 9.09734 14.9943 10.3197C14.8985 10.6572 11.39 16.8147 9.72185 19.599C9.01775 20.7739 8.74388 21.6243 8.68859 22.8056C8.77614 24.9755 9.414 26.3408 11.2922 27.912C11.2922 27.912 6.27722 25.0279 4.58362 24.0484Z" fill="#297AEC"/>
</svg>
