<svg width="15" height="16" viewBox="0 0 15 16" fill="none" xmlns="http://www.w3.org/2000/svg">
<path d="M0.997354 3.33263C1.49719 3.83247 2.27326 3.88702 2.83389 3.49705L2.38274 3.94822C1.78236 4.5486 1.7756 5.5173 2.36159 6.12653L5.82483 2.6632C5.21563 2.07723 4.24696 2.08403 3.64658 2.68438L3.19544 3.13552C3.58541 2.5749 3.53086 1.79882 3.03103 1.29899L2.45481 0.722808C1.89322 0.161245 0.982734 0.161245 0.421172 0.722808C-0.140391 1.28437 -0.140391 2.19489 0.421172 2.75645L0.997354 3.33263Z" fill="#FF0052"/>
<path d="M12.315 7.04667L8.25429 2.98597C7.83737 2.56905 7.16138 2.56905 6.74445 2.98597L2.68379 7.04672C2.26686 7.46365 2.26686 8.13961 2.68379 8.55654L6.74445 12.6172C7.16138 13.0341 7.83734 13.0341 8.25427 12.6172L12.315 8.55648C12.7319 8.13956 12.7319 7.46359 12.315 7.04667ZM7.66341 4.37555L8.28488 4.99703L7.39941 5.8825L6.77794 5.26102L7.66341 4.37555ZM4.07334 7.96562L4.95881 7.08015L5.58028 7.70163L4.69481 8.58709L4.07334 7.96562ZM5.39366 9.28594L6.27913 8.40047L6.9006 9.02195L6.01513 9.90742L5.39366 9.28594ZM7.33546 11.2277L6.71398 10.6063L7.59945 9.7208L8.22093 10.3423L7.33546 11.2277ZM8.09826 6.58134L8.98373 5.69587L9.6052 6.31735L8.71974 7.20282L8.09826 6.58134ZM10.0401 8.52314L9.41858 7.90167L10.304 7.0162L10.9255 7.63767L10.0401 8.52314Z" fill="#FF0052"/>
<path d="M12.6179 3.94819L12.1668 3.49705C12.7274 3.88699 13.5035 3.83247 14.0033 3.33263L14.5795 2.75645C15.1411 2.19486 15.1411 1.28437 14.5795 0.722808C14.0179 0.161245 13.1074 0.161245 12.5459 0.722808L11.9697 1.29899C11.4698 1.79885 11.4153 2.5749 11.8053 3.13552L11.3541 2.68435C10.7537 2.08397 9.78501 2.0772 9.17578 2.66323L12.6391 6.1265C13.2251 5.51727 13.2183 4.54857 12.6179 3.94819Z" fill="#FF0052"/>
<path d="M14.0033 12.2706C13.5035 11.7708 12.7274 11.7162 12.1668 12.1062L12.618 11.6551C13.2184 11.0546 13.2251 10.0859 12.639 9.47668L9.17578 12.94C9.78498 13.526 10.7537 13.5193 11.3542 12.9189L11.8053 12.4677C11.4153 13.0284 11.4699 13.8044 11.9697 14.3043L12.5459 14.8805C13.1075 15.442 14.018 15.442 14.5795 14.8805C15.1411 14.3189 15.1411 13.4084 14.5795 12.8468L14.0033 12.2706Z" fill="#FF0052"/>
<path d="M2.38274 11.6551L2.83389 12.1062C2.27326 11.7162 1.49719 11.7708 0.997353 12.2706L0.421172 12.8468C-0.140391 13.4084 -0.140391 14.3189 0.421172 14.8804C0.982734 15.442 1.89325 15.442 2.45481 14.8804L3.031 14.3043C3.53083 13.8044 3.58538 13.0283 3.19541 12.4677L3.64655 12.9189C4.24693 13.5192 5.21563 13.526 5.82486 12.94L2.36162 9.47675C1.7756 10.086 1.78236 11.0547 2.38274 11.6551Z" fill="#FF0052"/>
</svg>
