<svg width="60" height="60" viewBox="0 0 60 60" fill="none" xmlns="http://www.w3.org/2000/svg">
<path d="M30 0C24.0666 0 18.2664 1.75947 13.3329 5.05591C8.39943 8.35235 4.55426 13.0377 2.28363 18.5195C0.0129986 24.0013 -0.581101 30.0333 0.576455 35.8527C1.73401 41.6721 4.59123 47.0176 8.78681 51.2132C12.9824 55.4088 18.3279 58.266 24.1473 59.4235C29.9667 60.5811 35.9987 59.987 41.4805 57.7164C46.9623 55.4457 51.6476 51.6006 54.9441 46.6671C58.2405 41.7336 60 35.9334 60 30C59.9906 22.0464 56.8269 14.4212 51.2028 8.79717C45.5788 3.17312 37.9536 0.00939774 30 0ZM55.9104 20.5188C56.3106 21.7418 56.6134 22.9944 56.8159 24.2651C56.9698 25.1351 57.0468 25.5968 57.0468 25.5968V25.5198C57.0941 25.8039 57.1355 26.1117 57.171 26.3839H51.6788V33.6634H57.177C56.5538 38.4005 54.6965 42.8906 51.7913 46.6838L47.9029 42.7895L42.754 47.9384L46.6483 51.8268C42.8551 54.732 38.365 56.5893 33.6279 57.2125V51.6788H26.3602V57.1769C26.1294 57.1769 25.9045 57.1237 25.6737 57.0822H25.7151L24.3835 56.8574C23.1184 56.6531 21.8716 56.3484 20.655 55.9459C18.7575 55.3136 16.9355 54.474 15.2219 53.4425C12.966 52.1196 10.9228 50.4635 9.16158 48.5303C4.659 43.6499 2.06435 37.3114 1.85245 30.6747C1.73327 26.9322 2.36307 23.2037 3.70489 19.708C5.11098 16.1025 7.23526 12.8205 9.94872 10.0612C12.6427 7.36293 15.8585 5.24232 19.3996 3.8289C22.9408 2.41548 26.733 1.73894 30.5445 1.8406C32.317 1.88882 34.0809 2.10683 35.8118 2.49162C37.4731 2.85848 39.0961 3.38162 40.6589 4.05405C43.5201 5.26955 46.1538 6.96264 48.4474 9.06096C50.3827 10.816 52.0445 12.8507 53.3774 15.0976C54.4169 16.8069 55.2663 18.6248 55.9104 20.5188Z" fill="#FF0052"/>
<path d="M38.9073 42.9197C38.6291 43.1268 38.2266 43.3399 37.836 43.5826C37.4788 43.8045 37.1071 44.0022 36.7234 44.1744L36.2085 44.423L37.1318 46.5536L37.7236 46.2695C38.1636 46.0632 38.5906 45.8299 39.0019 45.5711C39.4458 45.2929 39.9075 45.0385 40.227 44.8076L40.7479 44.4111L39.363 42.5528L38.9073 42.9197Z" fill="#FF0052"/>
<path d="M43.3752 38.1791C43.17 38.5441 42.9365 38.8924 42.6768 39.2207C42.3181 39.7211 41.9224 40.1939 41.4932 40.6352L43.2036 42.2095C43.6874 41.703 44.1325 41.161 44.5352 40.5879C44.8311 40.2129 45.1001 39.8173 45.3401 39.4042L45.6774 38.8124L43.677 37.6879L43.3752 38.1791Z" fill="#FF0052"/>
<path d="M47.1036 35.6402C47.1634 35.4919 47.2129 35.3396 47.2516 35.1844C47.3463 34.8057 47.4765 34.2967 47.6126 33.7877C47.7487 33.2787 47.7783 32.752 47.8434 32.3614L47.9144 31.8939C47.9188 31.8328 47.9188 31.7715 47.9144 31.7104L45.6004 31.4914C45.6032 31.5446 45.6032 31.598 45.6004 31.6512C45.6004 31.7518 45.5649 31.8939 45.5353 32.0596C45.4761 32.3969 45.4287 32.8526 45.3341 33.3024C45.2394 33.7522 45.1032 34.1902 45.0204 34.5216C44.9879 34.6552 44.9443 34.7858 44.8902 34.9122L44.8369 35.0602L47.0385 35.8118L47.1036 35.6402Z" fill="#FF0052"/>
<path d="M17.95 43.3754L18.5418 43.8962L19.0745 44.2987L19.6012 44.6952L20.9447 42.8013L20.489 42.4581L20.0214 42.1089L19.5302 41.6532C19.2089 41.382 18.9064 41.0894 18.6247 40.7773L18.24 40.3511L16.5 41.8899L16.938 42.3752C17.2541 42.7294 17.5921 43.0634 17.95 43.3754Z" fill="#FF0052"/>
<path d="M23.9575 44.494C23.6438 44.3579 23.4426 44.2513 23.4426 44.2513L22.4897 46.3582C22.4897 46.3582 22.7265 46.4825 23.0816 46.6364L24.4369 47.1335C24.934 47.3052 25.4489 47.4058 25.8277 47.5123C26.2065 47.6188 26.4669 47.6662 26.4669 47.6662L26.9226 45.3936L26.3662 45.2574C26.0407 45.1627 25.585 45.074 25.1826 44.926L23.9575 44.494Z" fill="#FF0052"/>
<path d="M31.6039 45.6185L30.3433 45.6776C30.1463 45.6926 29.9485 45.6926 29.7515 45.6776V47.9976C29.9701 48.014 30.1897 48.014 30.4084 47.9976L31.8347 47.9384L33.261 47.7254C33.479 47.6983 33.6947 47.6547 33.9061 47.5952L33.4031 45.3285C33.2212 45.3819 33.0351 45.4196 32.8467 45.4409L31.6039 45.6185Z" fill="#FF0052"/>
<path d="M15.2042 24.7919C15.3335 24.389 15.4856 23.9938 15.6599 23.6082L16.2103 22.4896L16.5062 21.9984L14.5117 20.8148L14.1685 21.377L13.5411 22.6731C13.3446 23.1117 13.1708 23.5601 13.0203 24.0166L12.7954 24.638L15.0089 25.3245C15.0089 25.3245 15.0858 25.1115 15.2042 24.7919Z" fill="#FF0052"/>
<path d="M12.0496 28.55C12.0496 28.9406 12.0022 29.4673 11.9726 29.9941C11.943 30.5208 12.0259 31.0416 12.0437 31.4322C12.0482 31.6503 12.068 31.8679 12.1028 32.0832L14.411 31.8228C14.3762 31.6275 14.3584 31.4294 14.3577 31.231C14.3577 30.8877 14.3222 30.432 14.2985 29.9763L14.3636 28.7157C14.3601 28.5174 14.3759 28.3191 14.411 28.1239L12.1088 27.8576C12.0678 28.0861 12.048 28.3179 12.0496 28.55Z" fill="#FF0052"/>
<path d="M13.5231 37.2855C13.7479 37.7589 13.9788 38.2324 14.1504 38.5875L14.4877 39.1793L16.4881 37.9957L16.1922 37.5104C16.0383 37.2026 15.843 36.7883 15.6418 36.374C15.4406 35.9597 15.3163 35.5218 15.1861 35.1904L14.9967 34.6518L12.7773 35.3383C12.7773 35.3383 12.8661 35.581 12.9963 35.9302C13.1265 36.2793 13.2863 36.8179 13.5231 37.2855Z" fill="#FF0052"/>
<path d="M31.8758 12.0793L30.4377 12.0024C30.2189 11.9883 29.9995 11.9883 29.7808 12.0024V14.3223C29.9777 14.307 30.1756 14.307 30.3726 14.3223L31.6332 14.3874L32.876 14.5768C33.0651 14.5971 33.2515 14.6368 33.4324 14.6952L33.9473 12.4285C33.7386 12.3658 33.5247 12.3222 33.3081 12.2983L31.8758 12.0793Z" fill="#FF0052"/>
<path d="M23.9693 15.5001C24.2948 15.3876 24.721 15.2279 25.153 15.0681C25.585 14.9083 26.0348 14.8372 26.3367 14.7426L26.7391 14.636C26.7889 14.6194 26.8406 14.6094 26.893 14.6064L26.4373 12.3279C26.3773 12.3352 26.3179 12.347 26.2597 12.3634L25.7981 12.4817C25.4193 12.5883 24.9044 12.6889 24.4073 12.8605L23.0816 13.3577C22.7146 13.5115 22.4897 13.6358 22.4897 13.6358L23.4604 15.7427C23.4604 15.7427 23.6734 15.6362 23.9693 15.5001Z" fill="#FF0052"/>
<path d="M16.9439 17.5952L16.5 18.0805L18.24 19.6193L18.6247 19.1931C18.9088 18.8927 19.2112 18.61 19.5302 18.3468L20.0273 17.897L20.5008 17.5419L20.9565 17.1987L19.619 15.3048L19.0922 15.6954L18.5537 16.1038L17.9618 16.6187C17.6054 16.9258 17.2655 17.2518 16.9439 17.5952Z" fill="#FF0052"/>
<path d="M47.9384 28.1476L47.8674 27.68C47.8023 27.2894 47.7431 26.7686 47.6366 26.2537C47.5301 25.7388 47.3466 25.2357 47.2637 24.857C47.225 24.7018 47.1756 24.5496 47.1158 24.4013L47.0566 24.2296L44.855 24.9753L44.9142 25.1233C44.966 25.25 45.0075 25.3806 45.0384 25.5139C45.1213 25.8513 45.2338 26.2892 45.3521 26.7331C45.4705 27.177 45.4882 27.6386 45.5474 27.9759C45.577 28.1476 45.5948 28.2896 45.6125 28.3843V28.5441L47.9384 28.331C47.9384 28.331 47.9384 28.2659 47.9384 28.1476Z" fill="#FF0052"/>
<path d="M44.5649 19.4239C44.1604 18.8522 43.7154 18.3103 43.2333 17.8023L41.5288 19.3766C41.958 19.818 42.3537 20.2908 42.7125 20.7911C42.9703 21.1229 43.2037 21.473 43.4108 21.8386L43.7068 22.3239L45.7308 21.1876L45.3876 20.6254C45.1429 20.2054 44.8679 19.8039 44.5649 19.4239Z" fill="#FF0052"/>
<path d="M38.937 17.104L39.3927 17.4472L40.7835 15.5889C40.7835 15.5889 40.5764 15.4291 40.2568 15.1983C39.9372 14.9674 39.4815 14.707 39.0376 14.4289C38.6261 14.1772 38.1992 13.9519 37.7592 13.7542L37.1674 13.4701L36.2441 15.6007L36.759 15.8493C37.1427 16.0215 37.5144 16.2192 37.8717 16.4411C38.2564 16.6778 38.6647 16.8909 38.937 17.104Z" fill="#FF0052"/>
<path d="M33.6396 3.551C32.5909 3.41993 31.536 3.34486 30.4793 3.3261C29.0929 3.31645 27.7079 3.4134 26.3364 3.6161V8.2975H33.616L33.6396 3.551Z" fill="white"/>
<path d="M46.2576 8.59933L42.7539 12.0971L47.9029 17.246L51.4894 13.6417C50.3904 12.2369 49.1488 10.9497 47.7845 9.80075C47.311 9.38646 46.7902 8.98994 46.2576 8.59933Z" fill="#FF0052"/>
<path d="M8.59912 46.2576C9.0134 46.8495 9.45136 47.3821 9.89523 47.9029C11.0194 49.2221 12.2746 50.4238 13.6415 51.4894L17.2458 47.8911L12.0969 42.7421L8.59912 46.2576Z" fill="white"/>
<path d="M3.35567 30.6392C3.36691 31.6421 3.4321 32.6438 3.55097 33.6398H8.28563V26.3602H3.64566C3.43682 27.7767 3.33986 29.2075 3.35567 30.6392Z" fill="white"/>
<path d="M17.2462 12.0971L13.9675 8.8183C12.9783 9.56007 12.0428 10.3709 11.1681 11.2448C10.3192 12.0923 9.52835 12.9959 8.80078 13.9495L12.0736 17.2282L17.2462 12.0971Z" fill="white"/>
<path d="M50.8563 28.331C50.3857 23.0572 47.8785 18.1744 43.8668 14.7189C42.3124 13.3477 40.5428 12.242 38.6291 11.446C38.2301 11.2522 37.8165 11.0899 37.3921 10.9607L36.2085 10.5701C35.4391 10.3689 34.723 10.2328 34.0897 10.0848L32.3142 9.88361C31.889 9.85015 31.4623 9.8383 31.0358 9.8481H29.9646L31.0299 9.94871C31.3732 9.99606 31.8111 9.99606 32.3024 10.0967L33.9891 10.4222C34.5809 10.6056 35.303 10.7891 36.0368 11.014L37.1554 11.4697C37.5631 11.6212 37.9587 11.8032 38.3391 12.0142C40.1246 12.8965 41.7651 14.0461 43.2039 15.4232C44.8973 17.0344 46.2989 18.9266 47.3467 21.016C48.4976 23.3378 49.1794 25.8638 49.3531 28.4494L49.3945 29.4614V29.9704V30.4557L49.3294 31.521L49.2939 32.0537L49.211 32.5508C49.1214 33.2277 48.987 33.898 48.8086 34.5571C48.6608 35.2376 48.463 35.9062 48.2167 36.5575C47.2586 39.1457 45.7667 41.5033 43.8379 43.4771C41.909 45.451 39.5865 46.9969 37.0211 48.0145C34.4557 49.032 31.705 49.4984 28.9475 49.3834C26.1901 49.2683 23.4878 48.5744 21.0161 47.3466C17.1251 45.3951 13.9634 42.2459 11.9966 38.3626C11.7856 37.9823 11.6036 37.5866 11.4521 37.1789C11.2923 36.7883 11.1443 36.4155 10.9964 36.0604C10.7537 35.3265 10.5762 34.634 10.4046 34.0126C10.2329 33.3912 10.1737 32.829 10.079 32.32C9.98436 31.811 9.97844 31.3967 9.93109 31.0535L9.83048 29.9882C9.83048 29.9882 9.83048 30.361 9.83048 31.0594C9.82067 31.4878 9.83252 31.9164 9.86599 32.3437C9.92517 32.8526 9.99027 33.4326 10.0672 34.0836C10.1442 34.7347 10.3513 35.433 10.5525 36.2024L10.9431 37.3861C11.0687 37.8117 11.231 38.2256 11.4284 38.623C12.2233 40.5391 13.3291 42.3108 14.7013 43.8666C18.17 47.8861 23.0713 50.3919 28.3608 50.8503C31.3281 51.1189 34.3184 50.7414 37.1258 49.7435C40.044 48.7243 42.6946 47.0599 44.8803 44.8742C47.066 42.6885 48.7304 40.0379 49.7496 37.1197C50.0176 36.4025 50.2332 35.6666 50.3947 34.9181C50.5756 34.1802 50.7061 33.4307 50.7853 32.6751C50.8772 31.9566 50.9266 31.2333 50.9333 30.509V29.9171V29.3727C50.8977 29.0531 50.8977 28.692 50.8563 28.331Z" fill="white"/>
<path d="M15.7666 30C15.7666 32.8093 16.5997 35.5555 18.1604 37.8913C19.7212 40.2271 21.9395 42.0477 24.535 43.1228C27.1304 44.1978 29.9863 44.4791 32.7416 43.931C35.4969 43.383 38.0279 42.0302 40.0143 40.0437C42.0008 38.0573 43.3536 35.5264 43.9016 32.7711C44.4497 30.0158 44.1684 27.1598 43.0934 24.5644C42.0183 21.9689 40.1977 19.7506 37.8619 18.1898C35.5261 16.6291 32.7799 15.796 29.9706 15.796C26.2073 15.8085 22.6017 17.309 19.9406 19.9701C17.2796 22.6311 15.7791 26.2367 15.7666 30ZM43.3756 30C43.3756 32.6454 42.5911 35.2314 41.1214 37.431C39.6517 39.6306 37.5628 41.3449 35.1187 42.3573C32.6747 43.3696 29.9853 43.6345 27.3908 43.1184C24.7962 42.6023 22.4129 41.3284 20.5423 39.4578C18.6717 37.5873 17.3979 35.204 16.8818 32.6094C16.3657 30.0148 16.6305 27.3255 17.6429 24.8814C18.6553 22.4374 20.3696 20.3485 22.5692 18.8787C24.7688 17.409 27.3548 16.6246 30.0002 16.6246C31.7567 16.6246 33.4959 16.9705 35.1187 17.6427C36.7415 18.3149 38.216 19.3001 39.458 20.5421C40.7 21.7842 41.6853 23.2587 42.3575 24.8814C43.0296 26.5042 43.3756 28.2435 43.3756 30Z" fill="white"/>
<path d="M20.5186 31.3967C20.5186 34.0067 22.1934 35.8946 24.7028 35.8946C26.1821 35.9031 27.6158 35.3826 28.745 34.4269C28.745 36.522 26.8985 39.0965 26.8985 39.0965H33.1009C33.1009 39.0965 31.2544 36.522 31.2544 34.4269C32.3837 35.3826 33.8173 35.9031 35.2966 35.8946C37.8119 35.8946 39.4809 34.0067 39.4809 31.3967C39.4809 25.9578 32.0238 23.7917 30.0115 19.5601C27.9756 23.7917 20.5186 25.9578 20.5186 31.3967Z" fill="#FF0052"/>
</svg>
