<svg width="213" height="60" viewBox="0 0 213 60" fill="none" xmlns="http://www.w3.org/2000/svg">
<path d="M30 0C24.0666 0 18.2664 1.75947 13.3329 5.05591C8.39943 8.35235 4.55426 13.0377 2.28363 18.5195C0.0129986 24.0013 -0.581101 30.0333 0.576455 35.8527C1.73401 41.6721 4.59123 47.0176 8.78681 51.2132C12.9824 55.4088 18.3279 58.266 24.1473 59.4235C29.9667 60.5811 35.9987 59.987 41.4805 57.7164C46.9623 55.4457 51.6476 51.6006 54.9441 46.6671C58.2405 41.7336 60 35.9334 60 30C59.9906 22.0464 56.8269 14.4212 51.2028 8.79717C45.5788 3.17312 37.9536 0.00939774 30 0ZM55.9104 20.5188C56.3106 21.7418 56.6134 22.9944 56.8159 24.2651C56.9698 25.1351 57.0468 25.5968 57.0468 25.5968V25.5198C57.0941 25.8039 57.1355 26.1117 57.171 26.3839H51.6788V33.6634H57.177C56.5538 38.4005 54.6965 42.8906 51.7913 46.6838L47.9029 42.7895L42.754 47.9384L46.6483 51.8268C42.8551 54.732 38.365 56.5893 33.6279 57.2125V51.6788H26.3602V57.1769C26.1294 57.1769 25.9045 57.1237 25.6737 57.0822H25.7151L24.3835 56.8574C23.1184 56.6531 21.8716 56.3484 20.655 55.9459C18.7575 55.3136 16.9355 54.474 15.2219 53.4425C12.966 52.1196 10.9228 50.4635 9.16158 48.5303C4.659 43.6499 2.06435 37.3114 1.85245 30.6747C1.73327 26.9322 2.36307 23.2037 3.70489 19.708C5.11098 16.1025 7.23526 12.8205 9.94872 10.0612C12.6427 7.36293 15.8585 5.24232 19.3996 3.8289C22.9408 2.41548 26.733 1.73894 30.5445 1.8406C32.317 1.88882 34.0809 2.10683 35.8118 2.49162C37.4731 2.85848 39.0961 3.38162 40.6589 4.05405C43.5201 5.26955 46.1538 6.96264 48.4474 9.06096C50.3827 10.816 52.0445 12.8507 53.3774 15.0976C54.4169 16.8069 55.2663 18.6248 55.9104 20.5188Z" fill="#FF0052"/>
<path d="M38.9068 42.9197C38.6286 43.1268 38.2262 43.3399 37.8355 43.5826C37.4783 43.8045 37.1066 44.0022 36.7229 44.1744L36.208 44.423L37.1313 46.5536L37.7231 46.2695C38.1632 46.0632 38.5901 45.8299 39.0015 45.5711C39.4453 45.2929 39.907 45.0385 40.2266 44.8076L40.7474 44.4111L39.3625 42.5528L38.9068 42.9197Z" fill="#FF0052"/>
<path d="M43.3752 38.1791C43.17 38.5441 42.9365 38.8924 42.6768 39.2207C42.3181 39.7211 41.9224 40.1939 41.4932 40.6352L43.2036 42.2095C43.6874 41.703 44.1325 41.161 44.5352 40.5879C44.8311 40.2129 45.1001 39.8173 45.3401 39.4042L45.6774 38.8124L43.677 37.6879L43.3752 38.1791Z" fill="#FF0052"/>
<path d="M47.1036 35.6402C47.1634 35.4919 47.2129 35.3396 47.2516 35.1844C47.3463 34.8057 47.4765 34.2967 47.6126 33.7877C47.7487 33.2787 47.7783 32.752 47.8434 32.3614L47.9144 31.8939C47.9188 31.8328 47.9188 31.7715 47.9144 31.7104L45.6004 31.4914C45.6032 31.5446 45.6032 31.598 45.6004 31.6512C45.6004 31.7518 45.5649 31.8939 45.5353 32.0596C45.4761 32.3969 45.4287 32.8526 45.3341 33.3024C45.2394 33.7522 45.1032 34.1902 45.0204 34.5216C44.9879 34.6552 44.9443 34.7858 44.8902 34.9122L44.8369 35.0602L47.0385 35.8118L47.1036 35.6402Z" fill="#FF0052"/>
<path d="M17.95 43.3754L18.5418 43.8962L19.0745 44.2987L19.6012 44.6952L20.9447 42.8013L20.489 42.4581L20.0214 42.1089L19.5302 41.6532C19.2089 41.382 18.9064 41.0894 18.6247 40.7773L18.24 40.3511L16.5 41.8899L16.938 42.3752C17.2541 42.7294 17.5921 43.0634 17.95 43.3754Z" fill="#FF0052"/>
<path d="M23.957 44.494C23.6433 44.3579 23.4421 44.2513 23.4421 44.2513L22.4893 46.3582C22.4893 46.3582 22.726 46.4825 23.0811 46.6364L24.4364 47.1335C24.9335 47.3052 25.4484 47.4058 25.8272 47.5123C26.206 47.6188 26.4664 47.6662 26.4664 47.6662L26.9221 45.3936L26.3658 45.2574C26.0403 45.1627 25.5845 45.074 25.1821 44.926L23.957 44.494Z" fill="#FF0052"/>
<path d="M31.6034 45.6185L30.3428 45.6776C30.1458 45.6926 29.948 45.6926 29.751 45.6776V47.9976C29.9696 48.014 30.1892 48.014 30.4079 47.9976L31.8342 47.9384L33.2605 47.7254C33.4785 47.6983 33.6942 47.6547 33.9056 47.5952L33.4026 45.3285C33.2207 45.3819 33.0346 45.4196 32.8463 45.4409L31.6034 45.6185Z" fill="#FF0052"/>
<path d="M15.2047 24.7919C15.3339 24.389 15.4861 23.9938 15.6604 23.6082L16.2108 22.4896L16.5067 21.9984L14.5122 20.8148L14.1689 21.377L13.5416 22.6731C13.3451 23.1117 13.1713 23.5601 13.0208 24.0166L12.7959 24.638L15.0094 25.3245C15.0094 25.3245 15.0863 25.1115 15.2047 24.7919Z" fill="#FF0052"/>
<path d="M12.0501 28.55C12.0501 28.9406 12.0027 29.4673 11.9731 29.9941C11.9435 30.5208 12.0264 31.0416 12.0441 31.4322C12.0487 31.6503 12.0685 31.8679 12.1033 32.0832L14.4115 31.8228C14.3767 31.6275 14.3589 31.4294 14.3582 31.231C14.3582 30.8877 14.3227 30.432 14.299 29.9763L14.3641 28.7157C14.3606 28.5174 14.3764 28.3191 14.4115 28.1239L12.1092 27.8576C12.0683 28.0861 12.0485 28.3179 12.0501 28.55Z" fill="#FF0052"/>
<path d="M13.5231 37.2855C13.7479 37.7589 13.9788 38.2324 14.1504 38.5875L14.4877 39.1793L16.4881 37.9957L16.1922 37.5104C16.0383 37.2026 15.843 36.7883 15.6418 36.374C15.4406 35.9597 15.3163 35.5218 15.1861 35.1904L14.9967 34.6518L12.7773 35.3383C12.7773 35.3383 12.8661 35.581 12.9963 35.9302C13.1265 36.2793 13.2863 36.8179 13.5231 37.2855Z" fill="#FF0052"/>
<path d="M31.8763 12.0793L30.4382 12.0024C30.2194 11.9883 30 11.9883 29.7812 12.0024V14.3223C29.9782 14.307 30.1761 14.307 30.3731 14.3223L31.6337 14.3874L32.8765 14.5768C33.0655 14.5971 33.252 14.6368 33.4329 14.6952L33.9478 12.4285C33.7391 12.3658 33.5251 12.3222 33.3086 12.2983L31.8763 12.0793Z" fill="#FF0052"/>
<path d="M23.9688 15.5001C24.2943 15.3876 24.7205 15.2279 25.1525 15.0681C25.5845 14.9083 26.0343 14.8372 26.3362 14.7426L26.7386 14.636C26.7884 14.6194 26.8401 14.6094 26.8925 14.6064L26.4368 12.3279C26.3768 12.3352 26.3174 12.347 26.2592 12.3634L25.7976 12.4817C25.4188 12.5883 24.9039 12.6889 24.4068 12.8605L23.0811 13.3577C22.7142 13.5115 22.4893 13.6358 22.4893 13.6358L23.4599 15.7427C23.4599 15.7427 23.6729 15.6362 23.9688 15.5001Z" fill="#FF0052"/>
<path d="M16.9439 17.5952L16.5 18.0805L18.24 19.6193L18.6247 19.1931C18.9088 18.8927 19.2112 18.61 19.5302 18.3468L20.0273 17.897L20.5008 17.5419L20.9565 17.1987L19.619 15.3048L19.0922 15.6954L18.5537 16.1038L17.9618 16.6187C17.6054 16.9258 17.2655 17.2518 16.9439 17.5952Z" fill="#FF0052"/>
<path d="M47.9389 28.1476L47.8679 27.68C47.8028 27.2894 47.7436 26.7686 47.6371 26.2537C47.5306 25.7388 47.3471 25.2357 47.2642 24.857C47.2255 24.7018 47.1761 24.5496 47.1163 24.4013L47.0571 24.2296L44.8555 24.9753L44.9147 25.1233C44.9664 25.25 45.008 25.3806 45.0389 25.5139C45.1218 25.8513 45.2342 26.2892 45.3526 26.7331C45.471 27.177 45.4887 27.6386 45.5479 27.9759C45.5775 28.1476 45.5953 28.2896 45.613 28.3843V28.5441L47.9389 28.331C47.9389 28.331 47.9389 28.2659 47.9389 28.1476Z" fill="#FF0052"/>
<path d="M44.5654 19.4239C44.1609 18.8522 43.7159 18.3103 43.2338 17.8023L41.5293 19.3766C41.9585 19.818 42.3542 20.2908 42.713 20.7911C42.9708 21.1229 43.2042 21.473 43.4113 21.8386L43.7072 22.3239L45.7313 21.1876L45.388 20.6254C45.1434 20.2054 44.8684 19.8039 44.5654 19.4239Z" fill="#FF0052"/>
<path d="M38.937 17.104L39.3927 17.4472L40.7835 15.5889C40.7835 15.5889 40.5764 15.4291 40.2568 15.1983C39.9372 14.9674 39.4815 14.707 39.0376 14.4289C38.6261 14.1772 38.1992 13.9519 37.7592 13.7542L37.1674 13.4701L36.2441 15.6007L36.759 15.8493C37.1427 16.0215 37.5144 16.2192 37.8717 16.4411C38.2564 16.6778 38.6647 16.8909 38.937 17.104Z" fill="#FF0052"/>
<path d="M33.6401 3.551C32.5914 3.41993 31.5365 3.34486 30.4797 3.3261C29.0934 3.31645 27.7084 3.4134 26.3369 3.6161V8.2975H33.6165L33.6401 3.551Z" fill="white"/>
<path d="M46.2576 8.59933L42.7539 12.0971L47.9029 17.246L51.4894 13.6417C50.3904 12.2369 49.1488 10.9497 47.7845 9.80075C47.311 9.38646 46.7902 8.98994 46.2576 8.59933Z" fill="#FF0052"/>
<path d="M8.59961 46.2576C9.01389 46.8495 9.45185 47.3821 9.89572 47.9029C11.0199 49.2221 12.2751 50.4238 13.642 51.4894L17.2463 47.8911L12.0973 42.7421L8.59961 46.2576Z" fill="white"/>
<path d="M3.35518 30.6392C3.36642 31.6421 3.43161 32.6438 3.55048 33.6398H8.28514V26.3602H3.64518C3.43633 27.7767 3.33937 29.2075 3.35518 30.6392Z" fill="white"/>
<path d="M17.2462 12.0971L13.9675 8.8183C12.9783 9.56007 12.0428 10.3709 11.1681 11.2448C10.3192 12.0923 9.52835 12.9959 8.80078 13.9495L12.0736 17.2282L17.2462 12.0971Z" fill="white"/>
<path d="M50.8563 28.331C50.3857 23.0572 47.8785 18.1744 43.8668 14.7189C42.3124 13.3477 40.5428 12.242 38.6291 11.446C38.2301 11.2522 37.8165 11.0899 37.3921 10.9607L36.2085 10.5701C35.4391 10.3689 34.723 10.2328 34.0897 10.0848L32.3142 9.88361C31.889 9.85015 31.4623 9.8383 31.0358 9.8481H29.9646L31.0299 9.94871C31.3732 9.99606 31.8111 9.99606 32.3024 10.0967L33.9891 10.4222C34.5809 10.6056 35.303 10.7891 36.0368 11.014L37.1554 11.4697C37.5631 11.6212 37.9587 11.8032 38.3391 12.0142C40.1246 12.8965 41.7651 14.0461 43.2039 15.4232C44.8973 17.0344 46.2989 18.9266 47.3467 21.016C48.4976 23.3378 49.1794 25.8638 49.3531 28.4494L49.3945 29.4614V29.9704V30.4557L49.3294 31.521L49.2939 32.0537L49.211 32.5508C49.1214 33.2277 48.987 33.898 48.8086 34.5571C48.6608 35.2376 48.463 35.9062 48.2167 36.5575C47.2586 39.1457 45.7667 41.5033 43.8379 43.4771C41.909 45.451 39.5865 46.9969 37.0211 48.0145C34.4557 49.032 31.705 49.4984 28.9475 49.3834C26.1901 49.2683 23.4878 48.5744 21.0161 47.3466C17.1251 45.3951 13.9634 42.2459 11.9966 38.3626C11.7856 37.9823 11.6036 37.5866 11.4521 37.1789C11.2923 36.7883 11.1443 36.4155 10.9964 36.0604C10.7537 35.3265 10.5762 34.634 10.4046 34.0126C10.2329 33.3912 10.1737 32.829 10.079 32.32C9.98436 31.811 9.97844 31.3967 9.93109 31.0535L9.83048 29.9882C9.83048 29.9882 9.83048 30.361 9.83048 31.0594C9.82067 31.4878 9.83252 31.9164 9.86599 32.3437C9.92517 32.8526 9.99027 33.4326 10.0672 34.0836C10.1442 34.7347 10.3513 35.433 10.5525 36.2024L10.9431 37.3861C11.0687 37.8117 11.231 38.2256 11.4284 38.623C12.2233 40.5391 13.3291 42.3108 14.7013 43.8666C18.17 47.8861 23.0713 50.3919 28.3608 50.8503C31.3281 51.1189 34.3184 50.7414 37.1258 49.7435C40.044 48.7243 42.6946 47.0599 44.8803 44.8742C47.066 42.6885 48.7304 40.0379 49.7496 37.1197C50.0176 36.4025 50.2332 35.6666 50.3947 34.9181C50.5756 34.1802 50.7061 33.4307 50.7853 32.6751C50.8772 31.9566 50.9266 31.2333 50.9333 30.509V29.9171V29.3727C50.8977 29.0531 50.8977 28.692 50.8563 28.331Z" fill="white"/>
<path d="M15.7666 30C15.7666 32.8093 16.5997 35.5555 18.1604 37.8913C19.7212 40.2271 21.9395 42.0477 24.535 43.1228C27.1304 44.1978 29.9863 44.4791 32.7416 43.931C35.4969 43.383 38.0279 42.0302 40.0143 40.0437C42.0008 38.0573 43.3536 35.5264 43.9016 32.7711C44.4497 30.0158 44.1684 27.1598 43.0934 24.5644C42.0183 21.9689 40.1977 19.7506 37.8619 18.1898C35.5261 16.6291 32.7799 15.796 29.9706 15.796C26.2073 15.8085 22.6017 17.309 19.9406 19.9701C17.2796 22.6311 15.7791 26.2367 15.7666 30ZM43.3756 30C43.3756 32.6454 42.5911 35.2314 41.1214 37.431C39.6517 39.6306 37.5628 41.3449 35.1187 42.3573C32.6747 43.3696 29.9853 43.6345 27.3908 43.1184C24.7962 42.6023 22.4129 41.3284 20.5423 39.4578C18.6717 37.5873 17.3979 35.204 16.8818 32.6094C16.3657 30.0148 16.6305 27.3255 17.6429 24.8814C18.6553 22.4374 20.3696 20.3485 22.5692 18.8787C24.7688 17.409 27.3548 16.6246 30.0002 16.6246C31.7567 16.6246 33.4959 16.9705 35.1187 17.6427C36.7415 18.3149 38.216 19.3001 39.458 20.5421C40.7 21.7842 41.6853 23.2587 42.3575 24.8814C43.0296 26.5042 43.3756 28.2435 43.3756 30Z" fill="white"/>
<path d="M20.5186 31.3967C20.5186 34.0067 22.1934 35.8946 24.7028 35.8946C26.1821 35.9031 27.6158 35.3826 28.745 34.4269C28.745 36.522 26.8985 39.0965 26.8985 39.0965H33.1009C33.1009 39.0965 31.2544 36.522 31.2544 34.4269C32.3837 35.3826 33.8173 35.9031 35.2966 35.8946C37.8119 35.8946 39.4809 34.0067 39.4809 31.3967C39.4809 25.9578 32.0238 23.7917 30.0115 19.5601C27.9756 23.7917 20.5186 25.9578 20.5186 31.3967Z" fill="#FF0052"/>
<path d="M98.296 22.476C98.128 23.932 97.6147 25.1733 96.756 26.2C95.8973 27.2267 94.7307 28.0107 93.256 28.552C91.7813 29.0933 90.0267 29.364 87.992 29.364C86.2933 29.364 84.7347 29.168 83.316 28.776C81.916 28.384 80.7027 27.796 79.676 27.012C78.668 26.228 77.884 25.2573 77.324 24.1C76.764 22.924 76.484 21.552 76.484 19.984C76.484 18.416 76.764 17.044 77.324 15.868C77.884 14.692 78.668 13.712 79.676 12.928C80.7027 12.1253 81.916 11.528 83.316 11.136C84.7347 10.7253 86.2933 10.52 87.992 10.52C90.0267 10.52 91.7813 10.8 93.256 11.36C94.7493 11.92 95.9253 12.7227 96.784 13.768C97.6427 14.7947 98.1467 16.0453 98.296 17.52H94.6C94.3573 16.736 93.9467 16.064 93.368 15.504C92.808 14.9253 92.08 14.4867 91.184 14.188C90.288 13.8893 89.224 13.74 87.992 13.74C86.4613 13.74 85.1173 13.9827 83.96 14.468C82.8027 14.9347 81.9067 15.6347 81.272 16.568C80.6373 17.4827 80.32 18.6213 80.32 19.984C80.32 21.328 80.6373 22.4573 81.272 23.372C81.9067 24.2867 82.8027 24.9867 83.96 25.472C85.1173 25.9387 86.4613 26.172 87.992 26.172C89.224 26.172 90.2787 26.0227 91.156 25.724C92.052 25.4253 92.78 24.996 93.34 24.436C93.9187 23.876 94.3387 23.2227 94.6 22.476H98.296ZM108.229 29.308C106.848 29.308 105.588 29.0093 104.449 28.412C103.329 27.796 102.433 26.9467 101.761 25.864C101.108 24.7627 100.781 23.4933 100.781 22.056C100.781 20.5813 101.117 19.3027 101.789 18.22C102.461 17.1373 103.367 16.2973 104.505 15.7C105.663 15.084 106.969 14.776 108.425 14.776C110.031 14.776 111.319 15.1027 112.289 15.756C113.279 16.3907 113.997 17.2587 114.445 18.36C114.893 19.4613 115.117 20.6933 115.117 22.056C115.117 22.8773 114.987 23.7173 114.725 24.576C114.464 25.416 114.063 26.2 113.521 26.928C112.98 27.6373 112.271 28.216 111.393 28.664C110.516 29.0933 109.461 29.308 108.229 29.308ZM109.405 26.508C110.507 26.508 111.459 26.3213 112.261 25.948C113.064 25.5747 113.68 25.052 114.109 24.38C114.539 23.708 114.753 22.9333 114.753 22.056C114.753 21.104 114.529 20.3013 114.081 19.648C113.652 18.976 113.036 18.472 112.233 18.136C111.449 17.7813 110.507 17.604 109.405 17.604C107.856 17.604 106.652 18.0147 105.793 18.836C104.935 19.6387 104.505 20.712 104.505 22.056C104.505 22.952 104.711 23.736 105.121 24.408C105.532 25.0613 106.101 25.5747 106.829 25.948C107.576 26.3213 108.435 26.508 109.405 26.508ZM114.753 15.084H118.393V29H115.005C115.005 29 114.977 28.8227 114.921 28.468C114.884 28.0947 114.847 27.628 114.809 27.068C114.772 26.508 114.753 25.9573 114.753 25.416V15.084ZM121.128 24.38H124.488C124.693 25.0147 125.113 25.5373 125.748 25.948C126.401 26.34 127.25 26.536 128.296 26.536C129.005 26.536 129.556 26.4707 129.948 26.34C130.34 26.2093 130.61 26.0227 130.76 25.78C130.909 25.5187 130.984 25.2293 130.984 24.912C130.984 24.52 130.862 24.2213 130.62 24.016C130.377 23.792 130.004 23.6147 129.5 23.484C128.996 23.3533 128.352 23.232 127.568 23.12C126.784 22.9893 126.028 22.8307 125.3 22.644C124.572 22.4573 123.928 22.2147 123.368 21.916C122.808 21.5987 122.36 21.2067 122.024 20.74C121.706 20.2547 121.548 19.6667 121.548 18.976C121.548 18.304 121.706 17.7067 122.024 17.184C122.36 16.6613 122.817 16.2227 123.396 15.868C123.993 15.5133 124.684 15.2427 125.468 15.056C126.27 14.8693 127.129 14.776 128.044 14.776C129.425 14.776 130.573 14.9813 131.488 15.392C132.402 15.784 133.084 16.344 133.532 17.072C133.998 17.7813 134.232 18.6027 134.232 19.536H131.012C130.862 18.8453 130.564 18.3507 130.116 18.052C129.668 17.7347 128.977 17.576 128.044 17.576C127.129 17.576 126.438 17.716 125.972 17.996C125.505 18.276 125.272 18.6587 125.272 19.144C125.272 19.536 125.412 19.844 125.692 20.068C125.99 20.2733 126.42 20.4413 126.98 20.572C127.558 20.7027 128.277 20.8427 129.136 20.992C129.864 21.1413 130.554 21.3093 131.208 21.496C131.88 21.6827 132.477 21.9253 133 22.224C133.522 22.504 133.933 22.8867 134.232 23.372C134.549 23.8387 134.708 24.436 134.708 25.164C134.708 26.06 134.446 26.816 133.924 27.432C133.42 28.048 132.692 28.524 131.74 28.86C130.788 29.1773 129.649 29.336 128.324 29.336C127.148 29.336 126.13 29.2147 125.272 28.972C124.432 28.7107 123.732 28.384 123.172 27.992C122.612 27.5813 122.173 27.152 121.856 26.704C121.557 26.2373 121.352 25.7987 121.24 25.388C121.128 24.9773 121.09 24.6413 121.128 24.38ZM141.665 8.98V12.172H137.437V8.98H141.665ZM137.717 15.084H141.357V29H137.717V15.084Z" fill="white"/>
<path d="M144.985 15.084H148.625V29H144.985V15.084ZM155.093 14.776C155.951 14.776 156.745 14.888 157.473 15.112C158.201 15.336 158.835 15.6813 159.377 16.148C159.918 16.6147 160.338 17.212 160.637 17.94C160.935 18.6493 161.085 19.4987 161.085 20.488V29H157.445V21.132C157.445 19.956 157.155 19.0973 156.577 18.556C156.017 17.996 155.093 17.716 153.805 17.716C152.834 17.716 151.957 17.9027 151.173 18.276C150.389 18.6493 149.754 19.1253 149.269 19.704C148.783 20.264 148.503 20.852 148.429 21.468L148.401 20.04C148.494 19.3867 148.709 18.752 149.045 18.136C149.381 17.52 149.829 16.96 150.389 16.456C150.967 15.9333 151.649 15.5227 152.433 15.224C153.217 14.9253 154.103 14.776 155.093 14.776ZM167.217 14.776C168.075 14.776 168.869 14.888 169.597 15.112C170.325 15.336 170.959 15.6813 171.501 16.148C172.042 16.6147 172.462 17.212 172.761 17.94C173.078 18.6493 173.237 19.4987 173.237 20.488V29H169.597V21.132C169.597 19.956 169.307 19.0973 168.729 18.556C168.15 17.996 167.217 17.716 165.929 17.716C164.958 17.716 164.081 17.9027 163.297 18.276C162.513 18.6493 161.878 19.1253 161.393 19.704C160.907 20.264 160.637 20.852 160.581 21.468L160.525 19.956C160.618 19.34 160.842 18.724 161.197 18.108C161.551 17.492 162.018 16.932 162.597 16.428C163.175 15.924 163.847 15.5227 164.613 15.224C165.397 14.9253 166.265 14.776 167.217 14.776ZM184.743 29.336C182.989 29.336 181.439 29.056 180.095 28.496C178.77 27.936 177.734 27.124 176.987 26.06C176.241 24.9773 175.867 23.652 175.867 22.084C175.867 20.516 176.241 19.1907 176.987 18.108C177.734 17.0067 178.77 16.176 180.095 15.616C181.439 15.056 182.989 14.776 184.743 14.776C186.498 14.776 188.029 15.056 189.335 15.616C190.661 16.176 191.697 17.0067 192.443 18.108C193.19 19.1907 193.563 20.516 193.563 22.084C193.563 23.652 193.19 24.9773 192.443 26.06C191.697 27.124 190.661 27.936 189.335 28.496C188.029 29.056 186.498 29.336 184.743 29.336ZM184.743 26.536C185.714 26.536 186.582 26.368 187.347 26.032C188.131 25.6773 188.747 25.1733 189.195 24.52C189.643 23.848 189.867 23.036 189.867 22.084C189.867 21.132 189.643 20.32 189.195 19.648C188.747 18.9573 188.141 18.4347 187.375 18.08C186.61 17.7253 185.733 17.548 184.743 17.548C183.773 17.548 182.895 17.7253 182.111 18.08C181.327 18.4347 180.702 18.948 180.235 19.62C179.787 20.292 179.563 21.1133 179.563 22.084C179.563 23.036 179.787 23.848 180.235 24.52C180.683 25.1733 181.299 25.6773 182.083 26.032C182.867 26.368 183.754 26.536 184.743 26.536ZM211.389 15.084L204.165 22.84L198.957 29H194.505L202.037 20.852L206.965 15.084H211.389ZM194.505 15.084H198.957L204.221 20.796L211.781 29H207.329L201.925 22.924L194.505 15.084Z" fill="#FF0052"/>
<path opacity="0.7" d="M83.145 41.605C83.145 42.475 82.845 43.2 82.245 43.78C81.655 44.35 80.75 44.635 79.53 44.635H77.52V49H76.155V38.545H79.53C80.71 38.545 81.605 38.83 82.215 39.4C82.835 39.97 83.145 40.705 83.145 41.605ZM79.53 43.51C80.29 43.51 80.85 43.345 81.21 43.015C81.57 42.685 81.75 42.215 81.75 41.605C81.75 40.315 81.01 39.67 79.53 39.67H77.52V43.51H79.53ZM87.8565 37.9V49H86.4915V37.9H87.8565ZM91.3229 44.86C91.3229 44.02 91.4929 43.285 91.8329 42.655C92.1729 42.015 92.6379 41.52 93.2279 41.17C93.8279 40.82 94.4929 40.645 95.2229 40.645C95.9429 40.645 96.5679 40.8 97.0979 41.11C97.6279 41.42 98.0229 41.81 98.2829 42.28V40.78H99.6629V49H98.2829V47.47C98.0129 47.95 97.6079 48.35 97.0679 48.67C96.5379 48.98 95.9179 49.135 95.2079 49.135C94.4779 49.135 93.8179 48.955 93.2279 48.595C92.6379 48.235 92.1729 47.73 91.8329 47.08C91.4929 46.43 91.3229 45.69 91.3229 44.86ZM98.2829 44.875C98.2829 44.255 98.1579 43.715 97.9079 43.255C97.6579 42.795 97.3179 42.445 96.8879 42.205C96.4679 41.955 96.0029 41.83 95.4929 41.83C94.9829 41.83 94.5179 41.95 94.0979 42.19C93.6779 42.43 93.3429 42.78 93.0929 43.24C92.8429 43.7 92.7179 44.24 92.7179 44.86C92.7179 45.49 92.8429 46.04 93.0929 46.51C93.3429 46.97 93.6779 47.325 94.0979 47.575C94.5179 47.815 94.9829 47.935 95.4929 47.935C96.0029 47.935 96.4679 47.815 96.8879 47.575C97.3179 47.325 97.6579 46.97 97.9079 46.51C98.1579 46.04 98.2829 45.495 98.2829 44.875ZM110.7 40.78L105.75 52.87H104.34L105.96 48.91L102.645 40.78H104.16L106.74 47.44L109.29 40.78H110.7ZM127.396 49L126.031 47.62C125.521 48.15 124.976 48.545 124.396 48.805C123.816 49.055 123.161 49.18 122.431 49.18C121.711 49.18 121.071 49.05 120.511 48.79C119.961 48.53 119.531 48.16 119.221 47.68C118.921 47.2 118.771 46.64 118.771 46C118.771 45.27 118.976 44.63 119.386 44.08C119.806 43.52 120.421 43.08 121.231 42.76C120.911 42.38 120.681 42.03 120.541 41.71C120.401 41.39 120.331 41.04 120.331 40.66C120.331 40.22 120.441 39.825 120.661 39.475C120.891 39.115 121.216 38.835 121.636 38.635C122.056 38.435 122.541 38.335 123.091 38.335C123.631 38.335 124.101 38.44 124.501 38.65C124.901 38.86 125.201 39.155 125.401 39.535C125.601 39.905 125.691 40.32 125.671 40.78H124.306C124.316 40.37 124.201 40.05 123.961 39.82C123.721 39.58 123.411 39.46 123.031 39.46C122.631 39.46 122.306 39.575 122.056 39.805C121.816 40.025 121.696 40.31 121.696 40.66C121.696 40.96 121.776 41.25 121.936 41.53C122.106 41.81 122.386 42.155 122.776 42.565L125.896 45.7L126.166 45.28L127.186 43.57H128.656L127.426 45.7C127.256 46 127.056 46.315 126.826 46.645L129.181 49H127.396ZM122.431 48.01C122.971 48.01 123.456 47.905 123.886 47.695C124.326 47.485 124.741 47.16 125.131 46.72L122.056 43.63C120.776 44.12 120.136 44.895 120.136 45.955C120.136 46.545 120.346 47.035 120.766 47.425C121.196 47.815 121.751 48.01 122.431 48.01ZM150.899 38.545L147.869 49H146.339L143.909 40.585L141.389 49L139.874 49.015L136.949 38.545H138.404L140.684 47.41L143.204 38.545H144.734L147.134 47.38L149.429 38.545H150.899ZM154.747 39.445C154.487 39.445 154.267 39.355 154.087 39.175C153.907 38.995 153.817 38.775 153.817 38.515C153.817 38.255 153.907 38.035 154.087 37.855C154.267 37.675 154.487 37.585 154.747 37.585C154.997 37.585 155.207 37.675 155.377 37.855C155.557 38.035 155.647 38.255 155.647 38.515C155.647 38.775 155.557 38.995 155.377 39.175C155.207 39.355 154.997 39.445 154.747 39.445ZM155.407 40.78V49H154.042V40.78H155.407ZM163.389 40.63C164.389 40.63 165.199 40.935 165.819 41.545C166.439 42.145 166.749 43.015 166.749 44.155V49H165.399V44.35C165.399 43.53 165.194 42.905 164.784 42.475C164.374 42.035 163.814 41.815 163.104 41.815C162.384 41.815 161.809 42.04 161.379 42.49C160.959 42.94 160.749 43.595 160.749 44.455V49H159.384V40.78H160.749V41.95C161.019 41.53 161.384 41.205 161.844 40.975C162.314 40.745 162.829 40.63 163.389 40.63ZM184.498 49H183.133L177.643 40.675V49H176.278V38.53H177.643L183.133 46.84V38.53H184.498V49ZM192.06 49.135C191.29 49.135 190.59 48.96 189.96 48.61C189.34 48.26 188.85 47.765 188.49 47.125C188.14 46.475 187.965 45.725 187.965 44.875C187.965 44.035 188.145 43.295 188.505 42.655C188.875 42.005 189.375 41.51 190.005 41.17C190.635 40.82 191.34 40.645 192.12 40.645C192.9 40.645 193.605 40.82 194.235 41.17C194.865 41.51 195.36 42 195.72 42.64C196.09 43.28 196.275 44.025 196.275 44.875C196.275 45.725 196.085 46.475 195.705 47.125C195.335 47.765 194.83 48.26 194.19 48.61C193.55 48.96 192.84 49.135 192.06 49.135ZM192.06 47.935C192.55 47.935 193.01 47.82 193.44 47.59C193.87 47.36 194.215 47.015 194.475 46.555C194.745 46.095 194.88 45.535 194.88 44.875C194.88 44.215 194.75 43.655 194.49 43.195C194.23 42.735 193.89 42.395 193.47 42.175C193.05 41.945 192.595 41.83 192.105 41.83C191.605 41.83 191.145 41.945 190.725 42.175C190.315 42.395 189.985 42.735 189.735 43.195C189.485 43.655 189.36 44.215 189.36 44.875C189.36 45.545 189.48 46.11 189.72 46.57C189.97 47.03 190.3 47.375 190.71 47.605C191.12 47.825 191.57 47.935 192.06 47.935ZM210.669 40.78L208.104 49H206.694L204.714 42.475L202.734 49H201.324L198.744 40.78H200.139L202.029 47.68L204.069 40.78H205.464L207.459 47.695L209.319 40.78H210.669Z" fill="white"/>
</svg>
