<svg width="1920" height="1920" viewBox="0 0 1920 1920" fill="none" xmlns="http://www.w3.org/2000/svg">
<g opacity="0.015">
<mask id="mask0_4039_12" style="mask-type:alpha" maskUnits="userSpaceOnUse" x="0" y="0" width="1920" height="1920">
<rect width="1920" height="1920" fill="black"/>
</mask>
<g mask="url(#mask0_4039_12)">
<path d="M961.262 969.934L1008.9 1920H1105.35L961.668 969.392L961.398 967.495L1005.51 0H908.837L959.862 969.889L961.262 969.934Z" fill="white"/>
<path d="M953.452 968.489L953.813 968.715L65.9266 1920H231.195L954.355 968.986L955.439 969.618L372.982 1920H498.062L955.936 969.889L956.477 970.205L611.582 1920H716.884L956.974 970.476L957.606 970.837L957.019 970.385V970.024L957.651 970.566L816.812 1920H913.219L958.374 969.798V969.482V969.979V969.347L958.6 970.205L958.374 968.895V968.082L958.735 967.676H958.374L958.6 967.089V965.012L958.284 967.179V966.547L958.69 964.967L958.239 966.231V965.96L958.735 964.967L958.193 965.78V965.238H958.419H958.148V964.786L810.536 0H708.937L957.29 964.244L956.794 964.605L601.648 0H486.141L956.161 964.967L955.62 965.328L358.442 0H213.945L955.168 965.644L953.949 966.547L45.1552 0H14.4045C9.58795 4.78645 4.78645 9.61806 0 14.4948V139.168L953.362 966.773L951.24 966.321L0 295.947V432.497L948.666 965.825L0 554.416V666.536L938.506 963.702L0 771.115V871.495L948.259 966.683L950.156 967.27L0 969.347V1067.38L950.201 968.308L948.937 968.85L0 1167.85V1273.38L939.951 973.004L0 1385V1507.64L949.343 969.798L0 1644.6V1802.64L951.826 969.076L953.452 968.489Z" fill="white"/>
<path d="M963.298 970.115L963.343 970.295L962.756 970.702L963.389 970.386L1205.65 1920H1311.17L963.885 970.07L964.246 969.844L1424.78 1920H1550.14L964.743 969.573L965.15 969.347H964.156L964.472 969.076L964.337 968.85L963.975 969.257L964.021 969.392L963.705 969.573L963.614 969.392H963.118L963.298 969.979L962.666 970.657L963.298 970.115Z" fill="white"/>
<path d="M1920 1504.66V1382.38L977.566 970.837L1920 1270.53V1165.37L978.74 969.256H974.224L972.509 968.489L977.882 969.031L969.98 967.405L969.077 966.999L970.702 966.096L1919.91 865.399V764.613L978.875 963.296L1919.91 659.672V547.191L979.101 961.399L1920 424.73V287.458L970.522 965.147L968.309 965.689L1920 129.189V14.0433C1915.48 9.52775 1910.74 4.60583 1906.09 0H1864.41L967 965.96L966.051 965.554L1697.07 0H1553.97L965.329 965.373L964.29 964.922L1426.91 0H1312.03L963.794 964.651L963.432 964.38L1205.1 0H1103.87L962.936 964.018V964.289V964.876L962.439 964.38L962.891 964.967V965.87L962.168 964.696V965.147L961.942 964.741L962.349 965.78H961.807L962.303 966.908L961.4 967.134H962.303V967.586H962.574V967.947V967.495H963.071L962.755 966.999L963.658 966.728L963.297 967.36H963.658L963.929 967.044V967.36L964.245 967.586V967.902L964.652 967.586H965.013L965.916 967.134H966.187L965.78 967.45H966.638H967.903L967.316 966.999L972.238 968.579H970.838L1920 1504.66Z" fill="white"/>
<path d="M1920 962.529L979.506 969.257L1920 1065.35V962.529Z" fill="white"/>
<path d="M1858.14 1920L966.911 969.347H966.053L1692.06 1920H1858.14Z" fill="white"/>
<path d="M1920 1641.39L970.429 969.302L968.984 969.347L1920 1798.89V1641.39Z" fill="white"/>
</g>
</g>
</svg>
